<?xml version="1.0" encoding="utf-8"?>
<!-- Generator: Adobe Illustrator 16.0.0, SVG Export Plug-In . SVG Version: 6.00 Build 0)  -->
<!DOCTYPE svg PUBLIC "-//W3C//DTD SVG 1.1//EN" "http://www.w3.org/Graphics/SVG/1.1/DTD/svg11.dtd">
<svg version="1.1" id="Layer_1" xmlns="http://www.w3.org/2000/svg" xmlns:xlink="http://www.w3.org/1999/xlink" x="0px" y="0px"
	 width="500px" height="500px" viewBox="0 0 500 500" enable-background="new 0 0 500 500" xml:space="preserve">
<g>
	<path fill-rule="evenodd" clip-rule="evenodd" fill="#364C61" d="M250,0c138.069,0,250,111.931,250,250S388.069,500,250,500
		C111.925,500,0,388.069,0,250S111.925,0,250,0z"/>
	<g>
		<path fill-rule="evenodd" clip-rule="evenodd" fill="#00FFFF" d="M396.767,154.335H182.53l-6.282-28.06
			c-0.89-3.993-4.46-6.831-8.583-6.831h-53.32c-4.861,0-8.789,3.901-8.789,8.724s3.928,8.724,8.789,8.724h46.267l26.855,119.96
			l181.109,33.572c0.651-0.847,1.183-1.78,1.486-2.849l35.156-122.125c0.76-2.631,0.239-5.458-1.421-7.644
			C402.127,155.626,399.533,154.335,396.767,154.335z"/>
		<path fill="#29ABE2" d="M364.844,320.074c0-4.818-3.928-8.725-8.789-8.725H197.266c-4.839,0-8.789-3.906-8.789-8.724
			c0-4.807,3.95-8.724,8.789-8.724h124.588L184.511,268.44l2.284,10.194c-9.343,4.037-15.896,13.26-15.896,23.991
			c0,14.432,11.827,26.172,26.367,26.172h12.055c-11.893,2.528-20.844,13.031-20.844,25.586c0,14.432,11.827,26.172,26.367,26.172
			s26.367-11.74,26.367-26.172c0-12.555-8.952-23.058-20.844-25.586h112.586c-11.893,2.528-20.844,13.031-20.844,25.586
			c0,14.432,11.827,26.172,26.367,26.172s26.367-11.74,26.367-26.172c0-12.555-8.941-23.058-20.845-25.586h12.056
			C360.916,328.798,364.844,324.892,364.844,320.074z"/>
	</g>
</g>
<g>
</g>
<g>
</g>
<g>
</g>
<g>
</g>
<g>
</g>
<g>
</g>
<g>
</g>
<g>
</g>
<g>
</g>
<g>
</g>
<g>
</g>
<g>
</g>
<g>
</g>
<g>
</g>
<g>
</g>
</svg>
