<?xml version="1.0" encoding="utf-8"?>
<!-- Generator: Adobe Illustrator 16.0.0, SVG Export Plug-In . SVG Version: 6.00 Build 0)  -->
<!DOCTYPE svg PUBLIC "-//W3C//DTD SVG 1.1//EN" "http://www.w3.org/Graphics/SVG/1.1/DTD/svg11.dtd">
<svg version="1.1" id="Layer_1" xmlns="http://www.w3.org/2000/svg" xmlns:xlink="http://www.w3.org/1999/xlink" x="0px" y="0px"
	 width="500px" height="500px" viewBox="0 0 500 500" enable-background="new 0 0 500 500" xml:space="preserve">
<g>
	<path fill-rule="evenodd" clip-rule="evenodd" fill="#FB1218" d="M250,1c137.514,0,249,111.481,249,249
		c0,137.514-111.486,249-249,249C112.481,499,1,387.514,1,250C1,112.481,112.481,1,250,1z"/>
	<path fill="#FFFFFF" d="M254.98,389.439c14.822,0,26.942-12.1,26.942-26.894h-53.896
		C228.027,377.34,240.157,389.439,254.98,389.439z M342.567,308.768v-73.96c0-41.678-28.294-75.293-67.376-84.704v-9.416
		c0-10.757-9.435-20.168-20.211-20.168c-10.782,0-20.212,9.411-20.212,20.168v9.416c-39.082,9.41-67.381,43.025-67.381,84.704v73.96
		l-26.948,26.885v13.441h229.08v-13.441L342.567,308.768z"/>
</g>
<g>
</g>
<g>
</g>
<g>
</g>
<g>
</g>
<g>
</g>
<g>
</g>
<g>
</g>
<g>
</g>
<g>
</g>
<g>
</g>
<g>
</g>
<g>
</g>
<g>
</g>
<g>
</g>
<g>
</g>
</svg>
