<?xml version="1.0" encoding="utf-8"?>
<!-- Generator: Adobe Illustrator 16.0.0, SVG Export Plug-In . SVG Version: 6.00 Build 0)  -->
<!DOCTYPE svg PUBLIC "-//W3C//DTD SVG 1.1//EN" "http://www.w3.org/Graphics/SVG/1.1/DTD/svg11.dtd">
<svg version="1.1" id="Layer_1" xmlns="http://www.w3.org/2000/svg" xmlns:xlink="http://www.w3.org/1999/xlink" x="0px" y="0px"
	 width="500px" height="500px" viewBox="0 0 500 500" enable-background="new 0 0 500 500" xml:space="preserve">
<g>
	<path fill-rule="evenodd" clip-rule="evenodd" fill="#364C61" d="M250.003,0C388.065,0,500,111.929,500,250
		c0,138.071-111.935,250-249.997,250C111.926,500,0,388.071,0,250C0,111.929,111.926,0,250.003,0z"/>
	<g>
		<path fill-rule="evenodd" clip-rule="evenodd" fill="#00FFFF" d="M127.779,241.791l29.482,5.47V143.565
			c-0.097-1.73,0.542-3.418,1.751-4.655c1.215-1.248,2.903-1.926,4.649-1.883h183.768c1.744-0.043,3.439,0.636,4.652,1.878
			c1.218,1.242,1.856,2.93,1.76,4.66v132.271c0,2.688-0.145,5.242-0.273,7.813l28.932,5.36c0.494-5.752,0.832-11.659,0.832-17.905
			V115.607H127.779V241.791z"/>
		<polygon fill-rule="evenodd" clip-rule="evenodd" fill="#00FFFF" points="171.024,249.81 247.693,264.021 247.693,150.662 
			171.024,150.662 		"/>
		<path fill-rule="evenodd" clip-rule="evenodd" fill="#00FFFF" d="M261.445,266.569l78.452,14.547
			c0.064-1.761,0.188-3.461,0.188-5.28V150.662h-78.64V266.569z"/>
		<path fill="#29ABE2" d="M347.061,294.578c-6.358,49.682-38.815,75.48-88.39,99.293l-5.642,2.839
			c-0.932,0.45-1.948,0.682-2.973,0.682c-1.025,0-2.028-0.231-2.951-0.682l-5.774-2.839
			c-55.479-26.651-89.626-55.696-89.626-118.035V258.37l-29.482-5.468v18.201c0,83.271,44.64,121.152,122.266,158.444l5.382,2.726
			l5.557-2.726c68.077-32.698,110.815-65.858,120.323-129.652L347.061,294.578z"/>
		<path fill="#29ABE2" d="M165.471,260.919v14.917c0,53.685,27.716,79.123,76.666,103.354V275.128L165.471,260.919z"/>
		<path fill="#29ABE2" d="M255.892,277.682v102.459c44.857-21.925,72.298-44.627,77.615-88.073L255.892,277.682z"/>
	</g>
</g>
<g>
</g>
<g>
</g>
<g>
</g>
<g>
</g>
<g>
</g>
<g>
</g>
<g>
</g>
<g>
</g>
<g>
</g>
<g>
</g>
<g>
</g>
<g>
</g>
<g>
</g>
<g>
</g>
<g>
</g>
</svg>
