<?xml version="1.0" encoding="utf-8"?>
<!-- Generator: Adobe Illustrator 16.0.0, SVG Export Plug-In . SVG Version: 6.00 Build 0)  -->
<!DOCTYPE svg PUBLIC "-//W3C//DTD SVG 1.1//EN" "http://www.w3.org/Graphics/SVG/1.1/DTD/svg11.dtd">
<svg version="1.1" id="Layer_1" xmlns="http://www.w3.org/2000/svg" xmlns:xlink="http://www.w3.org/1999/xlink" x="0px" y="0px"
	 width="500px" height="500px" viewBox="0 0 500 500" enable-background="new 0 0 500 500" xml:space="preserve">
<g>
	<path fill-rule="evenodd" clip-rule="evenodd" fill="#364C61" d="M250,0c138.069,0,250,111.931,250,250S388.069,500,250,500
		C111.928,500,0,388.069,0,250S111.928,0,250,0z"/>
	<g>
		<path fill-rule="evenodd" clip-rule="evenodd" fill="#00FFFF" d="M316.536,205.512v-61.393c0-30.501-24.403-55.23-54.503-55.23
			h-13.086c-30.1,0-54.505,24.729-54.505,55.23v61.328c0,9.608,4.842,18.028,12.171,23.003v59.141c0,1.059-0.588,1.986-1.505,2.453
			c-2.393,1.193-7.56,3.824-14.518,7.66l182.82,33.893c-31.32-23.031-60.655-38.054-67.54-41.488
			c-0.917-0.467-1.503-1.389-1.503-2.452v-59.142C311.697,223.546,316.536,215.126,316.536,205.512z"/>
		<path fill="#29ABE2" d="M386.529,346.17l-216.114-40.061c-16.328,9.738-37.077,23.334-57.037,39.957
			c-6.676,5.702-10.601,14.122-10.601,23.009v42.036h294.445v-42.036C397.223,360.205,393.311,351.807,386.529,346.17z"/>
	</g>
</g>
<g>
</g>
<g>
</g>
<g>
</g>
<g>
</g>
<g>
</g>
<g>
</g>
<g>
</g>
<g>
</g>
<g>
</g>
<g>
</g>
<g>
</g>
<g>
</g>
<g>
</g>
<g>
</g>
<g>
</g>
</svg>
