<?xml version="1.0" encoding="utf-8"?>
<!-- Generator: Adobe Illustrator 16.0.0, SVG Export Plug-In . SVG Version: 6.00 Build 0)  -->
<!DOCTYPE svg PUBLIC "-//W3C//DTD SVG 1.1//EN" "http://www.w3.org/Graphics/SVG/1.1/DTD/svg11.dtd">
<svg version="1.1" id="Layer_1" xmlns="http://www.w3.org/2000/svg" xmlns:xlink="http://www.w3.org/1999/xlink" x="0px" y="0px"
	 width="500px" height="500px" viewBox="0 0 500 500" enable-background="new 0 0 500 500" xml:space="preserve">
<g>
	<path fill-rule="evenodd" clip-rule="evenodd" fill="#364C61" d="M250,0c138.069,0,250,111.931,250,250S388.069,500,250,500
		C111.925,500,0,388.069,0,250S111.925,0,250,0z"/>
	<g>
		<g>
			<path fill="#00FFFF" d="M218.549,155.778l-5.642,32.91c-0.564,3.298,0.786,6.629,3.494,8.594c1.53,1.117,3.342,1.682,5.165,1.682
				c1.4,0,2.805-0.336,4.09-1.009l29.558-15.538l29.558,15.538c1.285,0.673,2.69,1.009,4.085,1.009h0.027
				c4.845-0.011,8.778-3.939,8.778-8.789c0-0.673-0.076-1.335-0.223-1.964l-5.562-32.433l23.915-23.318
				c2.393-2.333,3.256-5.816,2.225-9.006c-1.036-3.18-3.787-5.501-7.097-5.979l-33.046-4.807l-14.778-29.937
				c-1.481-3.006-4.535-4.905-7.883-4.905c-3.342,0-6.402,1.899-7.878,4.905l-14.778,29.937l-33.051,4.807
				c-3.31,0.478-6.06,2.799-7.096,5.979c-1.031,3.19-0.168,6.673,2.224,9.006L218.549,155.778z"/>
			<path fill="#00FFFF" d="M105.892,277.734l66.466,12.321v-38.064h-34.82C121.967,251.991,108.936,263.059,105.892,277.734z"/>
			<path fill="#00FFFF" d="M288.162,219.038h-65.896c-17.822,0-32.33,14.507-32.33,32.324v41.955l130.55,24.196v-66.151
				C320.486,233.545,305.984,219.038,288.162,219.038z"/>
			<path fill="#00FFFF" d="M372.89,275.521h-34.825v45.253l67.149,12.446v-25.375C405.214,290.028,390.712,275.521,372.89,275.521z"
				/>
		</g>
		<g>
			<path fill="#29ABE2" d="M100,290.521v80.317c0,4.855,3.934,8.789,8.789,8.789h58.355v-76.66L100,290.521z"/>
			<path fill="#29ABE2" d="M184.722,306.229v64.61c0,4.855,3.939,8.789,8.789,8.789h112.972c4.855,0,8.789-3.934,8.789-8.789
				v-40.413L184.722,306.229z"/>
			<path fill="#29ABE2" d="M332.851,333.686v45.942h58.36c4.851,0,8.789-3.934,8.789-8.789v-24.707L332.851,333.686z"/>
		</g>
	</g>
</g>
<g>
</g>
<g>
</g>
<g>
</g>
<g>
</g>
<g>
</g>
<g>
</g>
<g>
</g>
<g>
</g>
<g>
</g>
<g>
</g>
<g>
</g>
<g>
</g>
<g>
</g>
<g>
</g>
<g>
</g>
</svg>
