<?xml version="1.0" encoding="utf-8"?>
<!-- Generator: Adobe Illustrator 16.0.0, SVG Export Plug-In . SVG Version: 6.00 Build 0)  -->
<!DOCTYPE svg PUBLIC "-//W3C//DTD SVG 1.1//EN" "http://www.w3.org/Graphics/SVG/1.1/DTD/svg11.dtd">
<svg version="1.1" id="Layer_1" xmlns="http://www.w3.org/2000/svg" xmlns:xlink="http://www.w3.org/1999/xlink" x="0px" y="0px"
	 width="500px" height="500px" viewBox="0 0 500 500" enable-background="new 0 0 500 500" xml:space="preserve">
<g>
	<path fill-rule="evenodd" clip-rule="evenodd" fill="#364C61" d="M250,0c138.069,0,250,111.931,250,250S388.069,500,250,500
		C111.928,500,0,388.069,0,250S111.928,0,250,0z"/>
	<g>
		<path fill-rule="evenodd" clip-rule="evenodd" fill="#00FFFF" d="M360.281,122.087l-101.411-0.055h-1.068l-101.416,0.055
			c0,0-0.372,6.505-0.166,16.77H89.019v11.002c0,2.49,0.426,61.54,37.27,93.875c15.34,13.493,34.475,20.263,57.099,20.263
			c3.423,0,6.939-0.2,10.471-0.472c12.836,17.355,27.647,29.584,44.317,35.612v15.636l40.318,7.471v-23.106
			c16.629-6.028,31.494-18.257,44.319-35.612c3.581,0.271,7.059,0.472,10.481,0.472c22.607,0,41.743-6.771,57.097-20.263
			c36.833-32.335,37.256-91.385,37.256-93.875v-11.002h-67.204C360.666,128.592,360.281,122.087,360.281,122.087z M141.043,227.382
			c-21.01-18.408-27.265-49.94-29.085-66.563h45.548c1.932,20.681,6.421,46.517,16.889,69.167c1.929,4.172,3.958,8.138,5.995,12.001
			C164.719,241.352,151.514,236.54,141.043,227.382z M404.709,160.818c-1.807,16.623-8.062,48.155-29.085,66.563
			c-10.471,9.158-23.677,13.97-39.345,14.605c2.094-3.863,4.063-7.829,5.995-12.001c10.481-22.651,15.022-48.486,16.889-69.167
			H404.709z"/>
		<polygon fill="#29ABE2" points="321.815,352.908 272.9,352.908 272.9,332.318 232.579,324.848 232.579,352.908 183.664,352.908 
			183.664,383.063 167.475,383.063 167.475,399.94 338.021,399.94 338.021,383.063 321.815,383.063 		"/>
	</g>
</g>
<g>
</g>
<g>
</g>
<g>
</g>
<g>
</g>
<g>
</g>
<g>
</g>
<g>
</g>
<g>
</g>
<g>
</g>
<g>
</g>
<g>
</g>
<g>
</g>
<g>
</g>
<g>
</g>
<g>
</g>
</svg>
