<?xml version="1.0" encoding="utf-8"?>
<!-- Generator: Adobe Illustrator 16.0.0, SVG Export Plug-In . SVG Version: 6.00 Build 0)  -->
<!DOCTYPE svg PUBLIC "-//W3C//DTD SVG 1.1//EN" "http://www.w3.org/Graphics/SVG/1.1/DTD/svg11.dtd">
<svg version="1.1" id="Layer_1" xmlns="http://www.w3.org/2000/svg" xmlns:xlink="http://www.w3.org/1999/xlink" x="0px" y="0px"
	 width="42.656px" height="92.267px" viewBox="0 0 42.656 92.267" enable-background="new 0 0 42.656 92.267" xml:space="preserve">
<g>
	<defs>
		<rect id="SVGID_1_" width="42.656" height="92.267"/>
	</defs>
	<clipPath id="SVGID_2_">
		<use xlink:href="#SVGID_1_"  overflow="visible"/>
	</clipPath>
	<g clip-path="url(#SVGID_2_)">
		<defs>
			<rect id="SVGID_3_" width="42.656" height="92.267"/>
		</defs>
		<clipPath id="SVGID_4_">
			<use xlink:href="#SVGID_3_"  overflow="visible"/>
		</clipPath>
		<path clip-path="url(#SVGID_4_)" fill="#D2AA82" d="M11.697,85.522l-0.962,0.204c0.318-0.019,0.514-0.019,0.514-0.019
			c2.893,1.974,2.944,5.147,2.944,5.147h3.237c0.7-0.459,0.704-1.271,0.704-2.199c0-0.557-0.145-1.281-0.403-1.961v-6.007h-6.034
			V85.522z"/>
		<path clip-path="url(#SVGID_4_)" fill="#D2AA82" d="M6.588,86.693c0.083-0.043,0.171-0.084,0.258-0.125
			c-1.923,0.638-2.398,1.731-2.387,2.444c0,0.845,0.404,1.471,1.025,1.843h3.932C8.764,86.901,6.588,86.693,6.588,86.693"/>
		<path clip-path="url(#SVGID_4_)" fill="#DBB99A" d="M24.926,86.694c-0.258,0.68-0.404,1.404-0.404,1.961
			c0,0.929,0.006,1.74,0.704,2.2h3.238c0,0,0.051-3.175,2.944-5.146c0,0,0.195,0,0.513,0.017l-0.962-0.203v-4.835h-6.033V86.694z"/>
		<path clip-path="url(#SVGID_4_)" fill="#DBB99A" d="M33.241,90.855h3.93c0.624-0.373,1.026-0.999,1.026-1.843
			c0.011-0.713-0.463-1.806-2.385-2.443c0.087,0.04,0.172,0.081,0.257,0.124C36.069,86.693,33.893,86.901,33.241,90.855"/>
		<path clip-path="url(#SVGID_4_)" fill="#464547" d="M13.342,90.855h-2.7H9.416H5.485H4.396c-0.326,0-0.591,0.265-0.591,0.59v0.232
			c0,0.326,0.265,0.59,0.591,0.59h13.13c0.325,0,0.588-0.264,0.588-0.59v-0.232c0-0.325-0.263-0.59-0.588-0.59h-0.095h-3.237H13.342
			z"/>
		<path clip-path="url(#SVGID_4_)" fill="#2B2A2A" d="M13.342,90.855h0.852c0,0-0.051-3.175-2.945-5.146c0,0-0.195,0-0.513,0.017
			c-0.106,0.005-0.223,0.013-0.352,0.024h0.008C12.696,87.406,13.342,90.855,13.342,90.855"/>
		<path clip-path="url(#SVGID_4_)" fill="#2B2A2A" d="M9.416,90.855h1.226c-0.232-3.601-2.601-4.707-2.616-4.713
			c-0.402,0.112-0.804,0.251-1.18,0.426c-0.087,0.04-0.175,0.082-0.258,0.125C6.588,86.693,8.764,86.901,9.416,90.855"/>
		<path clip-path="url(#SVGID_4_)" fill="#464547" d="M32.307,90.855h-2.697h-1.146h-3.238h-0.095c-0.325,0-0.589,0.265-0.589,0.59
			v0.232c0,0.326,0.264,0.59,0.589,0.59h13.131c0.325,0,0.589-0.264,0.589-0.59v-0.232c0-0.325-0.264-0.59-0.589-0.59h-1.091h-3.929
			H32.307z"/>
		<path clip-path="url(#SVGID_4_)" fill="#2B2A2A" d="M28.464,90.855h1.146c0,0,0.639-3.418,2.922-5.084
			c-0.234-0.021-0.441-0.037-0.611-0.046c-0.317-0.017-0.513-0.017-0.513-0.017C28.515,87.68,28.464,90.855,28.464,90.855"/>
		<path clip-path="url(#SVGID_4_)" fill="#2B2A2A" d="M32.307,90.855h0.936c0.65-3.954,2.827-4.162,2.827-4.162
			c-0.085-0.043-0.17-0.084-0.257-0.124c-0.255-0.119-0.521-0.222-0.798-0.311C35,86.266,32.541,87.258,32.307,90.855"/>
		<path clip-path="url(#SVGID_4_)" fill="#FFFFFF" d="M10.642,90.855h2.7c0,0-0.645-3.449-2.95-5.105h-0.008
			c-0.063,0.003-1.593,0.081-2.358,0.393h0.001C8.041,86.148,10.411,87.254,10.642,90.855"/>
		<path clip-path="url(#SVGID_4_)" fill="#FFFFFF" d="M29.609,90.855h2.697c0.234-3.597,2.694-4.589,2.708-4.597l0.003-0.002
			c-0.781-0.318-2.457-0.507-2.457-0.507c-0.01,0.005-0.02,0.015-0.028,0.021C30.249,87.437,29.609,90.855,29.609,90.855"/>
		<path clip-path="url(#SVGID_4_)" fill="#443220" d="M21.217,38.097H9.208v2.648c0,1.241,0.361,2.394,0.973,3.373l1.064,34.367h7
			l1.112-31.375h1.965v-9.013H21.217z"/>
		<polygon clip-path="url(#SVGID_4_)" fill="#000100" points="10.959,78.485 10.959,81.803 11.697,81.803 17.731,81.803 
			18.631,81.803 18.631,78.485 18.245,78.485 11.245,78.485 		"/>
		<path clip-path="url(#SVGID_4_)" fill="#5A4027" d="M22.98,38.097h-1.658v9.013h1.977l1.112,31.375h7l1.064-34.39
			c0.606-0.973,0.961-2.12,0.961-3.35v-2.648h-0.775H22.98z"/>
		<polygon clip-path="url(#SVGID_4_)" fill="#443220" points="24.023,78.485 24.023,81.803 24.926,81.803 30.96,81.803 
			31.695,81.803 31.695,78.485 31.411,78.485 24.411,78.485 		"/>
		<path clip-path="url(#SVGID_4_)" fill="#D2AA82" d="M0.757,39.715c0.063-0.042,0.136-0.072,0.217-0.072h3.534
			c0.12,0,0.221,0.053,0.292,0.133c0.066-3.175,0.466-12.58,2.85-19.526l-4.386-1.972C1.942,23.373,0.842,30.382,0.757,39.715"/>
		<path clip-path="url(#SVGID_4_)" fill="#D2AA82" d="M2.65,40.876H0.974c-0.062,0-0.121-0.017-0.173-0.045
			c-0.017-0.008-0.032-0.019-0.048-0.031v0.076C0.291,41.343,0,41.991,0,42.708v2.206c0,1.42,1.128,2.572,2.52,2.572
			c1.391,0,2.521-1.151,2.521-2.572v-1.575l0.323,0.863c0.141,0.395,0.577,0.603,0.971,0.462c0.397-0.141,0.604-0.577,0.464-0.973
			L6.375,42.56c-0.014-0.033-0.029-0.062-0.042-0.093c0,0-0.48-1.027-1.54-1.715c-0.072,0.075-0.169,0.124-0.286,0.124H2.65z"/>
		<path clip-path="url(#SVGID_4_)" fill="#DBB99A" d="M41.905,40.876c0-9.982-1.13-17.395-2.494-22.707l-4.322,1.945
			c2.697,7.889,2.847,19.056,2.855,20.586c-1.119,0.687-1.62,1.767-1.62,1.767h0.002c-0.015,0.031-0.032,0.06-0.044,0.093
			l-0.425,1.131c-0.14,0.396,0.068,0.832,0.463,0.973c0.396,0.141,0.831-0.067,0.972-0.462l0.324-0.863v1.575
			c0,1.42,1.127,2.572,2.52,2.572c1.392,0,2.521-1.151,2.521-2.572v-2.206C42.656,41.991,42.368,41.343,41.905,40.876"/>
		<path clip-path="url(#SVGID_4_)" fill="#DBB99A" d="M21.217,9.363c2.313,0.027,4.5-0.271,6.368-0.667
			c0.956-1.708,1.6-3.874-0.018-5.657c-1.024-0.23-2.153-0.401-3.42-0.48h-0.153l-2.726-0.045L21.217,9.363z"/>
		<path clip-path="url(#SVGID_4_)" fill="#333333" d="M0.974,39.643c-0.081,0-0.153,0.03-0.217,0.072
			c-0.099,0.068-0.17,0.174-0.17,0.3v0.489c0,0.125,0.068,0.23,0.165,0.296c0.017,0.012,0.032,0.024,0.049,0.031
			c0.052,0.028,0.111,0.045,0.173,0.045h1.677h1.857c0.116,0,0.214-0.048,0.285-0.123c0.063-0.067,0.102-0.152,0.102-0.249v-0.489
			c0-0.092-0.037-0.173-0.095-0.239c-0.071-0.079-0.172-0.133-0.292-0.133H0.974z"/>
		<path clip-path="url(#SVGID_4_)" fill="#D2AA82" d="M21.313,9.526l0.002,1.366l0.016-2.591l-0.009-5.786
			c0.087-0.002-2.801,0.053-2.801,0.053C15.259,2.786,13.984,3.2,13.984,3.2c0,0.01-0.638,1.071-0.638,1.083
			C13.503,15.107,20.136,9.308,21.313,9.526 M21.268,0.001h-0.002c-0.011,0-0.02-0.001-0.02-0.001S21.257,0.001,21.268,0.001"/>
		<path clip-path="url(#SVGID_4_)" fill="#C74145" d="M20.835,48.967c-10.433,0-13.292-3.287-13.292-3.287
			c1.872-6.723,2.417-21.07,1.988-26.516C9.104,13.718,6.57,5.907,6.57,5.907s3.483-1.681,6.753-2.564
			c2.632-0.71,7.513-0.966,7.513-0.966h0.707c0,0,4.881,0.256,7.513,0.966c3.27,0.883,6.753,2.564,6.753,2.564
			s-2.533,7.812-2.962,13.258c-0.429,5.446,0.117,19.793,1.988,26.516c0,0-2.859,3.287-13.292,3.287H20.835z"/>
		<path clip-path="url(#SVGID_4_)" fill="#A53531" d="M6.598,5.907c0,0-1.421,1.349-2.545,5.013s-1.819,6.977-1.819,6.977
			s4.063,2.302,7.372,1.948C9.606,19.845,9.606,9.677,6.598,5.907"/>
		<path clip-path="url(#SVGID_4_)" fill="#A53531" d="M35.808,5.907c0,0,1.421,1.349,2.545,5.013s1.819,6.977,1.819,6.977
			s-4.063,2.302-7.372,1.948C32.8,19.845,32.8,9.677,35.808,5.907"/>
		<path clip-path="url(#SVGID_4_)" fill="#E6D2D2" d="M2.234,17.947c-0.007-0.125,0.033-0.274,0.081-0.419
			c1.678,0.971,5.521,2.213,7.262,2.295c0,0.117,0.089,0.612,0.029,0.649C8.899,20.905,2.28,18.743,2.234,17.947"/>
		<path clip-path="url(#SVGID_4_)" fill="#E6D2D2" d="M40.199,18.015c0.007-0.125-0.047-0.283-0.095-0.429
			c-1.678,0.972-5.564,2.177-7.304,2.259c-0.002,0.117-0.061,0.584,0,0.621C33.507,20.899,40.153,18.81,40.199,18.015"/>
		<path clip-path="url(#SVGID_4_)" fill="#E6D2D2" d="M30.488,3.773c-0.476-0.155-0.956-0.301-1.434-0.43
			c-0.053-0.015-0.108-0.028-0.164-0.043v44.981c0.582-0.124,1.114-0.259,1.598-0.4V3.773z"/>
		<path clip-path="url(#SVGID_4_)" fill="#E6D2D2" d="M26.655,48.663c0.448-0.059,0.873-0.124,1.277-0.194V3.089
			c-0.408-0.079-0.839-0.15-1.277-0.214V48.663z"/>
		<g opacity="0.4" clip-path="url(#SVGID_4_)">
			<g>
				<defs>
					<rect id="SVGID_5_" x="22.493" y="5.907" width="13.314" height="43.052"/>
				</defs>
				<clipPath id="SVGID_6_">
					<use xlink:href="#SVGID_5_"  overflow="visible"/>
				</clipPath>
				<path clip-path="url(#SVGID_6_)" fill="#9EBBA1" d="M32.771,20.416c0.021-0.455,0.044-0.875,0.074-1.251
					c0.055-0.703,0.22-1.573,0.268-2.247c-0.044-0.363,1.054-5.152,1.077-5.252c0.7-2.896,1.288-4.407,1.617-5.759
					c-3.5,1.466-4.931,7.806-4.871,10.214c0.062,2.435-3.729,4.116-3.729,4.116s1.563,0.466,1.924,0.806
					c0.36,0.341-0.898,7.395-1.078,8.207s1.5,4.388,1.438,5.373c-0.06,0.985-5.173-2.714-5.173-2.714s4.692,6.514,5.234,7.5
					c0.541,0.986,1.021,2.188-0.241,4.739c-1.207,2.435-6.354,4.649-6.82,4.81c2.259-0.044,4.133-0.249,5.683-0.533
					c2.71-0.563,5.168-1.332,6.659-2.744c-0.83-2.983-1.399-7.467-1.738-12.008C32.708,29.564,32.485,24.88,32.771,20.416"/>
			</g>
		</g>
		<g opacity="0.4" clip-path="url(#SVGID_4_)">
			<g>
				<defs>
					<rect id="SVGID_7_" x="6.598" y="5.907" width="11.64" height="42.986"/>
				</defs>
				<clipPath id="SVGID_8_">
					<use xlink:href="#SVGID_7_"  overflow="visible"/>
				</clipPath>
				<path clip-path="url(#SVGID_8_)" fill="#9EBBA1" d="M10.316,47.339c1.661,0.671,4.196,1.337,7.922,1.554
					c-0.67-0.06-6.148-2.086-7.446-9.158c-1.384-7.536-0.121-7.304-0.121-7.304s1.263,5.681,5.053,6.783
					c0,0-5.233-7.652-5.173-19.709c0,0,1.661,0.423-0.527-5.087C9.192,12.32,7.408,7.196,6.598,5.907c0,0,0.124,0.428,0.345,1.21
					c0.253,0.844,0.607,2.068,0.975,3.484c0.001,0.004,0.002,0.008,0.003,0.011c0,0,0.001,0.005,0.001,0.006
					c0.678,2.614,1.399,5.866,1.61,8.547c0.006,0.077,0.062,0.867,0.062,0.985c0,0,0.042,1.051,0.042,1.063
					c0.045,2.651,0.092,5.489-0.228,9.885v0.009c0,5.293-0.791,10.7-1.884,14.574C7.524,45.681,8.344,46.516,10.316,47.339"/>
			</g>
		</g>
		<path clip-path="url(#SVGID_4_)" fill="#801F1F" d="M25.341,2.872c0-0.058-0.009-0.116-0.021-0.173
			c-0.017-0.074-1.354-0.145-1.503-0.159c-0.532-0.05-1.064-0.091-1.599-0.116c-1.035-0.049-2.062-0.018-3.093,0.066
			c-0.445,0.037-0.889,0.077-1.332,0.121c-0.026,0.085-0.045,0.172-0.045,0.26c0,1,1.7,1.811,3.796,1.811
			C23.641,4.682,25.341,3.872,25.341,2.872"/>
		<path clip-path="url(#SVGID_4_)" fill="#E6D2D2" d="M25.514,2.724l-0.255-0.022c0.005,0.036,0.007,0.035,0.007,0.071
			c-0.004,0.896-1.679,1.614-3.74,1.604c-2.061-0.009-3.728-0.742-3.723-1.638c0-0.036,0.007-0.072,0.012-0.107
			c-0.003,0.003-0.006,0.007-0.009,0.01l0.011-0.033l-0.205,0.029c-0.128,0.242-0.182,0.576-0.101,0.839
			c0.051,0.164,0.158,0.307,0.282,0.426c0.351,0.336,0.84,0.533,1.304,0.674c0.647,0.198,1.328,0.293,2.005,0.324
			c0.142,0.007,0.281,0.01,0.422,0.011c0.891,0.004,1.805-0.095,2.648-0.382c0.403-0.137,0.83-0.312,1.129-0.616
			C25.586,3.623,25.71,3.095,25.514,2.724"/>
		<path clip-path="url(#SVGID_4_)" fill="#242B25" d="M30.83,11.605c0.798,0.954-0.989,4.903-2.262,4.903
			c-1.271,0-3.059-3.949-2.261-4.903C27.017,10.758,30.121,10.758,30.83,11.605"/>
	</g>
</g>
</svg>
