<?xml version="1.0" encoding="utf-8"?>
<!-- Generator: Adobe Illustrator 16.0.0, SVG Export Plug-In . SVG Version: 6.00 Build 0)  -->
<!DOCTYPE svg PUBLIC "-//W3C//DTD SVG 1.1//EN" "http://www.w3.org/Graphics/SVG/1.1/DTD/svg11.dtd">
<svg version="1.1" id="Layer_1" xmlns="http://www.w3.org/2000/svg" xmlns:xlink="http://www.w3.org/1999/xlink" x="0px" y="0px"
	 width="500px" height="500px" viewBox="0 0 500 500" enable-background="new 0 0 500 500" xml:space="preserve">
<path fill-rule="evenodd" clip-rule="evenodd" fill="#00D83D" d="M250,1C112.479,1,1,112.485,1,250c0,137.515,111.479,249,249,249
	c137.516,0,249-111.485,249-249C499,112.485,387.516,1,250,1z M406.042,177.363L224.723,358.648
	c-13.224,13.211-34.686,13.211-47.909,0l-70.998-70.993c-6.438-6.333-9.958-14.845-9.958-23.899s3.52-17.565,9.958-23.992
	c13.224-13.224,34.686-13.224,47.903,0l47.093,47.076l157.315-157.374c13.224-13.229,34.691-13.229,47.915,0
	c6.427,6.427,9.958,14.943,9.958,23.998C416,162.42,412.469,170.931,406.042,177.363z"/>
<g>
</g>
<g>
</g>
<g>
</g>
<g>
</g>
<g>
</g>
<g>
</g>
<g>
</g>
<g>
</g>
<g>
</g>
<g>
</g>
<g>
</g>
<g>
</g>
<g>
</g>
<g>
</g>
<g>
</g>
</svg>
