<?xml version="1.0" encoding="utf-8"?>
<!-- Generator: Adobe Illustrator 16.0.0, SVG Export Plug-In . SVG Version: 6.00 Build 0)  -->
<!DOCTYPE svg PUBLIC "-//W3C//DTD SVG 1.1//EN" "http://www.w3.org/Graphics/SVG/1.1/DTD/svg11.dtd">
<svg version="1.1" id="Layer_1" xmlns="http://www.w3.org/2000/svg" xmlns:xlink="http://www.w3.org/1999/xlink" x="0px" y="0px"
	 width="450px" height="550px" viewBox="0 0 450 550" enable-background="new 0 0 450 550" xml:space="preserve">
<g>
	<path fill="#FFFFFF" d="M221.06,525c-107.877,0-137.443-35.271-137.443-35.271c19.347-72.148,24.987-226.121,20.556-284.562
		C99.74,146.727,73.541,62.89,73.541,62.89s36.018-18.042,69.83-27.515C170.588,27.748,221.06,25,221.06,25h7.302
		c0,0,50.47,2.748,77.688,10.375c33.812,9.473,69.831,27.515,69.831,27.515s-26.2,83.836-30.631,142.277
		c-4.433,58.441,1.208,212.414,20.554,284.562c0,0-29.564,35.271-137.441,35.271H221.06z"/>
	<g>
		<defs>
			<path id="SVGID_1_" d="M96.285,52.466v99.569c3.646,18.097,6.636,36.625,7.888,53.132c3.243,42.786,1.093,136.759-7.888,212.355
				v81.973c5.519,3.348,13.075,7.166,23.122,10.817V43.223C111.036,46.306,103.115,49.538,96.285,52.466"/>
		</defs>
		<clipPath id="SVGID_2_">
			<use xlink:href="#SVGID_1_"  overflow="visible"/>
		</clipPath>
		
			<linearGradient id="SVGID_3_" gradientUnits="userSpaceOnUse" x1="-54.3423" y1="467.0596" x2="-51.0423" y2="467.0596" gradientTransform="matrix(0 -263.5055 -263.5055 0 123180.6797 -13689.7842)">
			<stop  offset="0" style="stop-color:#FFFFFF"/>
			<stop  offset="0.0113" style="stop-color:#FEFCFA"/>
			<stop  offset="0.1756" style="stop-color:#F3DAB9"/>
			<stop  offset="0.3375" style="stop-color:#EABC81"/>
			<stop  offset="0.4927" style="stop-color:#E2A453"/>
			<stop  offset="0.64" style="stop-color:#DC912F"/>
			<stop  offset="0.7775" style="stop-color:#D88315"/>
			<stop  offset="0.9014" style="stop-color:#D57B05"/>
			<stop  offset="1" style="stop-color:#D47800"/>
		</linearGradient>
		<rect x="96.285" y="43.223" clip-path="url(#SVGID_2_)" fill="url(#SVGID_3_)" width="23.122" height="467.09"/>
	</g>
	<g>
		<defs>
			<path id="SVGID_4_" d="M143.367,35.379c-0.281,0.074-0.561,0.158-0.842,0.238v481.472c6.945,1.615,14.638,3.076,23.118,4.286
				V30.748C157.566,32.038,149.814,33.566,143.367,35.379"/>
		</defs>
		<clipPath id="SVGID_5_">
			<use xlink:href="#SVGID_4_"  overflow="visible"/>
		</clipPath>
		
			<linearGradient id="SVGID_6_" gradientUnits="userSpaceOnUse" x1="-54.3428" y1="466.9365" x2="-51.0415" y2="466.9365" gradientTransform="matrix(0 -263.5055 -263.5055 0 123194.6797 -13689.7842)">
			<stop  offset="0" style="stop-color:#FFFFFF"/>
			<stop  offset="0.0113" style="stop-color:#FEFCFA"/>
			<stop  offset="0.1756" style="stop-color:#F3DAB9"/>
			<stop  offset="0.3375" style="stop-color:#EABC81"/>
			<stop  offset="0.4927" style="stop-color:#E2A453"/>
			<stop  offset="0.64" style="stop-color:#DC912F"/>
			<stop  offset="0.7775" style="stop-color:#D88315"/>
			<stop  offset="0.9014" style="stop-color:#D57B05"/>
			<stop  offset="1" style="stop-color:#D47800"/>
		</linearGradient>
		<rect x="142.525" y="30.748" clip-path="url(#SVGID_5_)" fill="url(#SVGID_6_)" width="23.118" height="490.627"/>
	</g>
	<g>
		<defs>
			<path id="SVGID_7_" d="M192.065,27.361v496.723c7.253,0.478,14.952,0.78,23.115,0.877V25.377
				C209.917,25.742,201.573,26.387,192.065,27.361"/>
		</defs>
		<clipPath id="SVGID_8_">
			<use xlink:href="#SVGID_7_"  overflow="visible"/>
		</clipPath>
		
			<linearGradient id="SVGID_9_" gradientUnits="userSpaceOnUse" x1="-54.3438" y1="466.8066" x2="-51.0419" y2="466.8066" gradientTransform="matrix(0 -263.5055 -263.5055 0 123209.6797 -13689.7842)">
			<stop  offset="0" style="stop-color:#FFFFFF"/>
			<stop  offset="0.0113" style="stop-color:#FEFCFA"/>
			<stop  offset="0.1756" style="stop-color:#F3DAB9"/>
			<stop  offset="0.3375" style="stop-color:#EABC81"/>
			<stop  offset="0.4927" style="stop-color:#E2A453"/>
			<stop  offset="0.64" style="stop-color:#DC912F"/>
			<stop  offset="0.7775" style="stop-color:#D88315"/>
			<stop  offset="0.9014" style="stop-color:#D57B05"/>
			<stop  offset="1" style="stop-color:#D47800"/>
		</linearGradient>
		<rect x="192.065" y="25.377" clip-path="url(#SVGID_8_)" fill="url(#SVGID_9_)" width="23.115" height="499.583"/>
	</g>
	<g>
		<defs>
			<path id="SVGID_10_" d="M238.302,524.896c8.177-0.171,15.882-0.548,23.118-1.103V27.793c-8.94-0.974-17.127-1.67-23.118-2.122
				V524.896z"/>
		</defs>
		<clipPath id="SVGID_11_">
			<use xlink:href="#SVGID_10_"  overflow="visible"/>
		</clipPath>
		
			<linearGradient id="SVGID_12_" gradientUnits="userSpaceOnUse" x1="-54.3433" y1="466.6836" x2="-51.0411" y2="466.6836" gradientTransform="matrix(0 -263.5055 -263.5055 0 123223.6797 -13689.7842)">
			<stop  offset="0" style="stop-color:#FFFFFF"/>
			<stop  offset="0.0113" style="stop-color:#FEFCFA"/>
			<stop  offset="0.1756" style="stop-color:#F3DAB9"/>
			<stop  offset="0.3375" style="stop-color:#EABC81"/>
			<stop  offset="0.4927" style="stop-color:#E2A453"/>
			<stop  offset="0.64" style="stop-color:#DC912F"/>
			<stop  offset="0.7775" style="stop-color:#D88315"/>
			<stop  offset="0.9014" style="stop-color:#D57B05"/>
			<stop  offset="1" style="stop-color:#D47800"/>
		</linearGradient>
		<rect x="238.302" y="25.671" clip-path="url(#SVGID_11_)" fill="url(#SVGID_12_)" width="23.118" height="499.226"/>
	</g>
	<g>
		<defs>
			<path id="SVGID_13_" d="M287.841,520.766c8.531-1.336,16.213-2.923,23.119-4.661V36.808c-1.638-0.494-3.278-0.974-4.911-1.429
				c-5.357-1.503-11.612-2.819-18.208-3.958V520.766z"/>
		</defs>
		<clipPath id="SVGID_14_">
			<use xlink:href="#SVGID_13_"  overflow="visible"/>
		</clipPath>
		
			<linearGradient id="SVGID_15_" gradientUnits="userSpaceOnUse" x1="-54.3438" y1="466.5527" x2="-51.0397" y2="466.5527" gradientTransform="matrix(0 -263.5055 -263.5055 0 123238.6797 -13689.7842)">
			<stop  offset="0" style="stop-color:#FFFFFF"/>
			<stop  offset="0.0113" style="stop-color:#FEFCFA"/>
			<stop  offset="0.1756" style="stop-color:#F3DAB9"/>
			<stop  offset="0.3375" style="stop-color:#EABC81"/>
			<stop  offset="0.4927" style="stop-color:#E2A453"/>
			<stop  offset="0.64" style="stop-color:#DC912F"/>
			<stop  offset="0.7775" style="stop-color:#D88315"/>
			<stop  offset="0.9014" style="stop-color:#D57B05"/>
			<stop  offset="1" style="stop-color:#D47800"/>
		</linearGradient>
		<rect x="287.841" y="31.421" clip-path="url(#SVGID_14_)" fill="url(#SVGID_15_)" width="23.119" height="489.344"/>
	</g>
	<g>
		<defs>
			<path id="SVGID_16_" d="M334.075,508.777c10.601-4.177,18.092-8.457,23.122-11.898v-49.601
				c-12.351-78.734-15.638-193.484-11.948-242.111c1.693-22.341,6.568-48.395,11.948-72.058V54.227
				c-6.622-2.903-14.568-6.231-23.122-9.482V508.777z"/>
		</defs>
		<clipPath id="SVGID_17_">
			<use xlink:href="#SVGID_16_"  overflow="visible"/>
		</clipPath>
		
			<linearGradient id="SVGID_18_" gradientUnits="userSpaceOnUse" x1="-54.3433" y1="466.4307" x2="-51.0411" y2="466.4307" gradientTransform="matrix(0 -263.5055 -263.5055 0 123252.6797 -13689.7842)">
			<stop  offset="0" style="stop-color:#FFFFFF"/>
			<stop  offset="0.0113" style="stop-color:#FEFCFA"/>
			<stop  offset="0.1756" style="stop-color:#F3DAB9"/>
			<stop  offset="0.3375" style="stop-color:#EABC81"/>
			<stop  offset="0.4927" style="stop-color:#E2A453"/>
			<stop  offset="0.64" style="stop-color:#DC912F"/>
			<stop  offset="0.7775" style="stop-color:#D88315"/>
			<stop  offset="0.9014" style="stop-color:#D57B05"/>
			<stop  offset="1" style="stop-color:#D47800"/>
		</linearGradient>
		<rect x="334.075" y="44.745" clip-path="url(#SVGID_17_)" fill="url(#SVGID_18_)" width="23.122" height="464.033"/>
	</g>
	<path fill="#FFFFFF" d="M73.838,62.89c0,0-14.691,14.475-26.319,53.796c-11.623,39.322-18.805,74.883-18.805,74.883
		s42.012,24.692,76.228,20.896C104.942,212.466,104.942,103.351,73.838,62.89"/>
	<path fill="#FFFFFF" d="M375.88,62.89c0,0,14.689,14.475,26.318,53.796c11.622,39.322,18.805,74.883,18.805,74.883
		s-42.012,24.692-76.229,20.896C344.774,212.466,344.774,103.351,375.88,62.89"/>
	<path fill="#4D4855" d="M28.714,192.108c-0.073-1.348,0.337-2.944,0.829-4.505c17.358,10.427,57.096,23.753,75.098,24.634
		c0.003,1.258,0.922,6.57,0.302,6.963C97.628,223.841,29.185,200.636,28.714,192.108"/>
	<path fill="#4D4855" d="M421.288,192.831c0.072-1.348-0.485-3.038-0.982-4.603c-17.358,10.427-57.528,23.357-75.53,24.234
		c-0.006,1.258-0.618,6.276,0,6.67C352.087,223.777,420.815,201.358,421.288,192.831"/>
	<g opacity="0.4">
		<g>
			<defs>
				<rect id="SVGID_19_" x="238.193" y="62.89" width="137.687" height="462.01"/>
			</defs>
			<clipPath id="SVGID_20_">
				<use xlink:href="#SVGID_19_"  overflow="visible"/>
			</clipPath>
			<path clip-path="url(#SVGID_20_)" fill="#AA9EBB" d="M344.479,218.594c0.208-4.88,0.465-9.402,0.766-13.42
				c0.574-7.553,2.279-16.887,2.767-24.115c-0.45-3.899,10.889-55.296,11.14-56.374c7.242-31.072,13.318-47.292,16.728-61.795
				c-36.193,15.726-50.989,83.769-50.372,109.612c0.624,26.127-38.569,44.176-38.569,44.176s16.176,4.99,19.906,8.647
				c3.731,3.657-9.281,79.366-11.149,88.071c-1.868,8.708,15.505,47.088,14.881,57.66c-0.621,10.576-53.497-29.12-53.497-29.12
				s48.523,69.906,54.121,80.485c5.598,10.575,10.576,23.479-2.486,50.855c-12.472,26.131-65.719,49.891-70.521,51.623
				c23.353-0.481,42.802-2.284,58.757-5.729c28.016-6.047,52.194-13.675,68.852-29.442c-8.585-32.011-14.465-80.128-17.969-128.861
				C343.821,316.783,341.523,266.501,344.479,218.594"/>
		</g>
	</g>
	<g opacity="0.4">
		<g>
			<defs>
				<rect id="SVGID_21_" x="73.838" y="62.89" width="120.357" height="461.317"/>
			</defs>
			<clipPath id="SVGID_22_">
				<use xlink:href="#SVGID_21_"  overflow="visible"/>
			</clipPath>
			<path clip-path="url(#SVGID_22_)" fill="#AA9EBB" d="M112.279,507.525c17.176,7.199,43.389,14.353,81.917,16.682
				c-6.921-0.652-63.569-22.39-76.998-98.282c-14.313-80.876-1.248-78.386-1.248-78.386s13.062,60.969,52.257,72.783
				c0,0-54.123-82.114-53.499-211.507c0,0,17.178,4.551-5.442-54.587c-8.613-22.516-27.058-77.496-35.431-91.338
				c0,0,1.277,4.596,3.57,12.988c2.616,9.057,6.275,22.193,10.073,37.39c0.013,0.042,0.022,0.077,0.037,0.125
				c0,0,0.009,0.048,0.013,0.062c7.008,28.043,14.462,62.943,16.646,91.712c0.06,0.838,0.64,9.308,0.64,10.572
				c0,0,0.436,11.282,0.436,11.404c0.466,28.453,0.945,58.916-2.358,106.091v0.09c0,56.809-8.181,114.837-19.488,156.404
				C83.404,489.729,91.884,498.692,112.279,507.525"/>
		</g>
	</g>
	<path fill="#4F4D58" d="M267.645,30.325c0-0.616-0.097-1.248-0.222-1.854c-0.162-0.793-14-1.561-15.535-1.709
		c-5.502-0.535-11.007-0.974-16.527-1.245c-10.7-0.522-21.317-0.194-31.988,0.713c-4.591,0.39-9.179,0.819-13.767,1.299
		c-0.269,0.91-0.464,1.839-0.464,2.787c0,10.73,17.576,19.435,39.251,19.435C250.07,49.75,267.645,41.055,267.645,30.325"/>
	<path fill="#4D4855" d="M269.432,28.731l-2.637-0.238c0.056,0.384,0.072,0.377,0.072,0.764
		c-0.045,9.611-17.354,17.313-38.67,17.213c-21.311-0.1-38.551-7.966-38.507-17.577c0.003-0.387,0.082-0.771,0.135-1.152
		c-0.037,0.036-0.063,0.078-0.103,0.11l0.123-0.348l-2.121,0.31c-1.324,2.593-1.888,6.173-1.046,8.998
		c0.524,1.761,1.635,3.29,2.918,4.574c3.63,3.609,8.676,5.715,13.475,7.237c6.697,2.119,13.74,3.141,20.742,3.47
		c1.453,0.074,2.902,0.11,4.359,0.116c9.208,0.045,18.663-1.01,27.385-4.096c4.164-1.467,8.581-3.348,11.672-6.612
		C270.173,38.385,271.458,32.708,269.432,28.731"/>
	<path fill="#27242B" d="M324.402,124.05c8.256,10.24-10.229,52.62-23.38,52.62c-13.154,0-31.636-42.379-23.383-52.62
		C284.979,114.948,317.063,114.948,324.402,124.05"/>
</g>
</svg>
