<?xml version="1.0" encoding="utf-8"?>
<!-- Generator: Adobe Illustrator 16.0.0, SVG Export Plug-In . SVG Version: 6.00 Build 0)  -->
<!DOCTYPE svg PUBLIC "-//W3C//DTD SVG 1.1//EN" "http://www.w3.org/Graphics/SVG/1.1/DTD/svg11.dtd">
<svg version="1.1" id="Layer_1" xmlns="http://www.w3.org/2000/svg" xmlns:xlink="http://www.w3.org/1999/xlink" x="0px" y="0px"
	 width="450px" height="550px" viewBox="0 0 450 550" enable-background="new 0 0 450 550" xml:space="preserve">
<g>
	<path fill="#EEEEEE" d="M221.06,525c-107.877,0-137.443-35.271-137.443-35.271c19.348-72.147,24.989-226.12,20.555-284.561
		C99.74,146.727,73.542,62.89,73.542,62.89s36.02-18.042,69.83-27.515C170.589,27.748,221.06,25,221.06,25h7.302
		c0,0,50.471,2.748,77.686,10.375c33.813,9.473,69.833,27.515,69.833,27.515s-26.202,83.836-30.633,142.277
		c-4.432,58.441,1.209,212.414,20.558,284.561c0,0-29.566,35.271-137.443,35.271H221.06z"/>
	<g>
		<defs>
			<path id="SVGID_1_" d="M221.06,25.006c0,0-50.471,2.735-77.689,10.373c-33.81,9.476-69.83,27.511-69.83,27.511
				s26.199,83.836,30.63,142.277c4.435,58.444-1.207,212.414-20.555,284.561c0,0,29.565,35.271,137.443,35.271h7.302
				c107.877,0,137.443-35.271,137.443-35.271c-19.352-72.147-24.989-226.117-20.558-284.561
				c4.438-58.441,30.633-142.277,30.633-142.277s-36.02-18.036-69.83-27.511c-27.218-7.638-77.689-10.373-77.689-10.373H221.06z"/>
		</defs>
		<clipPath id="SVGID_2_">
			<use xlink:href="#SVGID_1_"  overflow="visible"/>
		</clipPath>
		
			<rect x="75.863" y="50.149" transform="matrix(0.9562 -0.2926 0.2926 0.9562 -9.7904 41.4494)" clip-path="url(#SVGID_2_)" fill="#E3471F" width="115.591" height="6.605"/>
		
			<rect x="262.351" y="50.765" transform="matrix(0.9511 0.3087 -0.3087 0.9511 32.3322 -96.1992)" clip-path="url(#SVGID_2_)" fill="#E3471F" width="115.591" height="6.605"/>
	</g>
	<path fill="#E3471F" d="M73.838,62.89c0,0-14.691,14.475-26.318,53.796c-11.624,39.322-18.806,74.883-18.806,74.883
		s42.012,24.692,76.228,20.896C104.942,212.466,104.942,103.351,73.838,62.89"/>
	<path fill="#E3471F" d="M375.881,62.89c0,0,14.688,14.475,26.317,53.796c11.621,39.322,18.807,74.883,18.807,74.883
		s-42.015,24.692-76.229,20.896C344.776,212.466,344.776,103.351,375.881,62.89"/>
	<path fill="#4D4855" d="M28.714,192.108c-0.074-1.348,0.335-2.944,0.829-4.505c17.358,10.427,57.096,23.753,75.1,24.634
		c0.003,1.258,0.919,6.57,0.3,6.963C97.631,223.841,29.185,200.636,28.714,192.108"/>
	<path fill="#4D4855" d="M421.288,192.831c0.071-1.348-0.486-3.038-0.98-4.603c-17.358,10.427-57.528,23.357-75.531,24.234
		c-0.006,1.258-0.619,6.276,0,6.67C352.088,223.777,420.814,201.358,421.288,192.831"/>
	<g opacity="0.4">
		<g>
			<defs>
				<rect id="SVGID_3_" x="238.192" y="62.89" width="137.688" height="462.01"/>
			</defs>
			<clipPath id="SVGID_4_">
				<use xlink:href="#SVGID_3_"  overflow="visible"/>
			</clipPath>
			<path clip-path="url(#SVGID_4_)" fill="#AA9EBB" d="M344.48,218.594c0.206-4.88,0.464-9.402,0.764-13.42
				c0.577-7.553,2.28-16.887,2.767-24.115c-0.448-3.899,10.892-55.296,11.14-56.374c7.244-31.072,13.32-47.292,16.729-61.795
				c-36.194,15.726-50.991,83.769-50.372,109.612c0.623,26.127-38.567,44.176-38.567,44.176s16.174,4.99,19.903,8.647
				c3.731,3.657-9.279,79.366-11.149,88.071c-1.864,8.708,15.507,47.088,14.881,57.66c-0.619,10.576-53.494-29.12-53.494-29.12
				s48.521,69.906,54.12,80.485c5.599,10.575,10.575,23.479-2.487,50.855c-12.472,26.131-65.72,49.891-70.523,51.623
				c23.354-0.48,42.728-2.671,58.757-5.729c28.018-6.047,50.268-16.436,68.855-29.443c-8.589-32.01-14.465-80.127-17.971-128.86
				C343.822,316.783,341.522,266.501,344.48,218.594"/>
		</g>
	</g>
	<g opacity="0.4">
		<g>
			<defs>
				<rect id="SVGID_5_" x="73.838" y="62.89" width="120.359" height="461.317"/>
			</defs>
			<clipPath id="SVGID_6_">
				<use xlink:href="#SVGID_5_"  overflow="visible"/>
			</clipPath>
			<path clip-path="url(#SVGID_6_)" fill="#AA9EBB" d="M112.28,507.525c17.178,7.199,43.389,14.353,81.917,16.682
				c-6.921-0.652-63.569-22.39-76.996-98.283c-14.317-80.875-1.249-78.386-1.249-78.386s13.059,60.97,52.255,72.784
				c0,0-54.123-82.114-53.5-211.507c0,0,17.177,4.551-5.441-54.587c-8.615-22.516-27.06-77.496-35.433-91.338
				c0,0,1.281,4.596,3.57,12.988c2.616,9.057,6.276,22.193,10.076,37.39c0.013,0.042,0.023,0.077,0.036,0.125
				c0,0,0.01,0.048,0.013,0.062c7.009,28.043,14.462,62.943,16.646,91.712c0.058,0.838,0.642,9.308,0.642,10.572
				c0,0,0.436,11.282,0.436,11.404c0.464,28.453,0.945,58.916-2.357,106.091v0.09c0,56.809-8.183,114.837-19.49,156.403
				C83.404,489.729,91.887,498.691,112.28,507.525"/>
		</g>
	</g>
	<path fill="#942E14" d="M267.646,30.325c0-0.616-0.097-1.248-0.223-1.854c-0.161-0.793-14.001-1.561-15.536-1.709
		c-5.502-0.535-11.008-0.974-16.526-1.245c-10.701-0.522-21.319-0.194-31.988,0.713c-4.593,0.39-9.179,0.819-13.765,1.299
		c-0.271,0.91-0.468,1.839-0.468,2.787c0,10.73,17.578,19.435,39.254,19.435S267.646,41.055,267.646,30.325"/>
	<path fill="#4D4855" d="M269.432,28.731l-2.635-0.238c0.055,0.384,0.071,0.377,0.071,0.764
		c-0.045,9.611-17.355,17.313-38.67,17.213c-21.313-0.1-38.551-7.966-38.509-17.577c0.003-0.387,0.084-0.771,0.135-1.152
		c-0.035,0.036-0.061,0.078-0.1,0.11l0.12-0.348l-2.119,0.31c-1.326,2.593-1.89,6.173-1.048,8.998
		c0.525,1.761,1.635,3.29,2.922,4.574c3.628,3.609,8.676,5.715,13.475,7.237c6.695,2.119,13.736,3.141,20.738,3.47
		c1.454,0.074,2.902,0.11,4.36,0.116c9.208,0.045,18.664-1.01,27.385-4.096c4.164-1.467,8.579-3.348,11.672-6.612
		C270.174,38.385,271.461,32.708,269.432,28.731"/>
	<path fill="#27242B" d="M324.403,124.05c8.256,10.24-10.23,52.62-23.38,52.62c-13.156,0-31.636-42.379-23.383-52.62
		C284.978,114.948,317.062,114.948,324.403,124.05"/>
</g>
</svg>
