<?xml version="1.0" encoding="utf-8"?>
<!-- Generator: Adobe Illustrator 16.0.0, SVG Export Plug-In . SVG Version: 6.00 Build 0)  -->
<!DOCTYPE svg PUBLIC "-//W3C//DTD SVG 1.1//EN" "http://www.w3.org/Graphics/SVG/1.1/DTD/svg11.dtd">
<svg version="1.1" id="Layer_1" xmlns="http://www.w3.org/2000/svg" xmlns:xlink="http://www.w3.org/1999/xlink" x="0px" y="0px"
	 width="450px" height="550px" viewBox="0 0 450 550" enable-background="new 0 0 450 550" xml:space="preserve">
<g>
	<path fill="#C74145" d="M221.06,525c-107.881,0-137.446-35.271-137.446-35.271c19.346-72.145,24.99-226.12,20.558-284.567
		C99.736,146.721,73.538,62.888,73.538,62.888s36.021-18.04,69.83-27.518C170.586,27.739,221.06,25,221.06,25h7.299
		c0,0,50.473,2.739,77.692,10.37c33.811,9.479,69.83,27.518,69.83,27.518s-26.2,83.833-30.634,142.273
		c-4.432,58.447,1.21,212.422,20.558,284.567c0,0-29.566,35.271-137.446,35.271H221.06z"/>
	<path fill="#A53531" d="M73.834,62.888c0,0-14.693,14.473-26.316,53.795c-11.626,39.316-18.807,74.878-18.807,74.878
		s42.01,24.701,76.229,20.902C104.939,212.463,104.939,103.348,73.834,62.888"/>
	<path fill="#A53531" d="M375.881,62.888c0,0,14.691,14.473,26.314,53.795c11.628,39.316,18.808,74.878,18.808,74.878
		s-42.012,24.701-76.228,20.902C344.776,212.463,344.776,103.348,375.881,62.888"/>
	<path fill="#E6D2D2" d="M28.713,192.104c-0.076-1.351,0.334-2.94,0.828-4.503c17.356,10.422,57.096,23.751,75.096,24.63
		c0.005,1.266,0.922,6.577,0.302,6.971C97.627,223.847,29.181,200.632,28.713,192.104"/>
	<path fill="#E6D2D2" d="M421.29,192.828c0.073-1.351-0.486-3.037-0.98-4.601c-17.359,10.422-57.531,23.357-75.532,24.236
		c-0.008,1.26-0.62,6.267,0,6.668C352.087,223.776,420.816,201.356,421.29,192.828"/>
	<path fill="#E6D2D2" d="M320.867,39.983c-4.907-1.667-9.884-3.23-14.815-4.613c-0.554-0.155-1.129-0.304-1.699-0.452v482.729
		c6.023-1.331,11.519-2.778,16.515-4.304V39.983z"/>
	<path fill="#E6D2D2" d="M281.236,521.73c4.637-0.627,9.026-1.331,13.211-2.087v-487c-4.223-0.847-8.682-1.603-13.211-2.294V521.73z
		"/>
	<g opacity="0.4">
		<g>
			<defs>
				<rect id="SVGID_1_" x="238.193" y="62.888" width="137.688" height="462.015"/>
			</defs>
			<clipPath id="SVGID_2_">
				<use xlink:href="#SVGID_1_"  overflow="visible"/>
			</clipPath>
			<path clip-path="url(#SVGID_2_)" fill="#9EBBA1" d="M344.48,218.588c0.21-4.872,0.462-9.395,0.771-13.42
				c0.57-7.546,2.272-16.883,2.764-24.113c-0.451-3.896,10.889-55.3,11.141-56.373c7.24-31.078,13.316-47.289,16.726-61.794
				c-36.193,15.726-50.99,83.768-50.369,109.613c0.622,26.128-38.57,44.174-38.57,44.174s16.171,4.988,19.903,8.645
				c3.735,3.657-9.283,79.369-11.148,88.078c-1.866,8.703,15.507,47.082,14.883,57.659c-0.625,10.57-53.5-29.12-53.5-29.12
				s48.523,69.902,54.123,80.485c5.597,10.577,10.572,23.48-2.491,50.855c-12.472,26.136-65.718,49.894-70.52,51.625
				c23.354-0.484,42.726-2.669,58.761-5.731c28.012-6.048,53.433-14.292,68.853-29.443c-8.585-32.008-14.466-80.124-17.971-128.867
				C343.821,316.784,341.526,266.497,344.48,218.588"/>
		</g>
	</g>
	<g opacity="0.4">
		<g>
			<defs>
				<rect id="SVGID_3_" x="73.834" y="62.888" width="120.362" height="461.317"/>
			</defs>
			<clipPath id="SVGID_4_">
				<use xlink:href="#SVGID_3_"  overflow="visible"/>
			</clipPath>
			<path clip-path="url(#SVGID_4_)" fill="#9EBBA1" d="M112.277,507.522c17.177,7.204,43.39,14.356,81.919,16.683
				c-6.92-0.652-63.571-22.388-76.999-98.286c-14.313-80.874-1.249-78.38-1.249-78.38s13.063,60.967,52.254,72.784
				c0,0-54.12-82.114-53.498-211.511c0,0,17.18,4.548-5.438-54.59c-8.611-22.517-27.061-77.495-35.433-91.334
				c0,0,1.279,4.594,3.571,12.987c2.617,9.058,6.272,22.194,10.071,37.39c0.013,0.039,0.024,0.084,0.036,0.123
				c0,0,0.008,0.052,0.013,0.064c7.009,28.042,14.461,62.944,16.646,91.715c0.064,0.834,0.645,9.304,0.645,10.564
				c0,0,0.431,11.294,0.431,11.41c0.465,28.455,0.948,58.919-2.355,106.091v0.09c0,56.807-8.183,114.84-19.49,156.404
				C83.401,489.729,91.885,498.69,112.277,507.522"/>
		</g>
	</g>
	<path fill="#801F1F" d="M267.643,30.317c0-0.614-0.095-1.247-0.22-1.854c-0.163-0.794-14.001-1.557-15.537-1.712
		c-5.499-0.53-11.008-0.969-16.526-1.241c-10.698-0.523-21.322-0.194-31.987,0.711c-4.594,0.388-9.182,0.82-13.767,1.299
		c-0.271,0.911-0.465,1.848-0.465,2.791c0,10.732,17.576,19.435,39.251,19.435C250.069,49.746,267.643,41.049,267.643,30.317"/>
	<path fill="#E6D2D2" d="M269.433,28.728l-2.636-0.246c0.055,0.388,0.071,0.381,0.069,0.769
		c-0.045,9.614-17.354,17.316-38.67,17.212c-21.312-0.097-38.55-7.967-38.503-17.574c0-0.388,0.076-0.769,0.132-1.157
		c-0.04,0.039-0.066,0.078-0.104,0.117l0.124-0.349l-2.121,0.304c-1.323,2.591-1.888,6.177-1.047,9.007
		c0.523,1.757,1.633,3.289,2.919,4.568c3.626,3.605,8.677,5.718,13.476,7.23c6.695,2.125,13.738,3.146,20.742,3.482
		c1.451,0.071,2.903,0.104,4.355,0.117c9.208,0.039,18.665-1.015,27.385-4.097c4.166-1.473,8.587-3.347,11.675-6.616
		C270.174,38.381,271.46,32.702,269.433,28.728"/>
	<path fill="#242B25" d="M324.404,124.042c8.255,10.241-10.231,52.626-23.383,52.626c-13.15,0-31.634-42.385-23.383-52.626
		C284.977,114.945,317.066,114.945,324.404,124.042"/>
</g>
</svg>
