<?xml version="1.0" encoding="utf-8"?>
<!-- Generator: Adobe Illustrator 16.0.0, SVG Export Plug-In . SVG Version: 6.00 Build 0)  -->
<!DOCTYPE svg PUBLIC "-//W3C//DTD SVG 1.1//EN" "http://www.w3.org/Graphics/SVG/1.1/DTD/svg11.dtd">
<svg version="1.1" id="Layer_1" xmlns="http://www.w3.org/2000/svg" xmlns:xlink="http://www.w3.org/1999/xlink" x="0px" y="0px"
	 width="450px" height="550px" viewBox="0 0 450 550" enable-background="new 0 0 450 550" xml:space="preserve">
<g>
	<path fill="#C7C645" d="M221.06,525c-107.877,0-137.443-35.271-137.443-35.271c19.348-72.147,24.989-226.12,20.554-284.561
		C99.74,146.727,73.542,62.89,73.542,62.89s36.019-18.042,69.829-27.518C170.588,27.748,221.06,25,221.06,25h7.302
		c0,0,50.472,2.748,77.686,10.372c33.813,9.476,69.833,27.518,69.833,27.518s-26.202,83.836-30.633,142.277
		s1.209,212.414,20.558,284.561c0,0-29.565,35.271-137.443,35.271H221.06z"/>
	<g>
		<defs>
			<path id="SVGID_1_" d="M221.06,25.006c0,0-50.472,2.735-77.689,10.373c-33.81,9.476-69.829,27.511-69.829,27.511
				s26.195,83.836,30.63,142.277s-1.207,212.414-20.554,284.561c0,0,29.565,35.271,137.443,35.271h7.302
				c107.877,0,137.443-35.271,137.443-35.271c-19.348-72.147-24.989-226.12-20.558-284.561
				C349.685,146.727,375.88,62.89,375.88,62.89s-36.02-18.036-69.83-27.511c-27.217-7.638-77.689-10.373-77.689-10.373H221.06z"/>
		</defs>
		<clipPath id="SVGID_2_">
			<use xlink:href="#SVGID_1_"  overflow="visible"/>
		</clipPath>
		<path clip-path="url(#SVGID_2_)" fill="#FFFF00" d="M408.087,376.188L28.627,21.556c0.022,11.572,0.003,23.615-0.094,36.077
			L406.82,411.169C407.175,400.151,407.597,388.444,408.087,376.188"/>
		<path clip-path="url(#SVGID_2_)" fill="#006837" d="M27.314,124.298l377.867,353.143c0.187-11.257,0.461-24.674,0.861-39.877
			L28.208,84.46C28.001,97.464,27.711,110.778,27.314,124.298"/>
	</g>
	<path fill="#A5A331" d="M73.838,62.89c0,0-14.691,14.475-26.317,53.796c-11.624,39.322-18.807,74.883-18.807,74.883
		s42.012,24.692,76.229,20.893C104.942,212.463,104.942,103.347,73.838,62.89"/>
	<path fill="#A5A331" d="M375.88,62.89c0,0,14.688,14.475,26.318,53.796c11.62,39.322,18.806,74.883,18.806,74.883
		s-42.015,24.692-76.228,20.893C344.776,212.463,344.776,103.347,375.88,62.89"/>
	<path fill="#4D4855" d="M28.714,192.105c-0.071-1.348,0.335-2.941,0.829-4.502c17.358,10.424,57.096,23.75,75.099,24.634
		c0.003,1.258,0.919,6.566,0.3,6.96C97.63,223.841,29.185,200.633,28.714,192.105"/>
	<path fill="#4D4855" d="M421.288,192.828c0.071-1.348-0.487-3.038-0.98-4.599c-17.358,10.424-57.528,23.357-75.531,24.234
		c-0.007,1.258-0.619,6.276,0,6.67C352.088,223.777,420.814,201.355,421.288,192.828"/>
	<g opacity="0.4">
		<g>
			<defs>
				<rect id="SVGID_3_" x="238.192" y="62.89" width="137.688" height="462.006"/>
			</defs>
			<clipPath id="SVGID_4_">
				<use xlink:href="#SVGID_3_"  overflow="visible"/>
			</clipPath>
			<path clip-path="url(#SVGID_4_)" fill="#AA9EBB" d="M344.479,218.591c0.207-4.876,0.464-9.398,0.765-13.417
				c0.577-7.553,2.28-16.887,2.767-24.118c-0.448-3.896,10.892-55.293,11.14-56.371c7.244-31.072,13.32-47.294,16.729-61.795
				c-36.193,15.726-50.991,83.765-50.372,109.612c0.623,26.125-38.567,44.172-38.567,44.172s16.175,4.993,19.903,8.65
				c3.732,3.657-9.279,79.366-11.149,88.068c-1.864,8.708,15.507,47.088,14.881,57.661c-0.62,10.579-53.494-29.117-53.494-29.117
				s48.52,69.903,54.119,80.482c5.599,10.578,10.576,23.479-2.487,50.854c-12.472,26.131-65.72,49.895-70.522,51.623
				c23.354-0.477,42.76-2.502,58.757-5.728c37.887-7.618,58.458-19.042,68.855-29.44c-8.589-32.013-14.465-80.127-17.971-128.86
				C343.821,316.779,341.522,266.499,344.479,218.591"/>
		</g>
	</g>
	<g opacity="0.4">
		<g>
			<defs>
				<rect id="SVGID_5_" x="73.838" y="62.89" width="120.362" height="461.317"/>
			</defs>
			<clipPath id="SVGID_6_">
				<use xlink:href="#SVGID_5_"  overflow="visible"/>
			</clipPath>
			<path clip-path="url(#SVGID_6_)" fill="#AA9EBB" d="M112.279,507.525c17.178,7.199,43.389,14.353,81.917,16.682
				c-6.921-0.652-63.569-22.39-76.996-98.286c-14.317-80.876-1.248-78.386-1.248-78.386s13.059,60.97,52.255,72.787
				c0,0-54.123-82.114-53.5-211.51c0,0,17.178,4.554-5.441-54.583c-8.615-22.519-27.06-77.496-35.432-91.338
				c0,0,1.28,4.592,3.57,12.984c2.616,9.057,6.276,22.196,10.076,37.394c0.013,0.039,0.022,0.077,0.035,0.123
				c0,0,0.01,0.051,0.013,0.064c7.008,28.04,14.462,62.943,16.645,91.712c0.058,0.838,0.642,9.308,0.642,10.572
				c0,0,0.436,11.282,0.436,11.404c0.464,28.453,0.945,58.912-2.358,106.091v0.09c0,56.809-8.182,114.837-19.49,156.403
				C83.404,489.729,91.886,498.688,112.279,507.525"/>
		</g>
	</g>
	<path fill="#807C1F" d="M267.645,30.322c0-0.613-0.097-1.245-0.223-1.852c-0.161-0.793-14-1.561-15.536-1.709
		c-5.502-0.535-11.008-0.974-16.526-1.245c-10.701-0.522-21.318-0.194-31.988,0.709c-4.592,0.394-9.179,0.819-13.765,1.303
		c-0.271,0.91-0.468,1.839-0.468,2.787c0,10.727,17.578,19.435,39.254,19.435S267.645,41.055,267.645,30.322"/>
	<path fill="#4D4855" d="M269.432,28.729l-2.635-0.239c0.055,0.387,0.071,0.38,0.071,0.768c-0.045,9.611-17.355,17.313-38.67,17.21
		c-21.313-0.097-38.551-7.966-38.509-17.578c0.003-0.387,0.084-0.768,0.136-1.148c-0.036,0.032-0.062,0.078-0.1,0.11l0.119-0.348
		l-2.119,0.31c-1.326,2.593-1.89,6.173-1.048,8.998c0.526,1.761,1.635,3.29,2.922,4.574c3.628,3.605,8.676,5.715,13.475,7.237
		c6.696,2.116,13.736,3.141,20.738,3.47c1.455,0.071,2.903,0.11,4.36,0.116c9.208,0.045,18.665-1.013,27.385-4.096
		c4.164-1.471,8.579-3.348,11.672-6.612C270.174,38.385,271.46,32.708,269.432,28.729"/>
	<path fill="#27242B" d="M324.402,124.047c8.257,10.243-10.23,52.623-23.379,52.623c-13.156,0-31.636-42.379-23.383-52.623
		C284.978,114.945,317.062,114.945,324.402,124.047"/>
</g>
</svg>
