<?xml version="1.0" encoding="utf-8"?>
<!-- Generator: Adobe Illustrator 16.0.0, SVG Export Plug-In . SVG Version: 6.00 Build 0)  -->
<!DOCTYPE svg PUBLIC "-//W3C//DTD SVG 1.1//EN" "http://www.w3.org/Graphics/SVG/1.1/DTD/svg11.dtd">
<svg version="1.1" id="Layer_1" xmlns="http://www.w3.org/2000/svg" xmlns:xlink="http://www.w3.org/1999/xlink" x="0px" y="0px"
	 width="450px" height="550px" viewBox="0 0 450 550" enable-background="new 0 0 450 550" xml:space="preserve">
<g>
	<path fill="#55D8FF" d="M219.883,525c-107.877,0-138.485-35.271-138.485-35.271c21.145-71.477,26.031-226.12,21.596-284.561
		C98.563,146.727,72.365,62.89,72.365,62.89s36.019-18.042,69.829-27.518C169.412,27.741,219.883,25,219.883,25h7.302
		c0,0,50.472,2.741,77.686,10.372c33.813,9.476,69.833,27.518,69.833,27.518s-26.198,83.836-30.633,142.277
		c-4.431,58.441,1.209,212.414,20.558,284.561c0,0-29.565,35.271-137.443,35.271H219.883z"/>
	<g>
		<defs>
			<path id="SVGID_1_" d="M219.883,25c0,0-50.475,2.741-77.689,10.372c-33.813,9.476-69.829,27.511-69.829,27.511
				s26.198,83.843,30.633,142.284c4.435,58.441-0.455,213.078-21.6,284.561c0,0,30.607,35.271,138.485,35.271h7.302
				c107.877,0,137.446-35.271,137.446-35.271c-19.352-72.147-24.996-226.12-20.564-284.561
				c4.435-58.441,30.636-142.284,30.636-142.284s-36.022-18.035-69.833-27.511C277.66,27.741,227.185,25,227.185,25H219.883z"/>
		</defs>
		<clipPath id="SVGID_2_">
			<use xlink:href="#SVGID_1_"  overflow="visible"/>
		</clipPath>
		<path clip-path="url(#SVGID_2_)" fill="#408AD9" d="M358.439,335.228c-51.091-45.231-134.718-94.745-255.315-94.273
			c0-3.083-0.006-6.16-0.016-9.25c46.65-0.245,90.99,6.721,132.376,20.919c47.256,16.21,90.777,41.773,129.341,75.979
			c4.064,3.612,7.986,7.231,11.763,10.85c0.122,4.509,0.28,8.966,0.471,13.385C371.214,346.955,365.025,341.059,358.439,335.228
			 M385.65,429.63c-1.332-6.198-2.506-12.752-3.525-19.615c-12.843-15.752-28.482-32.652-47.175-49.236
			c-38.564-34.207-82.085-59.77-129.341-75.98c-32.484-11.146-66.801-17.829-102.61-20.081c-0.032,3.122-0.071,6.225-0.12,9.314
			c104.797,6.928,178.887,51.939,225.682,93.37C352.411,388.515,371.294,410.401,385.65,429.63 M102.388,300.389
			c-0.077,3.18-0.158,6.341-0.242,9.476c87.142,13.217,150.34,52.875,191.946,89.712c29.479,26.099,58.238,63.034,73.354,85.005
			c1.493-3.303-0.387-11.599,2.435-12.566c-15.375-22.666-38.116-51.307-69.407-79.063c-38.564-34.207-82.079-59.77-129.341-75.98
			C149.028,309.394,126.081,303.859,102.388,300.389"/>
	</g>
	<path fill="#408AD9" d="M72.662,62.89c0,0-14.691,14.475-26.321,53.796C34.72,156.002,27.537,191.57,27.537,191.57
		s42.012,24.692,76.229,20.893C103.766,212.463,103.766,103.347,72.662,62.89"/>
	<path fill="#408AD9" d="M374.704,62.89c0,0,14.691,14.475,26.318,53.796c11.621,39.315,18.807,74.883,18.807,74.883
		s-42.015,24.692-76.229,20.893C343.6,212.463,343.6,103.347,374.704,62.89"/>
	<path fill="#4D4855" d="M29.882,192.105c-0.071-1.348,0.335-2.941,0.829-4.502c17.358,10.424,57.096,23.75,75.099,24.634
		c0.003,1.258,0.919,6.566,0.3,6.96C98.799,223.841,30.353,200.633,29.882,192.105"/>
	<path fill="#4D4855" d="M422.457,192.828c0.07-1.348-0.487-3.038-0.98-4.605c-17.359,10.43-57.529,23.364-75.532,24.241
		c-0.006,1.258-0.619,6.276,0,6.67C353.256,223.777,421.982,201.355,422.457,192.828"/>
	<g opacity="0.4">
		<g>
			<defs>
				<rect id="SVGID_3_" x="239.36" y="62.883" width="137.688" height="462.013"/>
			</defs>
			<clipPath id="SVGID_4_">
				<use xlink:href="#SVGID_3_"  overflow="visible"/>
			</clipPath>
			<path clip-path="url(#SVGID_4_)" fill="#AA9EBB" d="M345.647,218.591c0.207-4.876,0.464-9.398,0.765-13.423
				c0.577-7.553,2.28-16.887,2.767-24.112c-0.448-3.896,10.892-55.293,11.14-56.377c7.244-31.072,13.32-47.288,16.729-61.795
				c-36.193,15.733-50.991,83.772-50.372,109.619c0.623,26.125-38.567,44.172-38.567,44.172s16.174,4.993,19.902,8.65
				c3.732,3.651-9.279,79.366-11.149,88.068c-1.864,8.708,15.507,47.088,14.881,57.661c-0.619,10.579-53.494-29.117-53.494-29.117
				s48.521,69.903,54.119,80.482c5.599,10.578,10.576,23.479-2.486,50.854c-12.472,26.131-65.721,49.895-70.523,51.623
				c23.354-0.477,42.75-2.554,58.757-5.728c36.768-7.276,58.286-18.475,68.855-29.44c-8.589-32.013-14.465-80.127-17.971-128.86
				C344.99,316.779,342.69,266.499,345.647,218.591"/>
		</g>
	</g>
	<g opacity="0.4">
		<g>
			<defs>
				<rect id="SVGID_5_" x="75.006" y="62.883" width="120.362" height="461.324"/>
			</defs>
			<clipPath id="SVGID_6_">
				<use xlink:href="#SVGID_5_"  overflow="visible"/>
			</clipPath>
			<path clip-path="url(#SVGID_6_)" fill="#AA9EBB" d="M113.448,507.525c17.31,7.328,43.389,14.353,81.917,16.682
				c-6.921-0.652-63.569-22.39-76.996-98.286c-14.316-80.876-1.248-78.386-1.248-78.386s13.059,60.97,52.255,72.787
				c0,0-54.123-82.114-53.5-211.51c0,0,17.177,4.554-5.441-54.59c-8.614-22.512-27.06-77.496-35.432-91.332
				c0,0,1.28,4.592,3.57,12.984c2.616,9.057,6.276,22.196,10.076,37.394c0.013,0.039,0.022,0.077,0.035,0.123
				c0,0,0.01,0.051,0.013,0.064c7.008,28.04,14.462,62.943,16.646,91.712c0.058,0.838,0.642,9.308,0.642,10.566
				c0,0,0.487,12.701,0.487,12.817c0.461,28.453,0.894,180.619-22.725,261.178C83.747,489.729,91.332,498.753,113.448,507.525"/>
		</g>
	</g>
	<path fill="#15534F" d="M268.813,30.322c0-0.62-0.097-1.245-0.223-1.858c-0.161-0.793-14-1.555-15.536-1.703
		c-5.502-0.535-11.008-0.974-16.526-1.245c-10.702-0.522-21.319-0.2-31.988,0.709c-4.593,0.394-9.179,0.819-13.766,1.296
		c-0.271,0.916-0.467,1.845-0.467,2.793c0,10.727,17.577,19.435,39.254,19.435S268.813,41.055,268.813,30.322"/>
	<path fill="#4D4855" d="M270.6,28.729l-2.635-0.239c0.055,0.387,0.071,0.38,0.071,0.768c-0.045,9.604-17.355,17.313-38.67,17.21
		c-21.312-0.097-38.551-7.966-38.509-17.578c0.003-0.387,0.084-0.768,0.136-1.155c-0.036,0.039-0.062,0.084-0.1,0.116l0.12-0.348
		l-2.119,0.31c-1.326,2.593-1.89,6.173-1.048,8.998c0.526,1.755,1.635,3.29,2.922,4.574c3.628,3.605,8.676,5.715,13.475,7.231
		c6.696,2.122,13.736,3.147,20.738,3.477c1.455,0.071,2.903,0.104,4.36,0.11c9.208,0.051,18.665-1.006,27.386-4.09
		c4.164-1.471,8.579-3.348,11.672-6.618C271.342,38.385,272.628,32.708,270.6,28.729"/>
	<path fill="#27242B" d="M325.571,124.047c8.256,10.237-10.23,52.623-23.38,52.623c-13.156,0-31.636-42.386-23.383-52.623
		C286.146,114.945,318.23,114.945,325.571,124.047"/>
</g>
</svg>
