<?xml version="1.0" encoding="utf-8"?>
<!-- Generator: Adobe Illustrator 16.0.0, SVG Export Plug-In . SVG Version: 6.00 Build 0)  -->
<!DOCTYPE svg PUBLIC "-//W3C//DTD SVG 1.1//EN" "http://www.w3.org/Graphics/SVG/1.1/DTD/svg11.dtd">
<svg version="1.1" id="Layer_1" xmlns="http://www.w3.org/2000/svg" xmlns:xlink="http://www.w3.org/1999/xlink" x="0px" y="0px"
	 width="450px" height="550px" viewBox="0 0 450 550" enable-background="new 0 0 450 550" xml:space="preserve">
<g>
	<path fill="#EEEEEE" d="M219.884,525.001C112.003,525.001,81.4,489.73,81.4,489.73c22.517-72.852,22.986-223.399,21.596-284.563
		C101.666,146.571,72.365,62.89,72.365,62.89s36.018-18.042,69.831-27.515c27.216-7.628,77.688-10.376,77.688-10.376h7.299
		c0,0,50.473,2.748,77.691,10.376c33.812,9.473,69.831,27.515,69.831,27.515s-26.2,83.837-30.632,142.277
		c-4.436,58.441,1.208,212.415,20.555,284.563c0,0-29.564,35.271-137.445,35.271H219.884z"/>
	<g>
		<defs>
			<path id="SVGID_1_" d="M219.884,25.006c0,0-50.472,2.735-77.689,10.372c-33.812,9.476-69.83,27.512-69.83,27.512
				s29.296,83.682,30.632,142.277c1.393,61.164,0.92,211.712-21.596,284.563c0,0,30.603,35.271,138.483,35.271h7.299
				c107.881,0,137.445-35.271,137.445-35.271c-19.347-72.148-24.991-226.118-20.556-284.563
				c4.437-58.44,30.633-142.277,30.633-142.277s-36.02-18.036-69.828-27.512c-27.221-7.637-77.694-10.372-77.694-10.372H219.884z"/>
		</defs>
		<clipPath id="SVGID_2_">
			<use xlink:href="#SVGID_1_"  overflow="visible"/>
		</clipPath>
		<path clip-path="url(#SVGID_2_)" fill="#E3605E" d="M102.063,215.369c0,0,42.383,10.724,124.486,10.724
			c82.106,0,124.307-13.575,124.307-13.575l8.732,228.96c0,0-58.981,16.161-131.157,16.161c-72.173,0-138.074-16.161-138.074-16.161
			L102.063,215.369z"/>
	</g>
	<path fill="#B13737" d="M72.66,62.89c0,0-14.691,14.475-26.316,53.797c-11.625,39.322-18.808,74.883-18.808,74.883
		s42.012,24.693,76.229,20.896C103.764,212.466,103.764,103.35,72.66,62.89"/>
	<path fill="#B13737" d="M374.705,62.89c0,0,14.689,14.475,26.315,53.797c11.625,39.322,18.809,74.883,18.809,74.883
		s-42.013,24.693-76.228,20.896C343.601,212.466,343.601,103.35,374.705,62.89"/>
	<path fill="#EEEEEE" d="M29.882,192.108c-0.072-1.348,0.337-2.944,0.829-4.506c17.358,10.428,57.096,23.754,75.098,24.635
		c0.003,1.258,0.922,6.569,0.302,6.963C98.797,223.842,30.354,200.636,29.882,192.108"/>
	<path fill="#EEEEEE" d="M422.458,192.831c0.072-1.349-0.485-3.038-0.982-4.603c-17.358,10.427-57.529,23.357-75.53,24.234
		c-0.003,1.258-0.618,6.276,0,6.67C353.257,223.777,421.985,201.358,422.458,192.831"/>
	<g opacity="0.4">
		<g>
			<defs>
				<rect id="SVGID_3_" x="239.363" y="62.89" width="137.687" height="462.012"/>
			</defs>
			<clipPath id="SVGID_4_">
				<use xlink:href="#SVGID_3_"  overflow="visible"/>
			</clipPath>
			<path clip-path="url(#SVGID_4_)" fill="#B9BBA4" d="M345.65,218.594c0.208-4.88,0.461-9.401,0.766-13.42
				c0.574-7.554,2.275-16.888,2.768-24.115c-0.45-3.899,10.888-55.297,11.14-56.374c7.239-31.071,13.315-47.291,16.725-61.795
				c-36.194,15.726-50.986,83.769-50.369,109.612c0.624,26.128-38.569,44.177-38.569,44.177s16.173,4.989,19.903,8.646
				c3.735,3.657-9.28,79.366-11.146,88.071c-1.867,8.708,15.505,47.089,14.881,57.661c-0.624,10.575-53.5-29.121-53.5-29.121
				s48.527,69.907,54.124,80.486c5.598,10.575,10.572,23.479-2.49,50.855c-12.47,26.131-65.716,49.891-70.521,51.623
				c23.353-0.48,42.759-2.51,58.761-5.729c28.663-5.763,52.125-13.949,68.854-29.442c-8.587-32.011-14.467-80.128-17.971-128.861
				C344.989,316.783,342.694,266.502,345.65,218.594"/>
		</g>
	</g>
	<g opacity="0.4">
		<g>
			<defs>
				<rect id="SVGID_5_" x="75.004" y="62.89" width="120.361" height="461.318"/>
			</defs>
			<clipPath id="SVGID_6_">
				<use xlink:href="#SVGID_5_"  overflow="visible"/>
			</clipPath>
			<path clip-path="url(#SVGID_6_)" fill="#B9BBA4" d="M113.448,507.527c17.179,7.198,43.389,14.352,81.918,16.681
				c-6.921-0.651-63.569-22.39-76.998-98.283c-14.313-80.876-1.248-78.386-1.248-78.386s13.063,60.97,52.254,72.784
				c0,0-54.12-82.114-53.496-211.508c0,0,17.178,4.551-5.442-54.587c-8.613-22.516-27.058-77.496-35.431-91.339
				c0,0,1.282,4.596,3.57,12.987c2.616,9.057,6.275,22.193,10.073,37.391c0.013,0.042,0.024,0.077,0.034,0.126
				c0,0,0.013,0.048,0.013,0.062c7.012,28.043,14.465,62.943,16.646,91.712c0.066,0.839,0.647,9.309,0.647,10.572
				c0,0-0.394,11.282-0.394,11.405c0.463,28.453,0.119,58.915-3.183,106.091v0.09c0,56.81-7.358,114.838-18.667,156.405
				C83.743,489.73,93.053,498.693,113.448,507.527"/>
		</g>
	</g>
	<path fill="#2C381E" d="M268.812,30.324c0-0.616-0.093-1.248-0.219-1.854c-0.165-0.793-13.999-1.561-15.538-1.709
		c-5.499-0.536-11.008-0.975-16.528-1.245c-10.696-0.522-21.317-0.193-31.984,0.713c-4.594,0.39-9.182,0.819-13.767,1.3
		c-0.272,0.909-0.464,1.838-0.464,2.786c0,10.73,17.573,19.436,39.251,19.436C251.238,49.75,268.812,41.055,268.812,30.324"/>
	<path fill="#B13737" d="M270.601,28.731l-2.637-0.239c0.057,0.384,0.073,0.378,0.069,0.765
		c-0.045,9.611-17.352,17.313-38.667,17.213c-21.311-0.1-38.551-7.966-38.504-17.577c0-0.388,0.076-0.771,0.132-1.151
		c-0.037,0.035-0.066,0.077-0.103,0.109l0.125-0.349l-2.124,0.31c-1.324,2.594-1.889,6.174-1.047,8.999
		c0.526,1.761,1.635,3.289,2.922,4.573c3.624,3.608,8.676,5.715,13.472,7.237c6.697,2.119,13.739,3.142,20.745,3.471
		c1.45,0.073,2.903,0.109,4.353,0.115c9.211,0.046,18.666-1.009,27.389-4.096c4.164-1.468,8.584-3.348,11.672-6.611
		C271.342,38.384,272.631,32.708,270.601,28.731"/>
	<path fill="#2A2B25" d="M325.573,124.05c8.256,10.24-10.232,52.619-23.383,52.619s-31.636-42.379-23.383-52.619
		C286.146,114.948,318.234,114.948,325.573,124.05"/>
</g>
</svg>
