<?xml version="1.0" encoding="utf-8"?>
<!-- Generator: Adobe Illustrator 16.0.0, SVG Export Plug-In . SVG Version: 6.00 Build 0)  -->
<!DOCTYPE svg PUBLIC "-//W3C//DTD SVG 1.1//EN" "http://www.w3.org/Graphics/SVG/1.1/DTD/svg11.dtd">
<svg version="1.1" id="Layer_1" xmlns="http://www.w3.org/2000/svg" xmlns:xlink="http://www.w3.org/1999/xlink" x="0px" y="0px"
	 width="500px" height="500px" viewBox="0 0 500 500" enable-background="new 0 0 500 500" xml:space="preserve">
<path fill-rule="evenodd" clip-rule="evenodd" fill="#FFFFFF" d="M249.5,177.063c40.316,0,73,32.613,73,72.844
	s-32.684,72.844-73,72.844s-73-32.613-73-72.844S209.184,177.063,249.5,177.063z"/>
<g>
	<g>
		<path fill="#254B62" d="M223.175,288.933h-0.103v-0.113h-0.104v-0.113h-0.103v-0.113h-0.103v-0.113h-0.103v-0.113h-0.103v-0.113
			h-0.103v-0.113h-0.104v-0.113h-0.103v-0.114h-0.103v-0.113h-0.103v-0.113h-0.103v-0.113h-0.103v-0.114h-0.103v-0.113h-0.103
			v-0.113h-0.104v-0.113h-0.103v-0.113h-0.103v-0.113h-0.103v-0.113h-0.103v-0.113h-0.103v-0.113h-0.103v-0.113h-0.104v-0.113H220.7
			v-0.114h-0.103v-0.113h-0.103v-0.113h-0.103v-0.113h-0.103v-0.114h-0.103v-0.113h-0.104v-0.113h-0.103v-0.113h-0.103v-0.113
			h-0.103v-0.113h-0.103v-0.113h-0.103v-0.113h-0.104v-0.113h-0.103v-0.113h-0.103v-0.113h-0.103v-0.114h-0.103v-0.113h-0.103
			v-0.113h-0.103v-0.113h-0.104v-0.114h-0.103v-0.113h-0.103v-0.113h-0.103v-0.113h-0.103v-0.113h-0.103v-0.113h-0.104v-0.113
			h-0.103v-0.113h-0.103v-0.113h-0.103v-0.113h-0.103v-0.113h-0.103v-0.113h-0.103v-0.114h-0.104v-0.113h-0.103v-0.113h-0.103
			v-0.113h-0.103v-0.114h-0.103v-0.113h-0.103v-0.113h-0.103v-0.113h-0.104v-0.113h-0.103v-0.113h-0.103v-0.113h-0.103v-0.113
			h-0.103v-0.113h-0.103v-0.113h-0.103v-0.113h-0.104v-0.114h-0.103v-0.113h-0.103v-0.113h-0.103v-0.113h-0.103v-0.114h-0.103
			v-0.113h-0.103v-0.113h-0.104V280.2h-0.103v-0.113h-0.103v-0.113h-0.103v-0.113h-0.103v-0.113h-0.103v-0.113h-0.104v-0.113h-0.103
			v-0.113h-0.103v-0.114h-0.103v-0.113h-0.103v-0.113h-0.103v-0.113h-0.103v-0.114h-0.104v-0.113h-0.103v-0.113h-0.103v-0.113
			h-0.103v-0.113h-0.103v-0.113h-0.103v-0.113h-0.103v-0.113h-14.065c3.027-4.089,5.388-7.204,7.019-9.262
			c6.92-8.693,11.214-14.678,13.12-18.287c3.496-6.491,5.269-13.326,5.269-20.316c0-6.117-2.166-11.625-6.439-16.406
			c-0.034-0.039-0.07-0.076-0.104-0.115c-0.033-0.037-0.069-0.074-0.103-0.113c-0.034-0.037-0.069-0.074-0.103-0.113
			c-0.034-0.037-0.069-0.074-0.103-0.113c-0.034-0.037-0.069-0.075-0.103-0.113c-0.034-0.037-0.069-0.075-0.103-0.113
			c-0.034-0.038-0.07-0.076-0.104-0.113c-0.033-0.039-0.069-0.076-0.103-0.113c-0.034-0.038-0.069-0.076-0.103-0.113
			c-0.033-0.038-0.068-0.075-0.103-0.113c-0.034-0.038-0.069-0.076-0.104-0.113c-0.034-0.039-0.07-0.076-0.104-0.115
			c-0.033-0.037-0.068-0.074-0.102-0.112s-0.069-0.075-0.103-0.113s-0.069-0.075-0.104-0.113c-0.033-0.038-0.069-0.075-0.103-0.113
			c-0.034-0.038-0.069-0.075-0.103-0.113s-0.069-0.076-0.104-0.114c-0.034-0.038-0.069-0.075-0.103-0.113
			c-0.034-0.037-0.069-0.075-0.103-0.113c-0.034-0.037-0.069-0.074-0.103-0.112c-0.034-0.038-0.07-0.076-0.104-0.114
			c-0.034-0.038-0.069-0.076-0.104-0.114c-0.034-0.038-0.069-0.075-0.103-0.112c-0.034-0.038-0.069-0.076-0.103-0.113
			c-0.034-0.039-0.069-0.076-0.103-0.113c-0.034-0.039-0.069-0.076-0.103-0.113c-0.034-0.039-0.069-0.076-0.104-0.113
			c-0.034-0.039-0.069-0.076-0.104-0.115c-0.033-0.037-0.069-0.074-0.103-0.112c-0.033-0.038-0.069-0.075-0.103-0.112
			c-0.034-0.039-0.069-0.076-0.104-0.115c-0.034-0.037-0.069-0.074-0.103-0.113c-0.034-0.037-0.069-0.074-0.103-0.113
			c-0.034-0.037-0.07-0.075-0.104-0.113c-0.033-0.038-0.069-0.075-0.103-0.113s-0.069-0.075-0.103-0.113
			c-0.034-0.038-0.069-0.075-0.103-0.113s-0.069-0.075-0.103-0.113c-0.034-0.039-0.07-0.076-0.104-0.114
			c-0.033-0.038-0.068-0.075-0.102-0.112c-0.034-0.038-0.069-0.076-0.103-0.113c-0.034-0.038-0.07-0.076-0.104-0.113
			c-0.034-0.039-0.069-0.076-0.103-0.114c-0.034-0.038-0.069-0.075-0.103-0.113c-0.034-0.038-0.07-0.076-0.104-0.114
			c-0.034-0.037-0.069-0.074-0.103-0.112s-0.069-0.075-0.103-0.114c-0.034-0.037-0.069-0.074-0.104-0.113
			c-0.033-0.037-0.069-0.074-0.103-0.113c-0.034-0.038-0.069-0.076-0.104-0.113c-0.033-0.038-0.068-0.075-0.102-0.112
			c-0.034-0.038-0.069-0.076-0.104-0.114c-0.034-0.038-0.069-0.076-0.103-0.113c-0.034-0.038-0.069-0.076-0.103-0.113
			c-0.034-0.039-0.069-0.076-0.104-0.113c-0.034-0.039-0.069-0.076-0.104-0.115c-0.034-0.037-0.069-0.074-0.103-0.111
			c-0.034-0.039-0.069-0.076-0.103-0.114s-0.069-0.075-0.103-0.113s-0.069-0.075-0.103-0.113s-0.069-0.075-0.103-0.112
			c-0.034-0.039-0.07-0.076-0.104-0.115c-0.034-0.038-0.069-0.075-0.103-0.113c-0.034-0.037-0.069-0.075-0.103-0.113
			c-0.034-0.037-0.069-0.075-0.103-0.113c-0.034-0.037-0.069-0.075-0.103-0.113c-0.034-0.038-0.07-0.076-0.104-0.114
			c-0.033-0.038-0.069-0.075-0.103-0.112c-0.033-0.038-0.069-0.076-0.103-0.113c-0.034-0.038-0.069-0.076-0.103-0.113
			c-0.034-0.038-0.069-0.076-0.103-0.113c-0.033-0.038-0.069-0.076-0.103-0.113c-0.034-0.039-0.07-0.076-0.104-0.115
			c-0.033-0.037-0.068-0.074-0.103-0.112c-0.033-0.038-0.069-0.075-0.103-0.113c-0.034-0.038-0.069-0.075-0.103-0.113
			c-0.034-0.038-0.069-0.075-0.103-0.114c-0.034-0.037-0.07-0.075-0.104-0.113s-0.069-0.075-0.103-0.113
			c-0.034-0.037-0.069-0.074-0.103-0.113c-0.034-0.037-0.069-0.075-0.104-0.113c-0.033-0.037-0.068-0.074-0.102-0.113
			c-0.034-0.037-0.07-0.075-0.104-0.113c-0.034-0.039-0.069-0.076-0.104-0.114c-0.034-0.038-0.069-0.075-0.103-0.112
			c-0.034-0.039-0.069-0.076-0.103-0.113c-0.034-0.039-0.069-0.076-0.103-0.113c-0.034-0.039-0.069-0.076-0.103-0.113
			c-0.034-0.039-0.069-0.076-0.104-0.114c-0.034-0.038-0.069-0.075-0.104-0.114c-0.034-0.037-0.069-0.074-0.103-0.112
			s-0.069-0.075-0.103-0.112c-0.034-0.039-0.069-0.076-0.104-0.115c-0.034-0.037-0.069-0.074-0.103-0.113
			c-0.034-0.038-0.07-0.076-0.104-0.113c-0.609-0.689-1.262-1.363-1.958-2.022c-5.534-5.23-12.322-7.882-20.176-7.882
			c-8.488,0-15.46,2.373-20.709,7.041c-6.042,5.264-9.105,12.914-9.105,22.738v4.157h0.103v0.114h0.103v0.113h0.103v0.113h0.103
			v0.113h0.103v0.113h0.103v0.113h0.104v0.113h0.103v0.113h0.103v0.113h0.103v0.113h0.103v0.113h0.103v0.114h0.104v0.113h0.103
			v0.113h0.103v0.113h0.103v0.114h0.103v0.113h0.103v0.113h0.103v0.113h0.104v0.113h0.103v0.113h0.103v0.113h0.103v0.113h0.103
			v0.113h0.103v0.113h0.103v0.113h0.104v0.113h0.103v0.114h0.103v0.113h0.103v0.113h0.103v0.114h0.103v0.113h0.103v0.113h0.104
			v0.113h0.103v0.113h0.103v0.113h0.103v0.113h0.103v0.113h0.103v0.113h0.103v0.113h0.104v0.113h0.103v0.113h0.103v0.114h0.103
			v0.113h0.103v0.113h0.103v0.113h0.103v0.114h0.104v0.113h0.103v0.113h0.103v0.113h0.103v0.113h0.103v0.113h0.103v0.113h0.104
			v0.113h0.103v0.113h0.103v0.113h0.103v0.113h0.103v0.114h0.103v0.113h0.103v0.113h0.103v0.113h0.104v0.114h0.103v0.113h0.103
			v0.113h0.103v0.113h0.103v0.113h0.103v0.113h0.103v0.113h0.104v0.113h0.103v0.113h0.103v0.113h0.103v0.113h0.103v0.114h0.103
			v0.113h0.104v0.113h0.103v0.113h0.103v0.114h0.103v0.113h0.103v0.113h0.103v0.113h0.104v0.113h0.103v0.113h0.103v0.113h0.103
			v0.113h0.103v0.113h0.103v0.113h0.103v0.113h0.103v0.113h0.104v0.114h0.103v0.113h0.103v0.113h0.103v0.113h0.103v0.114h0.103
			v0.113h0.103v0.113h0.104v0.113h0.103v0.113h20.084v-5.351c0-2.04,0.295-3.79,0.881-5.208c1.578-3.87,4.054-5.882,7.524-6.172
			c-0.249,3.065-1.225,6.376-2.923,9.867c-2.506,5.125-6.364,10.945-11.471,17.305c-5.449,6.838-9.513,11.891-12.102,15.047
			l-4.404,5.642c-1.425,1.837-2.732,3.556-3.888,5.114c-3.971,5.406-3.971,5.777-3.971,6.34v15.326h0.103v0.113h0.104v0.113h0.103
			v0.114h0.103v0.113h0.103v0.113h0.103v0.113h0.103v0.114h0.103v0.113h0.104v0.113h0.103v0.113h0.103v0.113h0.103v0.113h0.103
			v0.113h0.103v0.113h0.103v0.113h0.104v0.113h0.103v0.113h0.103v0.114h0.103v0.113h0.103v0.113h0.103v0.113h0.104v0.114h0.103
			v0.113h0.103v0.113h0.103v0.113h0.103v0.113h0.103v0.113h0.103v0.113h0.104v0.113h0.103v0.113h0.103v0.113h0.103v0.113h0.103
			v0.114h0.103v0.113h0.104v0.113h0.103v0.113h0.103v0.114h0.103v0.113h0.103v0.113h0.103v0.113h0.103v0.113h0.104v0.113h0.103
			v0.113h0.103v0.113h0.103v0.113h0.103v0.113h0.103v0.113h0.103v0.113h0.104v0.114h0.103v0.113h0.103v0.113h0.103v0.114h0.103
			v0.113h0.103v0.113h0.103v0.113h0.104v0.113h0.103v0.113h0.103v0.113h0.103v0.113h0.103v0.113h0.103v0.113h0.103v0.113h0.104
			v0.114h0.103v0.113h0.103v0.113h0.103v0.113h0.103v0.113h0.103v0.114h0.103v0.113h0.104v0.113h0.103v0.113h0.103v0.113h0.103
			v0.113h0.103v0.113h0.103v0.113h0.104v0.113h0.103v0.113h0.103v0.113h0.103v0.114h0.103v0.113h0.103v0.113h0.103v0.113h0.103
			v0.114h0.104v0.113h0.103v0.113h0.103v0.113h0.103v0.113h0.103v0.113h0.103v0.113h0.103v0.113h0.104v0.113h0.103v0.113h0.103
			v0.113h0.103v0.114h0.103v0.113h0.103v0.113h0.104v0.113h57.213v-17.784h-0.103V288.933z"/>
		<path fill="#FFFCF2" d="M184.984,272.708l3.049-4.068c3.601-4.885,6.36-8.538,8.197-10.856c6.92-8.692,11.214-14.678,13.12-18.286
			c3.496-6.492,5.269-13.327,5.269-20.316c0-6.95-2.791-13.112-8.296-18.317c-5.534-5.23-12.322-7.882-20.176-7.882
			c-8.488,0-15.46,2.373-20.709,7.041c-6.042,5.264-9.105,12.914-9.105,22.738v4.157h20.084v-5.351c0-2.039,0.295-3.789,0.881-5.207
			c1.709-4.193,4.458-6.232,8.401-6.232c2.767,0,4.968,0.914,6.708,2.767c1.672,1.858,2.485,4.069,2.485,6.759
			c0,3.484-1.008,7.322-2.993,11.402c-2.506,5.125-6.364,10.945-11.471,17.305c-5.449,6.838-9.513,11.891-12.102,15.047
			l-4.404,5.642c-1.425,1.837-2.732,3.556-3.888,5.114c-3.971,5.406-3.971,5.777-3.971,6.34v15.326h57.213v-17.783H181.15
			C182.107,276.643,183.394,274.852,184.984,272.708z"/>
		<linearGradient id="SVGID_1_" gradientUnits="userSpaceOnUse" x1="141.8516" y1="210.9277" x2="229.995" y2="292.8638">
			<stop  offset="0.2335" style="stop-color:#FFDE68"/>
			<stop  offset="0.2385" style="stop-color:#FFF394"/>
			<stop  offset="0.4374" style="stop-color:#FFF394"/>
			<stop  offset="0.4403" style="stop-color:#FFDE68"/>
			<stop  offset="0.6921" style="stop-color:#FFDE68"/>
			<stop  offset="0.6928" style="stop-color:#FFF394"/>
			<stop  offset="0.7723" style="stop-color:#FFF394"/>
			<stop  offset="0.7724" style="stop-color:#FFDE68"/>
		</linearGradient>
		<path fill="url(#SVGID_1_)" d="M159.064,292.829v-12.021c0.269-0.48,1.072-1.714,3.389-4.868c1.123-1.515,2.417-3.218,3.84-5.052
			l4.399-5.635c2.554-3.112,6.634-8.186,12.083-15.023c5.236-6.521,9.215-12.531,11.819-17.856c2.189-4.499,3.298-8.776,3.298-12.72
			c0-3.416-1.095-6.365-3.254-8.766c-2.355-2.51-5.349-3.76-8.938-3.76c-3.594,0-8.451,1.406-11.179,8.1
			c-0.73,1.768-1.104,3.904-1.104,6.34v2.351h-14.084v-1.157c0-8.918,2.717-15.808,8.076-20.476
			c4.711-4.19,11.007-6.304,18.738-6.304c7.063,0,13.158,2.375,18.116,7.063c4.881,4.615,7.357,10.045,7.357,16.137
			c0,6.486-1.652,12.844-4.91,18.894c-1.806,3.418-6.117,9.413-12.827,17.841c-1.856,2.342-4.635,6.022-8.264,10.943l-3.035,4.05
			c-1.623,2.187-2.937,4.017-3.913,5.448l-3.197,4.689h34.803v11.783H159.064z"/>
		<g>
			<path fill="#EDAB07" d="M160.064,281.808c0.269-0.48,1.072-1.714,3.389-4.868c1.123-1.515,2.417-3.218,3.84-5.052l4.399-5.635
				c2.554-3.112,6.634-8.186,12.083-15.023c5.236-6.521,9.215-12.531,11.819-17.856c2.189-4.499,3.298-8.776,3.298-12.72
				c0-3.416-1.095-6.365-3.254-8.766c-0.279-0.297-0.569-0.574-0.867-0.837c2.066,2.371,3.121,5.262,3.121,8.603
				c0,3.943-1.108,8.221-3.298,12.72c-2.604,5.325-6.583,11.335-11.819,17.856c-5.449,6.838-9.53,11.911-12.083,15.023l-4.399,5.635
				c-1.423,1.834-2.718,3.537-3.84,5.052c-2.317,3.154-3.12,4.388-3.389,4.868v12.021h1V281.808z"/>
			<polygon fill="#EDAB07" points="176.475,282.046 210.277,282.046 210.277,281.046 177.156,281.046 			"/>
			<path fill="#EDAB07" d="M160.332,223.761c0-8.918,2.717-15.808,8.076-20.476c4.711-4.19,11.007-6.304,18.738-6.304
				c7.063,0,13.158,2.375,18.116,7.063c0.013,0.012,0.025,0.025,0.039,0.037c-0.334-0.35-0.678-0.696-1.039-1.037
				c-4.958-4.688-11.053-7.063-18.116-7.063c-7.731,0-14.027,2.113-18.738,6.304c-5.359,4.668-8.076,11.558-8.076,20.476v1.157h1
				V223.761z"/>
		</g>
	</g>
	<g>
		<path fill="#254B62" d="M277.553,212.153c-0.035-0.038-0.068-0.076-0.104-0.114c-0.034-0.037-0.067-0.075-0.103-0.112
			c-0.034-0.038-0.068-0.076-0.104-0.113c-0.034-0.038-0.068-0.076-0.103-0.114c-0.035-0.037-0.068-0.075-0.104-0.113
			c-0.034-0.037-0.068-0.075-0.104-0.113c-0.034-0.038-0.068-0.076-0.104-0.114c-0.034-0.037-0.067-0.075-0.103-0.112
			c-0.034-0.038-0.068-0.076-0.103-0.113c-0.035-0.038-0.068-0.076-0.104-0.113c-0.034-0.038-0.068-0.076-0.103-0.114
			c-0.035-0.037-0.068-0.075-0.104-0.113c-0.034-0.037-0.068-0.075-0.104-0.113c-0.034-0.037-0.067-0.075-0.103-0.113
			c-0.035-0.037-0.068-0.076-0.104-0.113c-0.034-0.038-0.068-0.076-0.103-0.113c-0.035-0.038-0.068-0.076-0.104-0.113
			c-0.034-0.038-0.068-0.076-0.104-0.114c-0.034-0.037-0.068-0.075-0.103-0.113c-0.034-0.037-0.068-0.075-0.104-0.113
			c-0.034-0.037-0.067-0.075-0.103-0.113c-0.035-0.037-0.068-0.075-0.104-0.113c-0.034-0.037-0.067-0.075-0.103-0.112
			c-0.034-0.039-0.068-0.077-0.104-0.115c-0.035-0.037-0.068-0.075-0.103-0.112c-0.035-0.038-0.068-0.076-0.104-0.113
			c-0.035-0.038-0.068-0.076-0.104-0.114c-0.034-0.037-0.067-0.075-0.103-0.113s-0.068-0.076-0.104-0.113
			c-0.034-0.038-0.068-0.076-0.103-0.113c-0.035-0.038-0.068-0.076-0.104-0.113c-0.034-0.038-0.068-0.076-0.103-0.113
			c-0.035-0.038-0.068-0.075-0.103-0.113c-0.035-0.038-0.069-0.076-0.104-0.114c-0.034-0.037-0.068-0.076-0.104-0.113
			c-0.034-0.038-0.067-0.075-0.103-0.113c-0.034-0.037-0.068-0.075-0.103-0.113c-0.035-0.038-0.068-0.076-0.104-0.113
			c-0.034-0.038-0.068-0.076-0.103-0.113c-0.035-0.038-0.068-0.076-0.104-0.113c-0.035-0.038-0.068-0.076-0.104-0.114
			c-0.034-0.037-0.068-0.075-0.103-0.113c-0.035-0.037-0.068-0.075-0.104-0.113c-0.034-0.037-0.067-0.075-0.103-0.112
			c-0.034-0.038-0.068-0.076-0.104-0.114s-0.068-0.076-0.104-0.114c-0.034-0.037-0.068-0.075-0.103-0.112
			c-0.034-0.038-0.068-0.076-0.104-0.113c-0.034-0.038-0.067-0.076-0.103-0.113c-0.035-0.038-0.068-0.076-0.104-0.114
			c-0.034-0.037-0.068-0.075-0.103-0.113c-0.035-0.038-0.069-0.076-0.104-0.113c-0.034-0.038-0.067-0.076-0.102-0.113
			c-0.035-0.037-0.068-0.075-0.104-0.113c-0.034-0.037-0.068-0.076-0.104-0.113c-0.034-0.038-0.068-0.076-0.103-0.113
			c-0.035-0.038-0.068-0.076-0.104-0.114s-0.068-0.075-0.103-0.113c-0.035-0.037-0.068-0.075-0.104-0.113
			c-0.034-0.037-0.068-0.075-0.104-0.113c-0.034-0.038-0.067-0.075-0.103-0.113s-0.068-0.076-0.104-0.113
			c-0.034-0.038-0.068-0.076-0.104-0.114c-0.034-0.037-0.067-0.075-0.103-0.112c-0.034-0.038-0.067-0.076-0.103-0.113
			c-0.034-0.038-0.068-0.076-0.104-0.114c-0.034-0.037-0.068-0.075-0.104-0.113c-0.034-0.037-0.067-0.075-0.103-0.113
			s-0.068-0.076-0.104-0.114c-0.034-0.037-0.068-0.075-0.103-0.112c-0.035-0.038-0.068-0.076-0.104-0.113
			c-0.034-0.038-0.068-0.076-0.103-0.113c-0.035-0.038-0.068-0.076-0.104-0.114s-0.068-0.076-0.104-0.113
			c-0.034-0.038-0.067-0.075-0.103-0.112c-0.034-0.038-0.068-0.076-0.104-0.114c-0.034-0.038-0.068-0.076-0.103-0.113
			c-0.035-0.038-0.068-0.076-0.104-0.113c-0.034-0.038-0.068-0.076-0.103-0.113c-0.035-0.038-0.069-0.076-0.104-0.114
			c-0.034-0.037-0.067-0.075-0.103-0.113c-0.034-0.037-0.067-0.075-0.103-0.113c-0.035-0.037-0.068-0.075-0.104-0.113
			c-0.034-0.038-0.068-0.076-0.103-0.113c-0.035-0.038-0.068-0.076-0.104-0.113c-0.034-0.038-0.068-0.076-0.103-0.113
			c-0.035-0.038-0.068-0.076-0.104-0.114c-0.034-0.037-0.068-0.075-0.104-0.113c-0.034-0.037-0.068-0.075-0.103-0.113
			c-0.035-0.037-0.068-0.075-0.104-0.113c-0.034-0.038-0.068-0.076-0.104-0.114c-0.034-0.037-0.067-0.075-0.103-0.112
			c-0.034-0.038-0.068-0.076-0.103-0.113c-0.035-0.038-0.068-0.076-0.104-0.113c-0.034-0.038-0.068-0.076-0.104-0.113
			c-0.034-0.038-0.067-0.076-0.103-0.113c-0.622-0.679-1.287-1.34-2.001-1.981c-5.501-4.948-12.294-7.457-20.19-7.457
			c-7.834,0-14.624,2.492-20.181,7.408c-5.563,4.919-8.382,10.973-8.382,17.995v54.429c0,6.109,2.155,11.494,6.412,16.042
			c0.035,0.038,0.068,0.076,0.104,0.114c0.034,0.037,0.067,0.075,0.103,0.112c0.035,0.038,0.068,0.076,0.104,0.114
			c0.034,0.037,0.067,0.075,0.103,0.113c0.035,0.037,0.068,0.075,0.104,0.113c0.034,0.037,0.067,0.075,0.103,0.113
			s0.068,0.076,0.104,0.114c0.035,0.037,0.067,0.075,0.103,0.112s0.068,0.076,0.104,0.113c0.035,0.038,0.068,0.076,0.104,0.114
			c0.034,0.037,0.067,0.075,0.103,0.113c0.035,0.037,0.068,0.075,0.104,0.113s0.068,0.076,0.104,0.114
			c0.034,0.037,0.067,0.075,0.103,0.112c0.034,0.038,0.067,0.076,0.103,0.113c0.035,0.038,0.068,0.076,0.104,0.113
			c0.035,0.038,0.067,0.076,0.103,0.113c0.035,0.038,0.069,0.077,0.104,0.114c0.034,0.037,0.067,0.075,0.102,0.112
			c0.035,0.038,0.068,0.076,0.104,0.114c0.035,0.037,0.068,0.076,0.104,0.113c0.034,0.038,0.067,0.076,0.103,0.113
			c0.035,0.038,0.068,0.076,0.104,0.113c0.035,0.038,0.068,0.076,0.104,0.114c0.035,0.037,0.067,0.075,0.103,0.113
			c0.035,0.037,0.068,0.075,0.104,0.113c0.034,0.037,0.067,0.075,0.103,0.113c0.035,0.037,0.068,0.075,0.104,0.113
			c0.034,0.037,0.068,0.076,0.103,0.113c0.035,0.038,0.068,0.076,0.104,0.113c0.035,0.038,0.068,0.076,0.104,0.113
			c0.034,0.038,0.067,0.076,0.103,0.113c0.035,0.038,0.068,0.076,0.104,0.114c0.034,0.037,0.067,0.075,0.103,0.113
			c0.035,0.037,0.068,0.076,0.104,0.113c0.034,0.038,0.067,0.076,0.102,0.113c0.035,0.037,0.068,0.076,0.104,0.113
			c0.035,0.038,0.068,0.076,0.104,0.113c0.034,0.038,0.067,0.076,0.103,0.113c0.035,0.038,0.067,0.075,0.103,0.113
			s0.069,0.076,0.104,0.114c0.034,0.038,0.067,0.076,0.103,0.113c0.034,0.037,0.067,0.076,0.103,0.113s0.068,0.076,0.104,0.113
			s0.068,0.076,0.104,0.113c0.034,0.038,0.068,0.076,0.104,0.114c0.034,0.037,0.067,0.075,0.103,0.112
			c0.034,0.038,0.067,0.076,0.103,0.113c0.035,0.038,0.068,0.076,0.104,0.113c0.034,0.038,0.067,0.076,0.103,0.113
			c0.035,0.038,0.068,0.076,0.104,0.114s0.068,0.076,0.104,0.114c0.035,0.037,0.068,0.075,0.103,0.112
			c0.035,0.038,0.068,0.076,0.104,0.113c0.034,0.038,0.067,0.076,0.103,0.113c0.035,0.038,0.068,0.076,0.104,0.114
			c0.035,0.037,0.068,0.076,0.104,0.113c0.034,0.038,0.067,0.076,0.103,0.113s0.068,0.075,0.104,0.113
			c0.034,0.037,0.067,0.075,0.103,0.112c0.034,0.038,0.068,0.077,0.104,0.114c0.034,0.038,0.067,0.076,0.103,0.113
			c0.035,0.038,0.068,0.077,0.104,0.114c0.034,0.037,0.067,0.075,0.102,0.113c0.035,0.037,0.068,0.075,0.104,0.113
			c0.035,0.037,0.068,0.075,0.104,0.113c0.034,0.037,0.067,0.076,0.103,0.113c0.035,0.038,0.068,0.076,0.104,0.113
			c0.035,0.038,0.068,0.076,0.104,0.114c0.034,0.037,0.067,0.075,0.103,0.112c0.034,0.038,0.067,0.076,0.103,0.113
			c0.035,0.038,0.068,0.076,0.104,0.114c0.035,0.037,0.068,0.076,0.104,0.113c0.034,0.038,0.068,0.076,0.104,0.114
			c0.034,0.037,0.067,0.075,0.103,0.112c0.034,0.037,0.067,0.076,0.103,0.113c0.035,0.038,0.068,0.076,0.104,0.113
			c0.035,0.038,0.067,0.076,0.103,0.113c0.035,0.038,0.068,0.076,0.104,0.113c0.035,0.038,0.068,0.077,0.104,0.114
			s0.067,0.075,0.103,0.112c0.035,0.038,0.068,0.076,0.104,0.114c0.034,0.037,0.067,0.076,0.103,0.113
			c0.035,0.038,0.068,0.076,0.104,0.113c0.035,0.038,0.068,0.076,0.104,0.114c0.035,0.037,0.067,0.075,0.103,0.112
			c0.035,0.038,0.068,0.076,0.104,0.114c0.034,0.037,0.067,0.075,0.103,0.113c0.035,0.037,0.068,0.075,0.104,0.113
			c0.034,0.037,0.067,0.076,0.103,0.113c0.035,0.038,0.068,0.076,0.104,0.113c0.035,0.038,0.068,0.076,0.104,0.113
			c0.034,0.038,0.067,0.076,0.103,0.113c0.035,0.038,0.068,0.076,0.104,0.114c0.034,0.037,0.067,0.075,0.103,0.113
			c0.035,0.037,0.068,0.075,0.104,0.113c0.629,0.68,1.302,1.342,2.023,1.983c5.528,4.917,12.334,7.411,20.229,7.411
			c7.771,0,14.53-2.479,20.089-7.365c5.563-4.894,8.384-10.936,8.384-17.958v-54.43
			C283.937,222.121,281.791,216.725,277.553,212.153z M246.986,227.913c0-1.986,0.761-3.639,2.323-5.053
			c1.07-0.967,2.277-1.583,3.647-1.88v50.44c0,1.983-0.772,3.633-2.358,5.045c-1.07,0.951-2.266,1.565-3.612,1.869V227.913z"/>
		<path fill="#FFFCF2" d="M236.986,216.912c0-1.986,0.76-3.639,2.322-5.052c1.558-1.406,3.396-2.09,5.618-2.09
			c2.228,0,4.083,0.687,5.671,2.097c1.587,1.414,2.359,3.064,2.359,5.045v54.509c0,1.983-0.772,3.633-2.358,5.045
			c-1.587,1.411-3.442,2.098-5.672,2.098c-2.225,0-4.062-0.684-5.618-2.09c-1.563-1.411-2.322-3.064-2.322-5.053V216.912z
			 M265.654,199.285c-5.501-4.948-12.294-7.457-20.19-7.457c-7.834,0-14.624,2.492-20.181,7.408
			c-5.563,4.919-8.382,10.973-8.382,17.995v54.429c0,6.969,2.804,12.995,8.333,17.912c5.527,4.917,12.333,7.411,20.229,7.411
			c7.771,0,14.529-2.478,20.088-7.365c5.563-4.893,8.385-10.936,8.385-17.958v-54.429
			C273.937,210.267,271.15,204.229,265.654,199.285z"/>
		<linearGradient id="SVGID_2_" gradientUnits="userSpaceOnUse" x1="212.0278" y1="217.1704" x2="272.6109" y2="266.5804">
			<stop  offset="0.2335" style="stop-color:#FFDE68"/>
			<stop  offset="0.2385" style="stop-color:#FFF394"/>
			<stop  offset="0.4374" style="stop-color:#FFF394"/>
			<stop  offset="0.4403" style="stop-color:#FFDE68"/>
			<stop  offset="0.6921" style="stop-color:#FFDE68"/>
			<stop  offset="0.6928" style="stop-color:#FFF394"/>
			<stop  offset="0.7723" style="stop-color:#FFF394"/>
			<stop  offset="0.7724" style="stop-color:#FFDE68"/>
		</linearGradient>
		<path fill="url(#SVGID_2_)" d="M245.464,293.983c-7.138,0-13.273-2.238-18.235-6.652c-4.862-4.324-7.327-9.596-7.327-15.671
			v-54.429c0-6.125,2.479-11.424,7.369-15.748c4.992-4.416,11.113-6.655,18.193-6.655c7.134,0,13.252,2.25,18.184,6.688
			c4.837,4.35,7.289,9.638,7.289,15.716v54.429c0,6.123-2.479,11.407-7.366,15.705C258.576,291.757,252.484,293.983,245.464,293.983
			z M244.927,206.771c-2.958,0-5.524,0.963-7.629,2.863c-2.198,1.988-3.312,4.437-3.312,7.278v54.509
			c0,2.846,1.114,5.295,3.312,7.279c2.104,1.899,4.67,2.863,7.629,2.863c2.955,0,5.534-0.961,7.665-2.855
			c2.233-1.989,3.365-4.44,3.365-7.287v-54.509c0-2.845-1.132-5.296-3.363-7.285C250.458,207.73,247.88,206.771,244.927,206.771z"/>
		<g>
			<path fill="#EDAB07" d="M220.901,272.66v-54.429c0-6.125,2.479-11.424,7.369-15.748c4.992-4.416,11.113-6.655,18.193-6.655
				c7.134,0,13.252,2.25,18.184,6.688c0.186,0.167,0.36,0.337,0.538,0.507c-0.483-0.514-0.993-1.017-1.538-1.507
				c-4.932-4.438-11.05-6.688-18.184-6.688c-7.08,0-13.201,2.239-18.193,6.655c-4.89,4.324-7.369,9.623-7.369,15.748v54.429
				c0,5.791,2.245,10.85,6.666,15.056C222.807,282.716,220.901,277.999,220.901,272.66z"/>
			<path fill="#EDAB07" d="M238.298,279.7c2.104,1.899,4.67,2.863,7.629,2.863c2.955,0,5.534-0.961,7.665-2.855
				c2.233-1.989,3.365-4.44,3.365-7.287v-54.509c0-2.845-1.132-5.296-3.363-7.285c-0.02-0.018-0.041-0.032-0.061-0.049
				c1.604,1.803,2.424,3.926,2.424,6.334v54.509c0,2.847-1.132,5.298-3.365,7.287c-2.131,1.895-4.71,2.855-7.665,2.855
				c-2.912,0-5.441-0.938-7.526-2.778C237.679,279.1,237.973,279.406,238.298,279.7z"/>
		</g>
	</g>
	<g>
		<path fill="#254B62" d="M336.553,212.153c-0.035-0.038-0.068-0.076-0.104-0.114c-0.034-0.037-0.067-0.075-0.103-0.112
			c-0.034-0.038-0.068-0.076-0.104-0.113c-0.034-0.038-0.068-0.076-0.103-0.114c-0.035-0.037-0.068-0.075-0.104-0.113
			c-0.034-0.037-0.068-0.075-0.104-0.113c-0.034-0.038-0.068-0.076-0.104-0.114c-0.034-0.037-0.067-0.075-0.103-0.112
			c-0.034-0.038-0.068-0.076-0.103-0.113c-0.035-0.038-0.068-0.076-0.104-0.113c-0.034-0.038-0.068-0.076-0.103-0.114
			c-0.035-0.037-0.068-0.075-0.104-0.113c-0.034-0.037-0.068-0.075-0.104-0.113c-0.034-0.037-0.067-0.075-0.103-0.113
			c-0.035-0.037-0.068-0.076-0.104-0.113c-0.034-0.038-0.068-0.076-0.103-0.113c-0.035-0.038-0.068-0.076-0.104-0.113
			c-0.034-0.038-0.068-0.076-0.104-0.114c-0.034-0.037-0.068-0.075-0.103-0.113c-0.034-0.037-0.068-0.075-0.104-0.113
			c-0.034-0.037-0.067-0.075-0.103-0.113c-0.035-0.037-0.068-0.075-0.104-0.113c-0.034-0.037-0.067-0.075-0.103-0.112
			c-0.034-0.039-0.068-0.077-0.104-0.115c-0.035-0.037-0.068-0.075-0.103-0.112c-0.035-0.038-0.068-0.076-0.104-0.113
			c-0.035-0.038-0.068-0.076-0.104-0.114c-0.034-0.037-0.067-0.075-0.103-0.113s-0.068-0.076-0.104-0.113
			c-0.034-0.038-0.068-0.076-0.103-0.113c-0.035-0.038-0.068-0.076-0.104-0.113c-0.034-0.038-0.068-0.076-0.103-0.113
			c-0.035-0.038-0.068-0.075-0.103-0.113c-0.035-0.038-0.069-0.076-0.104-0.114c-0.034-0.037-0.068-0.076-0.104-0.113
			c-0.034-0.038-0.067-0.075-0.103-0.113c-0.034-0.037-0.068-0.075-0.103-0.113c-0.035-0.038-0.068-0.076-0.104-0.113
			c-0.034-0.038-0.068-0.076-0.103-0.113c-0.035-0.038-0.068-0.076-0.104-0.113c-0.035-0.038-0.068-0.076-0.104-0.114
			c-0.034-0.037-0.068-0.075-0.103-0.113c-0.035-0.037-0.068-0.075-0.104-0.113c-0.034-0.037-0.067-0.075-0.103-0.112
			c-0.034-0.038-0.068-0.076-0.104-0.114s-0.068-0.076-0.104-0.114c-0.034-0.037-0.068-0.075-0.103-0.112
			c-0.034-0.038-0.068-0.076-0.104-0.113c-0.034-0.038-0.067-0.076-0.103-0.113c-0.035-0.038-0.068-0.076-0.104-0.114
			c-0.034-0.037-0.068-0.075-0.103-0.113c-0.035-0.038-0.069-0.076-0.104-0.113c-0.034-0.038-0.067-0.076-0.102-0.113
			c-0.035-0.037-0.068-0.075-0.104-0.113c-0.034-0.037-0.068-0.076-0.104-0.113c-0.034-0.038-0.068-0.076-0.103-0.113
			c-0.035-0.038-0.068-0.076-0.104-0.114s-0.068-0.075-0.103-0.113c-0.035-0.037-0.068-0.075-0.104-0.113
			c-0.034-0.037-0.068-0.075-0.104-0.113c-0.034-0.038-0.067-0.075-0.103-0.113s-0.068-0.076-0.104-0.113
			c-0.034-0.038-0.068-0.076-0.104-0.114c-0.034-0.037-0.067-0.075-0.103-0.112c-0.034-0.038-0.067-0.076-0.103-0.113
			c-0.034-0.038-0.068-0.076-0.104-0.114c-0.034-0.037-0.068-0.075-0.104-0.113c-0.034-0.037-0.067-0.075-0.103-0.113
			s-0.068-0.076-0.104-0.114c-0.034-0.037-0.068-0.075-0.103-0.112c-0.035-0.038-0.068-0.076-0.104-0.113
			c-0.034-0.038-0.068-0.076-0.103-0.113c-0.035-0.038-0.068-0.076-0.104-0.114s-0.068-0.076-0.104-0.113
			c-0.034-0.038-0.067-0.075-0.103-0.112c-0.034-0.038-0.068-0.076-0.104-0.114c-0.034-0.038-0.068-0.076-0.103-0.113
			c-0.035-0.038-0.068-0.076-0.104-0.113c-0.034-0.038-0.068-0.076-0.103-0.113c-0.035-0.038-0.069-0.076-0.104-0.114
			c-0.034-0.037-0.067-0.075-0.103-0.113c-0.034-0.037-0.067-0.075-0.103-0.113c-0.035-0.037-0.068-0.075-0.104-0.113
			c-0.034-0.038-0.068-0.076-0.103-0.113c-0.035-0.038-0.068-0.076-0.104-0.113c-0.034-0.038-0.068-0.076-0.103-0.113
			c-0.035-0.038-0.068-0.076-0.104-0.114c-0.034-0.037-0.068-0.075-0.104-0.113c-0.034-0.037-0.068-0.075-0.103-0.113
			c-0.035-0.037-0.068-0.075-0.104-0.113c-0.034-0.038-0.068-0.076-0.104-0.114c-0.034-0.037-0.067-0.075-0.103-0.112
			c-0.034-0.038-0.068-0.076-0.103-0.113c-0.035-0.038-0.068-0.076-0.104-0.113c-0.034-0.038-0.068-0.076-0.104-0.113
			c-0.034-0.038-0.067-0.076-0.103-0.113c-0.622-0.679-1.287-1.34-2.001-1.981c-5.501-4.948-12.294-7.457-20.19-7.457
			c-7.834,0-14.624,2.492-20.181,7.408c-5.563,4.919-8.382,10.973-8.382,17.995v54.429c0,6.109,2.155,11.494,6.412,16.042
			c0.035,0.038,0.068,0.076,0.104,0.114c0.034,0.037,0.067,0.075,0.103,0.112c0.035,0.038,0.068,0.076,0.104,0.114
			c0.034,0.037,0.067,0.075,0.103,0.113c0.035,0.037,0.068,0.075,0.104,0.113c0.034,0.037,0.067,0.075,0.103,0.113
			s0.068,0.076,0.104,0.114c0.035,0.037,0.067,0.075,0.103,0.112s0.068,0.076,0.104,0.113c0.035,0.038,0.068,0.076,0.104,0.114
			c0.034,0.037,0.067,0.075,0.103,0.113c0.035,0.037,0.068,0.075,0.104,0.113s0.068,0.076,0.104,0.114
			c0.034,0.037,0.067,0.075,0.103,0.112c0.034,0.038,0.067,0.076,0.103,0.113c0.035,0.038,0.068,0.076,0.104,0.113
			c0.035,0.038,0.067,0.076,0.103,0.113c0.035,0.038,0.069,0.077,0.104,0.114c0.034,0.037,0.067,0.075,0.102,0.112
			c0.035,0.038,0.068,0.076,0.104,0.114c0.035,0.037,0.068,0.076,0.104,0.113c0.034,0.038,0.067,0.076,0.103,0.113
			c0.035,0.038,0.068,0.076,0.104,0.113c0.035,0.038,0.068,0.076,0.104,0.114c0.035,0.037,0.067,0.075,0.103,0.113
			c0.035,0.037,0.068,0.075,0.104,0.113c0.034,0.037,0.067,0.075,0.103,0.113c0.035,0.037,0.068,0.075,0.104,0.113
			c0.034,0.037,0.068,0.076,0.103,0.113c0.035,0.038,0.068,0.076,0.104,0.113c0.035,0.038,0.068,0.076,0.104,0.113
			c0.034,0.038,0.067,0.076,0.103,0.113c0.035,0.038,0.068,0.076,0.104,0.114c0.034,0.037,0.067,0.075,0.103,0.113
			c0.035,0.037,0.068,0.076,0.104,0.113c0.034,0.038,0.067,0.076,0.102,0.113c0.035,0.037,0.068,0.076,0.104,0.113
			c0.035,0.038,0.068,0.076,0.104,0.113c0.034,0.038,0.067,0.076,0.103,0.113c0.035,0.038,0.067,0.075,0.103,0.113
			s0.069,0.076,0.104,0.114c0.034,0.038,0.067,0.076,0.103,0.113c0.034,0.037,0.067,0.076,0.103,0.113s0.068,0.076,0.104,0.113
			s0.068,0.076,0.104,0.113c0.034,0.038,0.068,0.076,0.104,0.114c0.034,0.037,0.067,0.075,0.103,0.112
			c0.034,0.038,0.067,0.076,0.103,0.113c0.035,0.038,0.068,0.076,0.104,0.113c0.034,0.038,0.067,0.076,0.103,0.113
			c0.035,0.038,0.068,0.076,0.104,0.114s0.068,0.076,0.104,0.114c0.035,0.037,0.068,0.075,0.103,0.112
			c0.035,0.038,0.068,0.076,0.104,0.113c0.034,0.038,0.067,0.076,0.103,0.113c0.035,0.038,0.068,0.076,0.104,0.114
			c0.035,0.037,0.068,0.076,0.104,0.113c0.034,0.038,0.067,0.076,0.103,0.113s0.068,0.075,0.104,0.113
			c0.034,0.037,0.067,0.075,0.103,0.112c0.034,0.038,0.068,0.077,0.104,0.114c0.034,0.038,0.067,0.076,0.103,0.113
			c0.035,0.038,0.068,0.077,0.104,0.114c0.034,0.037,0.067,0.075,0.102,0.113c0.035,0.037,0.068,0.075,0.104,0.113
			c0.035,0.037,0.068,0.075,0.104,0.113c0.034,0.037,0.067,0.076,0.103,0.113c0.035,0.038,0.068,0.076,0.104,0.113
			c0.035,0.038,0.068,0.076,0.104,0.114c0.034,0.037,0.067,0.075,0.103,0.112c0.034,0.038,0.067,0.076,0.103,0.113
			c0.035,0.038,0.068,0.076,0.104,0.114c0.035,0.037,0.068,0.076,0.104,0.113c0.034,0.038,0.068,0.076,0.104,0.114
			c0.034,0.037,0.067,0.075,0.103,0.112c0.034,0.037,0.067,0.076,0.103,0.113c0.035,0.038,0.068,0.076,0.104,0.113
			c0.035,0.038,0.067,0.076,0.103,0.113c0.035,0.038,0.068,0.076,0.104,0.113c0.035,0.038,0.068,0.077,0.104,0.114
			s0.067,0.075,0.103,0.112c0.035,0.038,0.068,0.076,0.104,0.114c0.034,0.037,0.067,0.076,0.103,0.113
			c0.035,0.038,0.068,0.076,0.104,0.113c0.035,0.038,0.068,0.076,0.104,0.114c0.035,0.037,0.067,0.075,0.103,0.112
			c0.035,0.038,0.068,0.076,0.104,0.114c0.034,0.037,0.067,0.075,0.103,0.113c0.035,0.037,0.068,0.075,0.104,0.113
			c0.034,0.037,0.067,0.076,0.103,0.113c0.035,0.038,0.068,0.076,0.104,0.113c0.035,0.038,0.068,0.076,0.104,0.113
			c0.034,0.038,0.067,0.076,0.103,0.113c0.035,0.038,0.068,0.076,0.104,0.114c0.034,0.037,0.067,0.075,0.103,0.113
			c0.035,0.037,0.068,0.075,0.104,0.113c0.629,0.68,1.302,1.342,2.023,1.983c5.528,4.917,12.334,7.411,20.229,7.411
			c7.771,0,14.53-2.479,20.089-7.365c5.563-4.894,8.384-10.936,8.384-17.958v-54.43
			C342.937,222.121,340.791,216.725,336.553,212.153z M305.986,227.913c0-1.986,0.761-3.639,2.323-5.053
			c1.07-0.967,2.277-1.583,3.647-1.88v50.44c0,1.983-0.772,3.633-2.358,5.045c-1.07,0.951-2.266,1.565-3.612,1.869V227.913z"/>
		<path fill="#FFFCF2" d="M295.986,216.912c0-1.986,0.76-3.639,2.322-5.052c1.558-1.406,3.396-2.09,5.618-2.09
			c2.228,0,4.083,0.687,5.671,2.097c1.587,1.414,2.359,3.064,2.359,5.045v54.509c0,1.983-0.772,3.633-2.358,5.045
			c-1.587,1.411-3.442,2.098-5.672,2.098c-2.225,0-4.062-0.684-5.618-2.09c-1.563-1.411-2.322-3.064-2.322-5.053V216.912z
			 M324.654,199.285c-5.501-4.948-12.294-7.457-20.19-7.457c-7.834,0-14.624,2.492-20.181,7.408
			c-5.563,4.919-8.382,10.973-8.382,17.995v54.429c0,6.969,2.804,12.995,8.333,17.912c5.527,4.917,12.333,7.411,20.229,7.411
			c7.771,0,14.529-2.478,20.088-7.365c5.563-4.893,8.385-10.936,8.385-17.958v-54.429
			C332.937,210.267,330.15,204.229,324.654,199.285z"/>
		<linearGradient id="SVGID_3_" gradientUnits="userSpaceOnUse" x1="271.0273" y1="217.1704" x2="331.6111" y2="266.581">
			<stop  offset="0.2335" style="stop-color:#FFDE68"/>
			<stop  offset="0.2385" style="stop-color:#FFF394"/>
			<stop  offset="0.4374" style="stop-color:#FFF394"/>
			<stop  offset="0.4403" style="stop-color:#FFDE68"/>
			<stop  offset="0.6921" style="stop-color:#FFDE68"/>
			<stop  offset="0.6928" style="stop-color:#FFF394"/>
			<stop  offset="0.7723" style="stop-color:#FFF394"/>
			<stop  offset="0.7724" style="stop-color:#FFDE68"/>
		</linearGradient>
		<path fill="url(#SVGID_3_)" d="M304.464,293.983c-7.138,0-13.273-2.238-18.235-6.652c-4.862-4.324-7.327-9.596-7.327-15.671
			v-54.429c0-6.125,2.479-11.424,7.369-15.748c4.992-4.416,11.113-6.655,18.193-6.655c7.134,0,13.252,2.25,18.184,6.688
			c4.837,4.35,7.289,9.638,7.289,15.716v54.429c0,6.123-2.479,11.407-7.366,15.705C317.576,291.757,311.484,293.983,304.464,293.983
			z M303.927,206.771c-2.958,0-5.524,0.963-7.629,2.863c-2.198,1.988-3.312,4.437-3.312,7.278v54.509
			c0,2.846,1.114,5.295,3.312,7.279c2.104,1.899,4.67,2.863,7.629,2.863c2.955,0,5.534-0.961,7.665-2.855
			c2.233-1.989,3.365-4.44,3.365-7.287v-54.509c0-2.845-1.132-5.296-3.363-7.285C309.458,207.73,306.88,206.771,303.927,206.771z"/>
		<g>
			<path fill="#EDAB07" d="M279.901,272.66v-54.429c0-6.125,2.479-11.424,7.369-15.748c4.992-4.416,11.113-6.655,18.193-6.655
				c7.134,0,13.252,2.25,18.184,6.688c0.186,0.167,0.36,0.337,0.538,0.507c-0.483-0.514-0.993-1.017-1.538-1.507
				c-4.932-4.438-11.05-6.688-18.184-6.688c-7.08,0-13.201,2.239-18.193,6.655c-4.89,4.324-7.369,9.623-7.369,15.748v54.429
				c0,5.791,2.245,10.85,6.666,15.056C281.807,282.716,279.901,277.999,279.901,272.66z"/>
			<path fill="#EDAB07" d="M297.298,279.7c2.104,1.899,4.67,2.863,7.629,2.863c2.955,0,5.534-0.961,7.665-2.855
				c2.233-1.989,3.365-4.44,3.365-7.287v-54.509c0-2.845-1.132-5.296-3.363-7.285c-0.02-0.018-0.041-0.032-0.061-0.049
				c1.604,1.803,2.424,3.926,2.424,6.334v54.509c0,2.847-1.132,5.298-3.365,7.287c-2.131,1.895-4.71,2.855-7.665,2.855
				c-2.912,0-5.441-0.938-7.526-2.778C296.679,279.1,296.973,279.406,297.298,279.7z"/>
		</g>
	</g>
</g>
<g>
</g>
<g>
</g>
<g>
</g>
<g>
</g>
<g>
</g>
<g>
</g>
<g>
</g>
<g>
</g>
<g>
</g>
<g>
</g>
<g>
</g>
<g>
</g>
<g>
</g>
<g>
</g>
<g>
</g>
</svg>
