<?xml version="1.0" encoding="utf-8"?>
<!-- Generator: Adobe Illustrator 16.0.0, SVG Export Plug-In . SVG Version: 6.00 Build 0)  -->
<!DOCTYPE svg PUBLIC "-//W3C//DTD SVG 1.1//EN" "http://www.w3.org/Graphics/SVG/1.1/DTD/svg11.dtd">
<svg version="1.1" id="Layer_1" xmlns="http://www.w3.org/2000/svg" xmlns:xlink="http://www.w3.org/1999/xlink" x="0px" y="0px"
	 width="500px" height="500px" viewBox="0 0 500 500" enable-background="new 0 0 500 500" xml:space="preserve">
<path fill-rule="evenodd" clip-rule="evenodd" fill="#FFFFFF" d="M249.5,177.063c40.316,0,73,32.613,73,72.844
	s-32.684,72.844-73,72.844s-73-32.613-73-72.844S209.184,177.063,249.5,177.063z"/>
<g>
	<g>
		<path fill="#254B62" d="M222.103,263.459c-1.267-2.35-2.78-4.443-4.523-6.283c-0.031-0.033-0.062-0.068-0.093-0.102
			c-0.035-0.037-0.068-0.076-0.103-0.113c-0.035-0.037-0.068-0.076-0.104-0.113c-0.034-0.037-0.068-0.076-0.103-0.113
			c-0.035-0.037-0.068-0.076-0.104-0.113c-0.034-0.037-0.068-0.076-0.104-0.113c-0.034-0.037-0.068-0.076-0.104-0.113
			c-0.034-0.038-0.067-0.076-0.103-0.113c-0.034-0.037-0.068-0.076-0.103-0.113c-0.035-0.037-0.068-0.076-0.104-0.113
			c-0.034-0.038-0.068-0.076-0.103-0.113c-0.035-0.038-0.068-0.076-0.104-0.113c-0.035-0.038-0.068-0.077-0.104-0.114
			c-0.034-0.038-0.068-0.076-0.103-0.113c-0.035-0.037-0.068-0.075-0.103-0.112c-0.035-0.039-0.069-0.077-0.104-0.115
			c-0.035-0.037-0.068-0.075-0.104-0.113c-0.035-0.037-0.068-0.076-0.104-0.113c-0.034-0.037-0.068-0.076-0.103-0.113
			c-0.035-0.037-0.068-0.076-0.104-0.113c-0.034-0.037-0.068-0.076-0.103-0.113c-0.035-0.037-0.068-0.076-0.104-0.113
			c-0.034-0.037-0.068-0.076-0.103-0.113c-0.035-0.037-0.069-0.076-0.104-0.113c-0.035-0.038-0.068-0.076-0.103-0.113
			c-0.035-0.037-0.068-0.076-0.104-0.113c-0.034-0.037-0.068-0.076-0.104-0.113c-0.034-0.038-0.068-0.076-0.103-0.114
			c-0.035-0.038-0.068-0.076-0.104-0.114c-0.035-0.037-0.068-0.075-0.103-0.112c-0.035-0.038-0.068-0.076-0.104-0.113
			c-0.034-0.038-0.068-0.076-0.104-0.113c-0.034-0.038-0.067-0.076-0.103-0.114c-0.034-0.037-0.068-0.076-0.104-0.113
			c-0.034-0.037-0.068-0.076-0.104-0.113c-0.034-0.037-0.067-0.076-0.103-0.113c-0.034-0.037-0.068-0.076-0.103-0.113
			c-0.035-0.037-0.068-0.076-0.104-0.113c-0.034-0.037-0.068-0.076-0.104-0.113c-0.034-0.037-0.067-0.076-0.103-0.113
			c-0.035-0.038-0.068-0.076-0.104-0.114c-0.035-0.037-0.068-0.075-0.103-0.112c-0.035-0.038-0.068-0.076-0.104-0.113
			c-0.034-0.038-0.068-0.076-0.103-0.114c-0.035-0.038-0.068-0.076-0.104-0.113c-0.012-0.013-0.022-0.026-0.034-0.038
			c1.301-0.963,2.506-2.023,3.594-3.186c4.417-4.771,6.656-10.506,6.656-17.047v-4.218c0-6.776-2.313-12.526-6.877-17.091v-0.001
			c-0.036-0.036-0.066-0.077-0.103-0.112c-0.001-0.001-0.001-0.001-0.001-0.001c-0.036-0.037-0.066-0.077-0.103-0.112v-0.001
			c-0.036-0.036-0.066-0.077-0.104-0.113l0,0c-0.036-0.036-0.066-0.077-0.103-0.113l0,0c-0.037-0.037-0.066-0.077-0.104-0.113
			v-0.001c-0.072-0.073-0.133-0.152-0.206-0.227c0,0,0,0-0.001,0c-0.036-0.037-0.065-0.076-0.103-0.113l0,0
			c-0.036-0.037-0.066-0.076-0.103-0.113l0,0c-0.036-0.037-0.066-0.076-0.104-0.113l0,0c-0.036-0.037-0.066-0.076-0.103-0.113
			c0,0,0,0-0.001,0c-0.036-0.037-0.065-0.076-0.103-0.113l0,0c-0.036-0.037-0.066-0.077-0.103-0.113h-0.001
			c-0.036-0.037-0.066-0.077-0.103-0.113l0,0c-0.036-0.037-0.066-0.077-0.104-0.113l0,0c-0.072-0.074-0.133-0.154-0.206-0.228l0,0
			c-0.036-0.036-0.066-0.077-0.103-0.113l-0.001-0.001c-0.036-0.036-0.066-0.076-0.103-0.112v-0.001
			c-0.036-0.036-0.066-0.076-0.103-0.112l-0.001-0.001c-0.036-0.036-0.066-0.076-0.103-0.113l0,0
			c-0.036-0.036-0.066-0.076-0.104-0.113l0,0c-0.036-0.037-0.066-0.076-0.103-0.113l0,0c-0.036-0.037-0.066-0.076-0.104-0.113
			h-0.001c-0.035-0.037-0.065-0.076-0.102-0.113h-0.001c-0.071-0.074-0.132-0.153-0.205-0.227h-0.001
			c-0.036-0.037-0.066-0.077-0.103-0.113l0,0c-0.036-0.037-0.066-0.077-0.104-0.113v-0.001c-0.036-0.036-0.066-0.076-0.103-0.112
			v-0.001c-0.037-0.036-0.066-0.076-0.104-0.112v-0.001c-0.036-0.036-0.066-0.077-0.103-0.112c0-0.001-0.001-0.001-0.001-0.001
			c-0.036-0.036-0.065-0.077-0.103-0.113l0,0c-0.036-0.036-0.066-0.077-0.103-0.113h-0.001c-0.036-0.037-0.066-0.077-0.103-0.113
			l-0.001-0.001c-0.036-0.037-0.065-0.076-0.103-0.112c0-0.001,0-0.001,0-0.001c-0.072-0.073-0.133-0.152-0.206-0.227l0,0
			c-0.036-0.037-0.066-0.076-0.103-0.113h-0.001c-0.036-0.037-0.066-0.076-0.103-0.113l0,0c-0.036-0.037-0.066-0.076-0.104-0.113
			l0,0c-0.036-0.037-0.066-0.076-0.103-0.113l0,0c-0.036-0.037-0.066-0.077-0.104-0.113l0,0c-0.036-0.037-0.066-0.077-0.103-0.113
			h-0.001c-0.036-0.037-0.065-0.077-0.103-0.113l0,0c-0.036-0.037-0.066-0.077-0.103-0.113l-0.001-0.001
			c-0.072-0.073-0.133-0.153-0.205-0.227c-0.001,0-0.001,0-0.001,0c-0.036-0.036-0.066-0.077-0.103-0.113v-0.001
			c-0.036-0.036-0.066-0.076-0.104-0.112v-0.001c-0.036-0.036-0.066-0.076-0.103-0.112c0,0,0-0.001-0.001-0.001
			c-0.036-0.036-0.065-0.076-0.103-0.113l0,0c-0.036-0.037-0.066-0.076-0.103-0.113h-0.001c-0.036-0.037-0.066-0.076-0.103-0.113
			l0,0c-0.036-0.037-0.066-0.076-0.104-0.113l0,0c-0.036-0.037-0.066-0.076-0.103-0.113l0,0c-0.036-0.037-0.066-0.076-0.104-0.113
			l0,0c-0.036-0.037-0.066-0.077-0.103-0.113h-0.001c-0.036-0.037-0.065-0.077-0.103-0.113l0,0
			c-0.036-0.037-0.066-0.077-0.103-0.113h-0.001c-0.036-0.037-0.066-0.077-0.103-0.113v-0.001c-0.036-0.036-0.066-0.077-0.104-0.112
			v-0.001c-0.036-0.036-0.066-0.077-0.103-0.113l-0.001-0.001c-0.036-0.036-0.065-0.076-0.103-0.112l0,0
			c-0.036-0.037-0.066-0.077-0.103-0.113l0,0c-0.037-0.037-0.066-0.077-0.104-0.113v-0.001c-0.036-0.036-0.066-0.076-0.103-0.113
			h-0.001c-0.071-0.073-0.133-0.152-0.205-0.227h-0.001c-0.036-0.037-0.066-0.076-0.103-0.113l0,0
			c-0.037-0.037-0.066-0.076-0.104-0.113l0,0c-0.036-0.037-0.066-0.076-0.103-0.113c0,0,0,0-0.001,0
			c-0.036-0.037-0.065-0.076-0.103-0.113l0,0c-0.036-0.037-0.066-0.077-0.103-0.113l-0.001-0.001
			c-0.036-0.036-0.066-0.076-0.103-0.112l0,0c-0.036-0.037-0.066-0.077-0.104-0.113v-0.001c-0.036-0.036-0.066-0.076-0.103-0.112
			v-0.001c-0.072-0.073-0.133-0.153-0.206-0.227h-0.001c-0.036-0.036-0.065-0.077-0.103-0.113l-0.001-0.001
			c-0.036-0.036-0.065-0.076-0.102-0.112l-0.001-0.001c-0.036-0.036-0.066-0.076-0.103-0.113l0,0
			c-0.036-0.036-0.066-0.076-0.104-0.113l0,0c-0.036-0.036-0.066-0.076-0.103-0.113h-0.001c-0.035-0.037-0.065-0.076-0.103-0.113
			l0,0c-0.036-0.037-0.066-0.076-0.103-0.113h-0.001c-0.036-0.037-0.066-0.076-0.103-0.113l0,0
			c-0.036-0.037-0.066-0.076-0.103-0.113h-0.001c-0.071-0.074-0.133-0.154-0.206-0.227l0,0c-0.036-0.037-0.066-0.077-0.103-0.113
			l-0.001-0.001c-0.036-0.036-0.065-0.077-0.103-0.112l0,0c-0.036-0.037-0.066-0.078-0.103-0.113v-0.001
			c-0.037-0.036-0.067-0.077-0.104-0.113l0,0c-0.036-0.036-0.066-0.077-0.103-0.113l-0.001-0.001
			c-0.036-0.036-0.066-0.076-0.103-0.112v-0.001c-0.036-0.036-0.066-0.076-0.104-0.112c-5.091-5.094-11.935-7.676-20.343-7.676
			c-8.86,0-15.845,2.763-20.753,8.206c-4.291,4.714-6.467,10.874-6.467,18.311v3.84h0.104v0.113h0.103v0.113h0.104v0.113h0.103
			v0.113h0.104v0.113h0.104v0.113h0.103v0.114h0.104v0.113h0.103v0.113h0.104v0.113h0.103v0.114h0.104v0.113h0.103v0.113h0.104
			v0.113h0.104v0.113h0.103V224h0.104v0.113h0.103v0.113h0.104v0.113h0.104v0.113h0.103v0.113h0.104v0.114h0.103v0.113h0.104v0.113
			h0.103v0.113h0.104v0.114h0.104v0.113h0.103v0.113h0.104v0.113h0.103v0.113h0.104v0.113h0.103v0.113h0.104v0.113h0.104v0.113
			h0.103v0.113h0.104v0.113h0.103v0.113h0.104v0.114h0.103v0.113h0.104v0.113h0.104v0.113h0.103v0.114h0.104v0.113h0.103v0.113
			h0.104v0.113h0.103v0.113h0.104v0.113h0.104v0.113h0.103v0.113h0.104v0.113h0.103v0.113h0.104v0.113h0.103v0.114h0.104v0.113
			h0.104v0.113h0.103v0.113h0.104v0.114h0.103v0.113h0.104v0.113h0.103v0.113h0.104v0.113h0.104v0.113h0.103v0.113h0.104v0.113
			h0.103v0.113h0.104v0.113h0.104v0.113h0.103v0.113h0.104v0.114h0.103v0.113h0.104v0.113h0.103v0.114h0.104v0.113h0.104v0.113
			h0.103v0.113h0.104v0.113h0.103v0.113h0.104v0.113h0.103v0.113h0.104v0.113h0.104v0.113h0.103v0.113h0.104v0.113h0.103v0.114
			h0.104v0.113h0.103v0.113h0.104v0.113h0.104v0.114h0.103v0.113h0.104v0.113h0.103v0.113h0.104v0.113h0.103v0.113h0.104v0.113
			h0.104v0.113h0.103v0.113h0.104v0.113h18.224c-2.471,1.102-5.557,1.66-9.236,1.66h-1.722v15.939h0.104v0.114h0.104v0.113h0.103
			v0.113h0.104v0.113h0.103v0.114h0.104v0.113h0.103v0.113h0.104v0.113h0.104v0.113h0.103v0.113h0.104v0.113h0.103v0.113h0.104
			v0.113h0.103v0.113h0.104v0.113h0.104v0.114h0.103v0.113h0.104v0.113h0.103v0.114h0.104v0.113h0.103v0.113h0.104v0.113h0.104
			v0.113h0.103v0.113h0.104v0.113h0.103v0.113h0.104v0.113h0.103v0.113h0.104v0.113h0.104v0.113h0.103v0.114h0.104v0.113h0.103
			v0.113h0.104v0.113h0.103v0.114h0.104v0.113h0.104v0.113h0.103v0.113h0.104v0.113h0.103v0.113h0.104v0.113h0.103v0.113h0.104
			v0.113h0.104v0.113h0.103v0.113h0.104v0.113h0.103v0.114h0.104v0.113h0.103v0.113h0.104v0.114h0.104v0.113h0.103v0.113h0.104
			v0.113h0.103v0.113h0.104v0.113h0.104v0.113h0.103v0.113h0.104v0.113h0.103v0.113h0.104v0.113h0.103v0.113h0.104v0.114h0.104
			v0.113h0.103v0.113h0.104v0.114h0.103v0.113h0.104v0.113h0.103v0.113h0.104v0.113h0.104v0.113h0.103v0.113h0.104v0.113h0.103
			v0.113h0.104v0.113h0.103v0.113h0.104v0.113h0.104v0.114h0.103v0.113h0.104v0.113h0.103v0.114h0.104v0.113h0.103v0.113h0.104
			v0.113h0.104v0.113h0.103v0.113h0.104v0.113h0.103v0.113h0.104v0.113h0.103v0.113h0.104v0.113h0.104v0.113h0.103v0.114h0.104
			v0.113h0.103v0.113h0.104v0.113h0.103v0.114h0.104v0.113h1.722c2.343,0,4.407,0.205,6.23,0.598
			c0.071,0.708,0.119,1.436,0.119,2.211v5.881c0,5.174-2.621,7.691-8.437,8.041l-0.11-1.08l-0.091,0.006l-0.013-0.119l-0.091,0.006
			l-0.012-0.119l-0.091,0.006l-0.013-0.119l-0.091,0.006l-0.012-0.12l-0.092,0.007l-0.012-0.12l-0.091,0.007l-0.013-0.12
			l-0.091,0.007l-0.012-0.121l-0.091,0.007l-0.013-0.12l-0.091,0.007l-0.012-0.12l-0.091,0.007l-0.013-0.12l-0.091,0.007
			l-0.012-0.12l-0.092,0.006l-0.012-0.119l-0.091,0.006l-0.013-0.119l-0.091,0.006l-0.012-0.119l-0.091,0.006l-0.013-0.119
			l-0.091,0.006l-0.012-0.119l-0.091,0.006l-0.013-0.119l-0.091,0.006l-0.013-0.119l-0.091,0.006l-0.012-0.12l-0.091,0.007
			l-0.013-0.12l-0.091,0.007l-0.012-0.12l-0.091,0.007l-0.013-0.12l-0.091,0.006l-0.012-0.12l-0.091,0.007l-0.013-0.12l-0.091,0.007
			l-0.013-0.12l-0.091,0.007l-0.012-0.12l-0.091,0.006l-0.013-0.119l-0.091,0.006l-0.012-0.119l-0.091,0.006l-0.013-0.119
			l-0.091,0.006l-0.012-0.119l-0.091,0.006l-0.013-0.119l-0.091,0.006l-0.013-0.119l-0.091,0.006l-0.012-0.119l-0.091,0.006
			l-0.013-0.12l-0.091,0.007l-0.012-0.12l-0.091,0.007l-0.013-0.12l-0.091,0.007l-0.012-0.12l-0.091,0.007l-0.013-0.121
			l-0.091,0.007l-0.013-0.12l-0.091,0.007l-0.012-0.12l-0.091,0.007l-0.013-0.12l-0.091,0.006l-0.012-0.119l-0.091,0.006
			l-0.013-0.119l-0.091,0.006l-0.012-0.119l-0.091,0.006l-0.013-0.119l-0.091,0.006l-0.013-0.119l-0.091,0.006l-0.012-0.119
			l-0.091,0.006l-0.013-0.119L180.478,272l-0.012-0.119l-0.091,0.006l-0.013-0.12l-0.091,0.007l-0.012-0.12l-0.092,0.007
			l-0.012-0.12l-0.091,0.007l-0.013-0.121l-0.091,0.007l-0.012-0.12l-0.091,0.007l-0.013-0.12l-0.091,0.007l-0.012-0.12
			l-0.091,0.007l-0.013-0.12l-0.091,0.006l-0.012-0.119l-0.092,0.006l-0.012-0.119l-0.091,0.006l-0.013-0.119l-0.091,0.006
			l-0.012-0.119l-0.091,0.006l-0.013-0.119l-0.091,0.006l-0.012-0.119l-0.091,0.006l-0.013-0.119l-0.091,0.006l-0.013-0.12
			l-0.09,0.007l-0.013-0.12l-0.091,0.007l-0.013-0.12l-0.091,0.007l-0.012-0.12l-0.091,0.006l-0.013-0.12l-0.091,0.007l-0.012-0.12
			l-0.091,0.007l-0.013-0.12l-0.091,0.007l-0.012-0.12l-0.092,0.006l-0.012-0.119l-0.091,0.006l-0.013-0.119l-0.091,0.006
			l-0.012-0.119l-0.091,0.006l-0.013-0.119l-0.091,0.006l-0.012-0.119l-0.091,0.006l-0.013-0.119l-0.091,0.006l-0.013-0.119
			l-0.091,0.006l-0.012-0.12l-0.091,0.007l-0.013-0.12l-0.091,0.007l-0.012-0.12l-0.091,0.007l-0.013-0.12l-0.091,0.006l-0.012-0.12
			l-0.091,0.007l-0.013-0.12l-0.091,0.007l-0.013-0.12l-0.091,0.007l-0.012-0.12l-0.091,0.006l-0.013-0.119l-0.091,0.006
			l-0.012-0.119l-0.091,0.006l-0.013-0.119l-0.091,0.006l-0.012-0.119l-0.091,0.006l-0.013-0.119l-0.091,0.006l-0.013-0.119
			l-0.091,0.006l-0.012-0.119l-0.091,0.006l-0.013-0.119l-0.091,0.006l-0.012-0.12l-0.091,0.007l-0.013-0.12l-19.386,1.341v3.884
			c0,6.064,2.146,11.435,6.382,15.999c0.034,0.037,0.068,0.075,0.103,0.113c0.035,0.037,0.068,0.074,0.103,0.112
			c0.035,0.038,0.069,0.076,0.104,0.114c0.035,0.037,0.069,0.076,0.104,0.113c0.034,0.038,0.067,0.076,0.103,0.113
			c0.034,0.037,0.068,0.076,0.103,0.113c0.035,0.037,0.068,0.076,0.104,0.113c0.034,0.037,0.068,0.076,0.103,0.113
			c0.035,0.038,0.069,0.076,0.104,0.114c0.034,0.038,0.067,0.075,0.103,0.112c0.034,0.038,0.067,0.076,0.103,0.113
			c0.034,0.038,0.068,0.076,0.103,0.113c0.035,0.038,0.068,0.076,0.104,0.114s0.068,0.075,0.104,0.113
			c0.034,0.038,0.068,0.076,0.104,0.114c0.034,0.037,0.067,0.075,0.103,0.113c0.034,0.037,0.068,0.075,0.104,0.113
			c0.034,0.037,0.067,0.075,0.103,0.113c0.035,0.037,0.068,0.075,0.104,0.113c0.034,0.037,0.067,0.076,0.103,0.113
			s0.068,0.076,0.104,0.113c0.034,0.038,0.067,0.076,0.102,0.113c0.035,0.037,0.068,0.076,0.103,0.113
			c0.035,0.037,0.069,0.076,0.104,0.113c0.034,0.038,0.067,0.076,0.103,0.113c0.035,0.039,0.068,0.076,0.104,0.115
			c0.035,0.037,0.068,0.074,0.103,0.112c0.035,0.038,0.068,0.075,0.104,0.113c0.034,0.038,0.068,0.075,0.103,0.113
			c0.035,0.038,0.068,0.075,0.104,0.113c0.034,0.038,0.068,0.075,0.104,0.114c0.034,0.037,0.068,0.076,0.104,0.113
			c0.034,0.037,0.067,0.075,0.102,0.112c0.035,0.038,0.068,0.076,0.104,0.114c0.035,0.037,0.068,0.076,0.104,0.113
			c0.034,0.037,0.068,0.076,0.103,0.113c0.035,0.038,0.069,0.076,0.104,0.114c0.034,0.037,0.067,0.075,0.103,0.112
			c0.034,0.038,0.067,0.076,0.103,0.113c0.035,0.038,0.068,0.076,0.104,0.113c0.034,0.038,0.068,0.076,0.103,0.113
			c0.035,0.038,0.068,0.076,0.104,0.113c0.034,0.039,0.068,0.076,0.104,0.114c0.034,0.038,0.067,0.075,0.103,0.113
			s0.068,0.075,0.104,0.113c0.034,0.038,0.067,0.076,0.103,0.114c0.035,0.037,0.068,0.075,0.104,0.113
			c0.034,0.037,0.068,0.075,0.103,0.113c0.035,0.037,0.069,0.076,0.104,0.113c0.034,0.038,0.067,0.076,0.103,0.113
			c0.034,0.037,0.067,0.076,0.103,0.113c0.034,0.037,0.068,0.076,0.104,0.113c0.034,0.037,0.067,0.076,0.103,0.113
			c0.035,0.038,0.068,0.076,0.104,0.113c0.034,0.038,0.068,0.076,0.103,0.113c0.035,0.038,0.068,0.076,0.104,0.113
			c0.034,0.038,0.068,0.076,0.103,0.113c0.035,0.039,0.068,0.076,0.104,0.114c0.034,0.038,0.068,0.075,0.104,0.113
			c0.034,0.038,0.068,0.076,0.104,0.114c0.034,0.037,0.067,0.075,0.103,0.112c0.034,0.038,0.068,0.076,0.103,0.114
			c0.035,0.037,0.068,0.075,0.104,0.113c0.034,0.037,0.067,0.075,0.103,0.112c0.035,0.038,0.069,0.077,0.104,0.114
			c0.034,0.038,0.067,0.076,0.103,0.113c0.034,0.037,0.067,0.076,0.103,0.113s0.068,0.076,0.104,0.113
			c0.034,0.038,0.068,0.076,0.103,0.113c0.035,0.038,0.068,0.076,0.104,0.113c0.035,0.038,0.068,0.076,0.104,0.115
			c0.034,0.037,0.068,0.074,0.103,0.111c0.034,0.039,0.068,0.076,0.104,0.114c0.034,0.037,0.067,0.075,0.103,0.112
			c0.034,0.038,0.068,0.076,0.104,0.114c0.034,0.038,0.068,0.075,0.103,0.114c0.035,0.037,0.069,0.076,0.104,0.113
			c0.034,0.037,0.067,0.075,0.103,0.113c0.034,0.037,0.067,0.075,0.103,0.113c0.035,0.037,0.068,0.075,0.104,0.113
			c0.034,0.037,0.068,0.076,0.103,0.113c0.035,0.037,0.069,0.076,0.104,0.113c0.034,0.038,0.067,0.076,0.102,0.113
			c0.035,0.037,0.068,0.076,0.104,0.113c0.034,0.037,0.068,0.076,0.103,0.113c0.035,0.037,0.068,0.076,0.104,0.113
			c0.035,0.038,0.068,0.076,0.104,0.113c0.034,0.039,0.068,0.076,0.104,0.115c0.034,0.037,0.067,0.074,0.103,0.112
			c0.034,0.038,0.068,0.075,0.103,0.113c0.035,0.038,0.068,0.075,0.104,0.113c0.034,0.038,0.068,0.076,0.104,0.114
			c0.034,0.037,0.068,0.076,0.104,0.113c0.034,0.037,0.067,0.076,0.103,0.113c0.034,0.037,0.067,0.075,0.103,0.112
			c0.034,0.038,0.068,0.076,0.104,0.114c0.622,0.678,1.288,1.339,2.002,1.98c5.5,4.949,12.293,7.457,20.191,7.457
			c8.055,0,15.045-2.442,20.771-7.256c6.002-5.002,9.045-11.481,9.045-19.261v-7.878
			C224.419,269.66,223.638,266.248,222.103,263.459z M188.722,229.043c0-2.655,0.549-4.811,1.625-6.397
			c1.006-1.462,2.431-2.361,4.322-2.724c-0.111,4.532-1.396,8.104-3.86,10.613c-0.609,0.637-1.314,1.19-2.087,1.687V229.043z"/>
		<path fill="#FFFCF2" d="M212.102,252.458c-2.459-4.562-5.835-8.181-10.057-10.784c1.641-1.119,3.136-2.395,4.465-3.813
			c4.416-4.771,6.655-10.506,6.655-17.048v-4.218c0-6.775-2.313-12.526-6.877-17.091c-5.091-5.094-11.935-7.676-20.343-7.676
			c-8.86,0-15.845,2.763-20.753,8.206c-4.291,4.714-6.467,10.874-6.467,18.311v3.84h19.995v-4.143c0-2.656,0.549-4.813,1.625-6.398
			c1.346-1.956,3.44-2.906,6.404-2.906c5.492,0,7.941,2.542,7.941,8.244v2.305c0,4.842-1.302,8.621-3.883,11.248
			c-2.744,2.86-7.149,4.311-13.095,4.311h-1.722v15.939h1.722c11.155,0,16.351,4.389,16.351,13.811v5.881
			c0,5.594-3.056,8.088-9.909,8.088c-2.344,0-4.182-0.631-5.616-1.93c-1.483-1.342-2.305-3.037-2.51-5.192l-0.513-5.006
			l-19.386,1.341v3.884c0,6.913,2.786,12.923,8.28,17.866c5.5,4.948,12.294,7.457,20.191,7.457c8.055,0,15.045-2.443,20.771-7.257
			c6.002-5.001,9.044-11.481,9.044-19.261v-7.878C214.418,258.659,213.637,255.247,212.102,252.458z"/>
		<linearGradient id="SVGID_1_" gradientUnits="userSpaceOnUse" x1="137.2954" y1="203.2832" x2="236.3633" y2="288.1986">
			<stop  offset="0.2335" style="stop-color:#FFDE68"/>
			<stop  offset="0.2385" style="stop-color:#FFF394"/>
			<stop  offset="0.4374" style="stop-color:#FFF394"/>
			<stop  offset="0.4403" style="stop-color:#FFDE68"/>
			<stop  offset="0.6921" style="stop-color:#FFDE68"/>
			<stop  offset="0.6928" style="stop-color:#FFF394"/>
			<stop  offset="0.7723" style="stop-color:#FFF394"/>
			<stop  offset="0.7724" style="stop-color:#FFDE68"/>
		</linearGradient>
		<path fill="url(#SVGID_1_)" d="M184.604,293.984c-7.136,0-13.254-2.25-18.186-6.688c-4.836-4.35-7.287-9.61-7.287-15.636v-1.085
			l13.697-0.947l0.217,2.119c0.272,2.869,1.445,5.27,3.481,7.111c1.985,1.795,4.552,2.705,7.63,2.705
			c5.889,0,12.909-1.924,12.909-11.088v-5.881c0-10.777-6.078-16.422-18.072-16.79v-9.981c6.161-0.21,10.86-1.961,13.98-5.211
			c3.122-3.179,4.718-7.67,4.718-13.326v-2.305c0-9.294-5.95-11.244-10.941-11.244c-3.97,0-6.956,1.414-8.876,4.206
			c-1.433,2.112-2.153,4.831-2.153,8.099v1.143h-13.995v-0.84c0-6.666,1.913-12.146,5.686-16.291
			c4.327-4.798,10.56-7.226,18.534-7.226c7.583,0,13.714,2.286,18.222,6.797c3.98,3.981,5.998,9.019,5.998,14.97v4.218
			c0,5.761-1.971,10.812-5.856,15.009c-1.161,1.239-2.496,2.379-3.954,3.373l-3.818,2.605l3.934,2.427
			c3.765,2.322,6.79,5.57,8.991,9.653c1.303,2.367,1.957,5.289,1.957,8.708v7.878c0,6.848-2.68,12.553-7.964,16.956
			C198.271,291.779,191.933,293.984,184.604,293.984z"/>
		<g>
			<path fill="#EDAB07" d="M205.354,248.195c-1.454-1.525-3.082-2.855-4.885-3.968l-2.639-1.628l-0.295,0.201l3.934,2.427
				C202.868,246.09,204.164,247.082,205.354,248.195z"/>
			<path fill="#EDAB07" d="M177.526,279.859c1.985,1.795,4.552,2.705,7.63,2.705c5.889,0,12.909-1.924,12.909-11.088v-5.881
				c0-5.508-1.599-9.667-4.752-12.475c2.487,2.764,3.752,6.585,3.752,11.475v5.881c0,9.164-7.021,11.088-12.909,11.088
				c-3.015,0-5.534-0.878-7.502-2.6C176.927,279.275,177.213,279.576,177.526,279.859z"/>
			<path fill="#EDAB07" d="M160.131,272.661v-1.085l12.806-0.885l-0.108-1.063l-13.697,0.947v1.085
				c0,5.792,2.271,10.874,6.742,15.123C162.063,282.745,160.131,278.005,160.131,272.661z"/>
			<path fill="#EDAB07" d="M168.411,203.055c4.327-4.798,10.56-7.226,18.534-7.226c7.315,0,13.264,2.149,17.723,6.349
				c-0.171-0.183-0.323-0.373-0.501-0.552c-4.508-4.511-10.639-6.797-18.222-6.797c-7.975,0-14.207,2.428-18.534,7.226
				c-3.772,4.145-5.686,9.625-5.686,16.291v0.84h1.006C162.763,212.594,164.67,207.164,168.411,203.055z"/>
			<path fill="#EDAB07" d="M195.297,209.057c1.446,1.712,2.395,4.232,2.395,7.926v2.305c0,5.656-1.596,10.147-4.718,13.326
				c-3.12,3.25-7.819,5.001-13.98,5.211v9.981c0.344,0.011,0.666,0.041,1,0.06v-9.041c6.161-0.21,10.86-1.961,13.98-5.211
				c3.122-3.179,4.718-7.67,4.718-13.326v-2.305C198.691,213.492,197.296,210.727,195.297,209.057z"/>
		</g>
	</g>
	<g>
		<path fill="#254B62" d="M277.485,212.153c-0.035-0.038-0.068-0.076-0.104-0.114c-0.034-0.037-0.067-0.075-0.103-0.112
			c-0.034-0.038-0.068-0.076-0.104-0.113c-0.034-0.038-0.068-0.076-0.103-0.114c-0.035-0.037-0.068-0.075-0.104-0.113
			c-0.034-0.037-0.068-0.075-0.104-0.113c-0.034-0.038-0.068-0.076-0.104-0.114c-0.034-0.037-0.067-0.075-0.103-0.112
			c-0.034-0.038-0.068-0.076-0.103-0.113c-0.035-0.038-0.068-0.076-0.104-0.113c-0.034-0.038-0.068-0.076-0.103-0.114
			c-0.035-0.037-0.068-0.075-0.104-0.113c-0.034-0.037-0.068-0.075-0.104-0.113c-0.034-0.037-0.067-0.075-0.103-0.113
			c-0.035-0.037-0.068-0.076-0.104-0.113c-0.034-0.038-0.068-0.076-0.103-0.113c-0.035-0.038-0.068-0.076-0.104-0.113
			c-0.034-0.038-0.068-0.076-0.104-0.114c-0.034-0.037-0.068-0.075-0.103-0.113c-0.034-0.037-0.068-0.075-0.104-0.113
			c-0.034-0.037-0.067-0.075-0.103-0.113c-0.035-0.037-0.068-0.075-0.104-0.113c-0.034-0.037-0.067-0.075-0.103-0.112
			c-0.034-0.039-0.068-0.077-0.104-0.115c-0.035-0.037-0.068-0.075-0.103-0.112c-0.035-0.038-0.068-0.076-0.104-0.113
			c-0.035-0.038-0.068-0.076-0.104-0.114c-0.034-0.037-0.067-0.075-0.103-0.113s-0.068-0.076-0.104-0.113
			c-0.034-0.038-0.068-0.076-0.103-0.113c-0.035-0.038-0.068-0.076-0.104-0.113c-0.034-0.038-0.068-0.076-0.103-0.113
			c-0.035-0.038-0.068-0.075-0.103-0.113c-0.035-0.038-0.069-0.076-0.104-0.114c-0.034-0.037-0.068-0.076-0.104-0.113
			c-0.034-0.038-0.067-0.075-0.103-0.113c-0.034-0.037-0.068-0.075-0.103-0.113c-0.035-0.038-0.068-0.076-0.104-0.113
			c-0.034-0.038-0.068-0.076-0.103-0.113c-0.035-0.038-0.068-0.076-0.104-0.113c-0.035-0.038-0.068-0.076-0.104-0.114
			c-0.034-0.037-0.068-0.075-0.103-0.113c-0.035-0.037-0.068-0.075-0.104-0.113c-0.034-0.037-0.067-0.075-0.103-0.112
			c-0.034-0.038-0.068-0.076-0.104-0.114s-0.068-0.076-0.104-0.114c-0.034-0.037-0.068-0.075-0.103-0.112
			c-0.034-0.038-0.068-0.076-0.104-0.113c-0.034-0.038-0.067-0.076-0.103-0.113c-0.035-0.038-0.068-0.076-0.104-0.114
			c-0.034-0.037-0.068-0.075-0.103-0.113c-0.035-0.038-0.069-0.076-0.104-0.113c-0.034-0.038-0.067-0.076-0.102-0.113
			c-0.035-0.037-0.068-0.075-0.104-0.113c-0.034-0.037-0.068-0.076-0.104-0.113c-0.034-0.038-0.068-0.076-0.103-0.113
			c-0.035-0.038-0.068-0.076-0.104-0.114s-0.068-0.075-0.103-0.113c-0.035-0.037-0.068-0.075-0.104-0.113
			c-0.034-0.037-0.068-0.075-0.104-0.113c-0.034-0.038-0.067-0.075-0.103-0.113s-0.068-0.076-0.104-0.113
			c-0.034-0.038-0.068-0.076-0.104-0.114c-0.034-0.037-0.067-0.075-0.103-0.112c-0.034-0.038-0.067-0.076-0.103-0.113
			c-0.034-0.038-0.068-0.076-0.104-0.114c-0.034-0.037-0.068-0.075-0.104-0.113c-0.034-0.037-0.067-0.075-0.103-0.113
			s-0.068-0.076-0.104-0.114c-0.034-0.037-0.068-0.075-0.103-0.112c-0.035-0.038-0.068-0.076-0.104-0.113
			c-0.034-0.038-0.068-0.076-0.103-0.113c-0.035-0.038-0.068-0.076-0.104-0.114s-0.068-0.076-0.104-0.113
			c-0.034-0.038-0.067-0.075-0.103-0.112c-0.034-0.038-0.068-0.076-0.104-0.114c-0.034-0.038-0.068-0.076-0.103-0.113
			c-0.035-0.038-0.068-0.076-0.104-0.113c-0.034-0.038-0.068-0.076-0.103-0.113c-0.035-0.038-0.069-0.076-0.104-0.114
			c-0.034-0.037-0.067-0.075-0.103-0.113c-0.034-0.037-0.067-0.075-0.103-0.113c-0.035-0.037-0.068-0.075-0.104-0.113
			c-0.034-0.038-0.068-0.076-0.103-0.113c-0.035-0.038-0.068-0.076-0.104-0.113c-0.034-0.038-0.068-0.076-0.103-0.113
			c-0.035-0.038-0.068-0.076-0.104-0.114c-0.034-0.037-0.068-0.075-0.104-0.113c-0.034-0.037-0.068-0.075-0.103-0.113
			c-0.035-0.037-0.068-0.075-0.104-0.113c-0.034-0.038-0.068-0.076-0.104-0.114c-0.034-0.037-0.067-0.075-0.103-0.112
			c-0.034-0.038-0.068-0.076-0.103-0.113c-0.035-0.038-0.068-0.076-0.104-0.113c-0.034-0.038-0.068-0.076-0.104-0.113
			c-0.034-0.038-0.067-0.076-0.103-0.113c-0.622-0.679-1.287-1.34-2.001-1.981c-5.501-4.948-12.294-7.457-20.19-7.457
			c-7.834,0-14.624,2.492-20.181,7.408c-5.563,4.919-8.382,10.973-8.382,17.995v54.429c0,6.109,2.155,11.494,6.412,16.042
			c0.035,0.038,0.068,0.076,0.104,0.114c0.034,0.037,0.067,0.075,0.103,0.112c0.035,0.038,0.068,0.076,0.104,0.114
			c0.034,0.037,0.067,0.075,0.103,0.113c0.035,0.037,0.068,0.075,0.104,0.113c0.034,0.037,0.067,0.075,0.103,0.113
			s0.068,0.076,0.104,0.114c0.035,0.037,0.067,0.075,0.103,0.112s0.068,0.076,0.104,0.113c0.035,0.038,0.068,0.076,0.104,0.114
			c0.034,0.037,0.067,0.075,0.103,0.113c0.035,0.037,0.068,0.075,0.104,0.113s0.068,0.076,0.104,0.114
			c0.034,0.037,0.067,0.075,0.103,0.112c0.034,0.038,0.067,0.076,0.103,0.113c0.035,0.038,0.068,0.076,0.104,0.113
			c0.035,0.038,0.067,0.076,0.103,0.113c0.035,0.038,0.069,0.077,0.104,0.114c0.034,0.037,0.067,0.075,0.102,0.112
			c0.035,0.038,0.068,0.076,0.104,0.114c0.035,0.037,0.068,0.076,0.104,0.113c0.034,0.038,0.067,0.076,0.103,0.113
			c0.035,0.038,0.068,0.076,0.104,0.113c0.035,0.038,0.068,0.076,0.104,0.114c0.035,0.037,0.067,0.075,0.103,0.113
			c0.035,0.037,0.068,0.075,0.104,0.113c0.034,0.037,0.067,0.075,0.103,0.113c0.035,0.037,0.068,0.075,0.104,0.113
			c0.034,0.037,0.068,0.076,0.103,0.113c0.035,0.038,0.068,0.076,0.104,0.113c0.035,0.038,0.068,0.076,0.104,0.113
			c0.034,0.038,0.067,0.076,0.103,0.113c0.035,0.038,0.068,0.076,0.104,0.114c0.034,0.037,0.067,0.075,0.103,0.113
			c0.035,0.037,0.068,0.076,0.104,0.113c0.034,0.038,0.067,0.076,0.102,0.113c0.035,0.037,0.068,0.076,0.104,0.113
			c0.035,0.038,0.068,0.076,0.104,0.113c0.034,0.038,0.067,0.076,0.103,0.113c0.035,0.038,0.067,0.075,0.103,0.113
			s0.069,0.076,0.104,0.114c0.034,0.038,0.067,0.076,0.103,0.113c0.034,0.037,0.067,0.076,0.103,0.113s0.068,0.076,0.104,0.113
			s0.068,0.076,0.104,0.113c0.034,0.038,0.068,0.076,0.104,0.114c0.034,0.037,0.067,0.075,0.103,0.112
			c0.034,0.038,0.067,0.076,0.103,0.113c0.035,0.038,0.068,0.076,0.104,0.113c0.034,0.038,0.067,0.076,0.103,0.113
			c0.035,0.038,0.068,0.076,0.104,0.114s0.068,0.076,0.104,0.114c0.035,0.037,0.068,0.075,0.103,0.112
			c0.035,0.038,0.068,0.076,0.104,0.113c0.034,0.038,0.067,0.076,0.103,0.113c0.035,0.038,0.068,0.076,0.104,0.114
			c0.035,0.037,0.068,0.076,0.104,0.113c0.034,0.038,0.067,0.076,0.103,0.113s0.068,0.075,0.104,0.113
			c0.034,0.037,0.067,0.075,0.103,0.112c0.034,0.038,0.068,0.077,0.104,0.114c0.034,0.038,0.067,0.076,0.103,0.113
			c0.035,0.038,0.068,0.077,0.104,0.114c0.034,0.037,0.067,0.075,0.102,0.113c0.035,0.037,0.068,0.075,0.104,0.113
			c0.035,0.037,0.068,0.075,0.104,0.113c0.034,0.037,0.067,0.076,0.103,0.113c0.035,0.038,0.068,0.076,0.104,0.113
			c0.035,0.038,0.068,0.076,0.104,0.114c0.034,0.037,0.067,0.075,0.103,0.112c0.034,0.038,0.067,0.076,0.103,0.113
			c0.035,0.038,0.068,0.076,0.104,0.114c0.035,0.037,0.068,0.076,0.104,0.113c0.034,0.038,0.068,0.076,0.104,0.114
			c0.034,0.037,0.067,0.075,0.103,0.112c0.034,0.037,0.067,0.076,0.103,0.113c0.035,0.038,0.068,0.076,0.104,0.113
			c0.035,0.038,0.067,0.076,0.103,0.113c0.035,0.038,0.068,0.076,0.104,0.113c0.035,0.038,0.068,0.077,0.104,0.114
			s0.067,0.075,0.103,0.112c0.035,0.038,0.068,0.076,0.104,0.114c0.034,0.037,0.067,0.076,0.103,0.113
			c0.035,0.038,0.068,0.076,0.104,0.113c0.035,0.038,0.068,0.076,0.104,0.114c0.035,0.037,0.067,0.075,0.103,0.112
			c0.035,0.038,0.068,0.076,0.104,0.114c0.034,0.037,0.067,0.075,0.103,0.113c0.035,0.037,0.068,0.075,0.104,0.113
			c0.034,0.037,0.067,0.076,0.103,0.113c0.035,0.038,0.068,0.076,0.104,0.113c0.035,0.038,0.068,0.076,0.104,0.113
			c0.034,0.038,0.067,0.076,0.103,0.113c0.035,0.038,0.068,0.076,0.104,0.114c0.034,0.037,0.067,0.075,0.103,0.113
			c0.035,0.037,0.068,0.075,0.104,0.113c0.629,0.68,1.302,1.342,2.023,1.983c5.528,4.917,12.334,7.411,20.229,7.411
			c7.771,0,14.53-2.479,20.089-7.365c5.563-4.894,8.384-10.936,8.384-17.958v-54.43
			C283.869,222.121,281.724,216.725,277.485,212.153z M246.919,227.913c0-1.986,0.761-3.639,2.323-5.053
			c1.07-0.967,2.277-1.583,3.647-1.88v50.44c0,1.983-0.772,3.633-2.358,5.045c-1.07,0.951-2.266,1.565-3.612,1.869V227.913z"/>
		<path fill="#FFFCF2" d="M236.919,216.912c0-1.986,0.76-3.639,2.322-5.052c1.558-1.406,3.396-2.09,5.618-2.09
			c2.228,0,4.083,0.687,5.671,2.097c1.587,1.414,2.359,3.064,2.359,5.045v54.509c0,1.983-0.772,3.633-2.358,5.045
			c-1.587,1.411-3.442,2.098-5.672,2.098c-2.225,0-4.062-0.684-5.618-2.09c-1.563-1.411-2.322-3.064-2.322-5.053V216.912z
			 M265.587,199.285c-5.501-4.948-12.294-7.457-20.19-7.457c-7.834,0-14.624,2.492-20.181,7.408
			c-5.563,4.919-8.382,10.973-8.382,17.995v54.429c0,6.969,2.804,12.995,8.333,17.912c5.527,4.917,12.333,7.411,20.229,7.411
			c7.771,0,14.529-2.478,20.088-7.365c5.563-4.893,8.385-10.936,8.385-17.958v-54.429
			C273.869,210.267,271.083,204.229,265.587,199.285z"/>
		<linearGradient id="SVGID_2_" gradientUnits="userSpaceOnUse" x1="211.96" y1="217.1704" x2="272.543" y2="266.5804">
			<stop  offset="0.2335" style="stop-color:#FFDE68"/>
			<stop  offset="0.2385" style="stop-color:#FFF394"/>
			<stop  offset="0.4374" style="stop-color:#FFF394"/>
			<stop  offset="0.4403" style="stop-color:#FFDE68"/>
			<stop  offset="0.6921" style="stop-color:#FFDE68"/>
			<stop  offset="0.6928" style="stop-color:#FFF394"/>
			<stop  offset="0.7723" style="stop-color:#FFF394"/>
			<stop  offset="0.7724" style="stop-color:#FFDE68"/>
		</linearGradient>
		<path fill="url(#SVGID_2_)" d="M245.396,293.983c-7.138,0-13.273-2.238-18.235-6.652c-4.862-4.324-7.327-9.596-7.327-15.671
			v-54.429c0-6.125,2.479-11.424,7.369-15.748c4.992-4.416,11.113-6.655,18.193-6.655c7.134,0,13.252,2.25,18.184,6.688
			c4.837,4.35,7.289,9.638,7.289,15.716v54.429c0,6.123-2.479,11.407-7.366,15.705C258.509,291.757,252.417,293.983,245.396,293.983
			z M244.859,206.771c-2.958,0-5.524,0.963-7.629,2.863c-2.198,1.988-3.312,4.437-3.312,7.278v54.509
			c0,2.846,1.114,5.295,3.312,7.279c2.104,1.899,4.67,2.863,7.629,2.863c2.955,0,5.534-0.961,7.665-2.855
			c2.233-1.989,3.365-4.44,3.365-7.287v-54.509c0-2.845-1.132-5.296-3.363-7.285C250.391,207.73,247.813,206.771,244.859,206.771z"
			/>
		<g>
			<path fill="#EDAB07" d="M220.834,272.66v-54.429c0-6.125,2.479-11.424,7.369-15.748c4.992-4.416,11.113-6.655,18.193-6.655
				c7.134,0,13.252,2.25,18.184,6.688c0.186,0.167,0.36,0.337,0.538,0.507c-0.483-0.514-0.993-1.017-1.538-1.507
				c-4.932-4.438-11.05-6.688-18.184-6.688c-7.08,0-13.201,2.239-18.193,6.655c-4.89,4.324-7.369,9.623-7.369,15.748v54.429
				c0,5.791,2.245,10.85,6.666,15.056C222.739,282.716,220.834,277.999,220.834,272.66z"/>
			<path fill="#EDAB07" d="M238.23,279.7c2.104,1.899,4.67,2.863,7.629,2.863c2.955,0,5.534-0.961,7.665-2.855
				c2.233-1.989,3.365-4.44,3.365-7.287v-54.509c0-2.845-1.132-5.296-3.363-7.285c-0.02-0.018-0.041-0.032-0.061-0.049
				c1.604,1.803,2.424,3.926,2.424,6.334v54.509c0,2.847-1.132,5.298-3.365,7.287c-2.131,1.895-4.71,2.855-7.665,2.855
				c-2.912,0-5.441-0.938-7.526-2.778C237.611,279.1,237.905,279.406,238.23,279.7z"/>
		</g>
	</g>
	<g>
		<path fill="#254B62" d="M336.485,212.153c-0.035-0.038-0.068-0.076-0.104-0.114c-0.034-0.037-0.067-0.075-0.103-0.112
			c-0.034-0.038-0.068-0.076-0.104-0.113c-0.034-0.038-0.068-0.076-0.103-0.114c-0.035-0.037-0.068-0.075-0.104-0.113
			c-0.034-0.037-0.068-0.075-0.104-0.113c-0.034-0.038-0.068-0.076-0.104-0.114c-0.034-0.037-0.067-0.075-0.103-0.112
			c-0.034-0.038-0.068-0.076-0.103-0.113c-0.035-0.038-0.068-0.076-0.104-0.113c-0.034-0.038-0.068-0.076-0.103-0.114
			c-0.035-0.037-0.068-0.075-0.104-0.113c-0.034-0.037-0.068-0.075-0.104-0.113c-0.034-0.037-0.067-0.075-0.103-0.113
			c-0.035-0.037-0.068-0.076-0.104-0.113c-0.034-0.038-0.068-0.076-0.103-0.113c-0.035-0.038-0.068-0.076-0.104-0.113
			c-0.034-0.038-0.068-0.076-0.104-0.114c-0.034-0.037-0.068-0.075-0.103-0.113c-0.034-0.037-0.068-0.075-0.104-0.113
			c-0.034-0.037-0.067-0.075-0.103-0.113c-0.035-0.037-0.068-0.075-0.104-0.113c-0.034-0.037-0.067-0.075-0.103-0.112
			c-0.034-0.039-0.068-0.077-0.104-0.115c-0.035-0.037-0.068-0.075-0.103-0.112c-0.035-0.038-0.068-0.076-0.104-0.113
			c-0.035-0.038-0.068-0.076-0.104-0.114c-0.034-0.037-0.067-0.075-0.103-0.113s-0.068-0.076-0.104-0.113
			c-0.034-0.038-0.068-0.076-0.103-0.113c-0.035-0.038-0.068-0.076-0.104-0.113c-0.034-0.038-0.068-0.076-0.103-0.113
			c-0.035-0.038-0.068-0.075-0.103-0.113c-0.035-0.038-0.069-0.076-0.104-0.114c-0.034-0.037-0.068-0.076-0.104-0.113
			c-0.034-0.038-0.067-0.075-0.103-0.113c-0.034-0.037-0.068-0.075-0.103-0.113c-0.035-0.038-0.068-0.076-0.104-0.113
			c-0.034-0.038-0.068-0.076-0.103-0.113c-0.035-0.038-0.068-0.076-0.104-0.113c-0.035-0.038-0.068-0.076-0.104-0.114
			c-0.034-0.037-0.068-0.075-0.103-0.113c-0.035-0.037-0.068-0.075-0.104-0.113c-0.034-0.037-0.067-0.075-0.103-0.112
			c-0.034-0.038-0.068-0.076-0.104-0.114s-0.068-0.076-0.104-0.114c-0.034-0.037-0.068-0.075-0.103-0.112
			c-0.034-0.038-0.068-0.076-0.104-0.113c-0.034-0.038-0.067-0.076-0.103-0.113c-0.035-0.038-0.068-0.076-0.104-0.114
			c-0.034-0.037-0.068-0.075-0.103-0.113c-0.035-0.038-0.069-0.076-0.104-0.113c-0.034-0.038-0.067-0.076-0.102-0.113
			c-0.035-0.037-0.068-0.075-0.104-0.113c-0.034-0.037-0.068-0.076-0.104-0.113c-0.034-0.038-0.068-0.076-0.103-0.113
			c-0.035-0.038-0.068-0.076-0.104-0.114s-0.068-0.075-0.103-0.113c-0.035-0.037-0.068-0.075-0.104-0.113
			c-0.034-0.037-0.068-0.075-0.104-0.113c-0.034-0.038-0.067-0.075-0.103-0.113s-0.068-0.076-0.104-0.113
			c-0.034-0.038-0.068-0.076-0.104-0.114c-0.034-0.037-0.067-0.075-0.103-0.112c-0.034-0.038-0.067-0.076-0.103-0.113
			c-0.034-0.038-0.068-0.076-0.104-0.114c-0.034-0.037-0.068-0.075-0.104-0.113c-0.034-0.037-0.067-0.075-0.103-0.113
			s-0.068-0.076-0.104-0.114c-0.034-0.037-0.068-0.075-0.103-0.112c-0.035-0.038-0.068-0.076-0.104-0.113
			c-0.034-0.038-0.068-0.076-0.103-0.113c-0.035-0.038-0.068-0.076-0.104-0.114s-0.068-0.076-0.104-0.113
			c-0.034-0.038-0.067-0.075-0.103-0.112c-0.034-0.038-0.068-0.076-0.104-0.114c-0.034-0.038-0.068-0.076-0.103-0.113
			c-0.035-0.038-0.068-0.076-0.104-0.113c-0.034-0.038-0.068-0.076-0.103-0.113c-0.035-0.038-0.069-0.076-0.104-0.114
			c-0.034-0.037-0.067-0.075-0.103-0.113c-0.034-0.037-0.067-0.075-0.103-0.113c-0.035-0.037-0.068-0.075-0.104-0.113
			c-0.034-0.038-0.068-0.076-0.103-0.113c-0.035-0.038-0.068-0.076-0.104-0.113c-0.034-0.038-0.068-0.076-0.103-0.113
			c-0.035-0.038-0.068-0.076-0.104-0.114c-0.034-0.037-0.068-0.075-0.104-0.113c-0.034-0.037-0.068-0.075-0.103-0.113
			c-0.035-0.037-0.068-0.075-0.104-0.113c-0.034-0.038-0.068-0.076-0.104-0.114c-0.034-0.037-0.067-0.075-0.103-0.112
			c-0.034-0.038-0.068-0.076-0.103-0.113c-0.035-0.038-0.068-0.076-0.104-0.113c-0.034-0.038-0.068-0.076-0.104-0.113
			c-0.034-0.038-0.067-0.076-0.103-0.113c-0.622-0.679-1.287-1.34-2.001-1.981c-5.501-4.948-12.294-7.457-20.19-7.457
			c-7.834,0-14.624,2.492-20.181,7.408c-5.563,4.919-8.382,10.973-8.382,17.995v54.429c0,6.109,2.155,11.494,6.412,16.042
			c0.035,0.038,0.068,0.076,0.104,0.114c0.034,0.037,0.067,0.075,0.103,0.112c0.035,0.038,0.068,0.076,0.104,0.114
			c0.034,0.037,0.067,0.075,0.103,0.113c0.035,0.037,0.068,0.075,0.104,0.113c0.034,0.037,0.067,0.075,0.103,0.113
			s0.068,0.076,0.104,0.114c0.035,0.037,0.067,0.075,0.103,0.112s0.068,0.076,0.104,0.113c0.035,0.038,0.068,0.076,0.104,0.114
			c0.034,0.037,0.067,0.075,0.103,0.113c0.035,0.037,0.068,0.075,0.104,0.113s0.068,0.076,0.104,0.114
			c0.034,0.037,0.067,0.075,0.103,0.112c0.034,0.038,0.067,0.076,0.103,0.113c0.035,0.038,0.068,0.076,0.104,0.113
			c0.035,0.038,0.067,0.076,0.103,0.113c0.035,0.038,0.069,0.077,0.104,0.114c0.034,0.037,0.067,0.075,0.102,0.112
			c0.035,0.038,0.068,0.076,0.104,0.114c0.035,0.037,0.068,0.076,0.104,0.113c0.034,0.038,0.067,0.076,0.103,0.113
			c0.035,0.038,0.068,0.076,0.104,0.113c0.035,0.038,0.068,0.076,0.104,0.114c0.035,0.037,0.067,0.075,0.103,0.113
			c0.035,0.037,0.068,0.075,0.104,0.113c0.034,0.037,0.067,0.075,0.103,0.113c0.035,0.037,0.068,0.075,0.104,0.113
			c0.034,0.037,0.068,0.076,0.103,0.113c0.035,0.038,0.068,0.076,0.104,0.113c0.035,0.038,0.068,0.076,0.104,0.113
			c0.034,0.038,0.067,0.076,0.103,0.113c0.035,0.038,0.068,0.076,0.104,0.114c0.034,0.037,0.067,0.075,0.103,0.113
			c0.035,0.037,0.068,0.076,0.104,0.113c0.034,0.038,0.067,0.076,0.102,0.113c0.035,0.037,0.068,0.076,0.104,0.113
			c0.035,0.038,0.068,0.076,0.104,0.113c0.034,0.038,0.067,0.076,0.103,0.113c0.035,0.038,0.067,0.075,0.103,0.113
			s0.069,0.076,0.104,0.114c0.034,0.038,0.067,0.076,0.103,0.113c0.034,0.037,0.067,0.076,0.103,0.113s0.068,0.076,0.104,0.113
			s0.068,0.076,0.104,0.113c0.034,0.038,0.068,0.076,0.104,0.114c0.034,0.037,0.067,0.075,0.103,0.112
			c0.034,0.038,0.067,0.076,0.103,0.113c0.035,0.038,0.068,0.076,0.104,0.113c0.034,0.038,0.067,0.076,0.103,0.113
			c0.035,0.038,0.068,0.076,0.104,0.114s0.068,0.076,0.104,0.114c0.035,0.037,0.068,0.075,0.103,0.112
			c0.035,0.038,0.068,0.076,0.104,0.113c0.034,0.038,0.067,0.076,0.103,0.113c0.035,0.038,0.068,0.076,0.104,0.114
			c0.035,0.037,0.068,0.076,0.104,0.113c0.034,0.038,0.067,0.076,0.103,0.113s0.068,0.075,0.104,0.113
			c0.034,0.037,0.067,0.075,0.103,0.112c0.034,0.038,0.068,0.077,0.104,0.114c0.034,0.038,0.067,0.076,0.103,0.113
			c0.035,0.038,0.068,0.077,0.104,0.114c0.034,0.037,0.067,0.075,0.102,0.113c0.035,0.037,0.068,0.075,0.104,0.113
			c0.035,0.037,0.068,0.075,0.104,0.113c0.034,0.037,0.067,0.076,0.103,0.113c0.035,0.038,0.068,0.076,0.104,0.113
			c0.035,0.038,0.068,0.076,0.104,0.114c0.034,0.037,0.067,0.075,0.103,0.112c0.034,0.038,0.067,0.076,0.103,0.113
			c0.035,0.038,0.068,0.076,0.104,0.114c0.035,0.037,0.068,0.076,0.104,0.113c0.034,0.038,0.068,0.076,0.104,0.114
			c0.034,0.037,0.067,0.075,0.103,0.112c0.034,0.037,0.067,0.076,0.103,0.113c0.035,0.038,0.068,0.076,0.104,0.113
			c0.035,0.038,0.067,0.076,0.103,0.113c0.035,0.038,0.068,0.076,0.104,0.113c0.035,0.038,0.068,0.077,0.104,0.114
			s0.067,0.075,0.103,0.112c0.035,0.038,0.068,0.076,0.104,0.114c0.034,0.037,0.067,0.076,0.103,0.113
			c0.035,0.038,0.068,0.076,0.104,0.113c0.035,0.038,0.068,0.076,0.104,0.114c0.035,0.037,0.067,0.075,0.103,0.112
			c0.035,0.038,0.068,0.076,0.104,0.114c0.034,0.037,0.067,0.075,0.103,0.113c0.035,0.037,0.068,0.075,0.104,0.113
			c0.034,0.037,0.067,0.076,0.103,0.113c0.035,0.038,0.068,0.076,0.104,0.113c0.035,0.038,0.068,0.076,0.104,0.113
			c0.034,0.038,0.067,0.076,0.103,0.113c0.035,0.038,0.068,0.076,0.104,0.114c0.034,0.037,0.067,0.075,0.103,0.113
			c0.035,0.037,0.068,0.075,0.104,0.113c0.629,0.68,1.302,1.342,2.023,1.983c5.528,4.917,12.334,7.411,20.229,7.411
			c7.771,0,14.53-2.479,20.089-7.365c5.563-4.894,8.384-10.936,8.384-17.958v-54.43
			C342.869,222.121,340.724,216.725,336.485,212.153z M305.919,227.913c0-1.986,0.761-3.639,2.323-5.053
			c1.07-0.967,2.277-1.583,3.647-1.88v50.44c0,1.983-0.772,3.633-2.358,5.045c-1.07,0.951-2.266,1.565-3.612,1.869V227.913z"/>
		<path fill="#FFFCF2" d="M295.919,216.912c0-1.986,0.76-3.639,2.322-5.052c1.558-1.406,3.396-2.09,5.618-2.09
			c2.228,0,4.083,0.687,5.671,2.097c1.587,1.414,2.359,3.064,2.359,5.045v54.509c0,1.983-0.772,3.633-2.358,5.045
			c-1.587,1.411-3.442,2.098-5.672,2.098c-2.225,0-4.062-0.684-5.618-2.09c-1.563-1.411-2.322-3.064-2.322-5.053V216.912z
			 M324.587,199.285c-5.501-4.948-12.294-7.457-20.19-7.457c-7.834,0-14.624,2.492-20.181,7.408
			c-5.563,4.919-8.382,10.973-8.382,17.995v54.429c0,6.969,2.804,12.995,8.333,17.912c5.527,4.917,12.333,7.411,20.229,7.411
			c7.771,0,14.529-2.478,20.088-7.365c5.563-4.893,8.385-10.936,8.385-17.958v-54.429
			C332.869,210.267,330.083,204.229,324.587,199.285z"/>
		<linearGradient id="SVGID_3_" gradientUnits="userSpaceOnUse" x1="270.9609" y1="217.1709" x2="331.544" y2="266.5809">
			<stop  offset="0.2335" style="stop-color:#FFDE68"/>
			<stop  offset="0.2385" style="stop-color:#FFF394"/>
			<stop  offset="0.4374" style="stop-color:#FFF394"/>
			<stop  offset="0.4403" style="stop-color:#FFDE68"/>
			<stop  offset="0.6921" style="stop-color:#FFDE68"/>
			<stop  offset="0.6928" style="stop-color:#FFF394"/>
			<stop  offset="0.7723" style="stop-color:#FFF394"/>
			<stop  offset="0.7724" style="stop-color:#FFDE68"/>
		</linearGradient>
		<path fill="url(#SVGID_3_)" d="M304.396,293.983c-7.138,0-13.273-2.238-18.235-6.652c-4.862-4.324-7.327-9.596-7.327-15.671
			v-54.429c0-6.125,2.479-11.424,7.369-15.748c4.992-4.416,11.113-6.655,18.193-6.655c7.134,0,13.252,2.25,18.184,6.688
			c4.837,4.35,7.289,9.638,7.289,15.716v54.429c0,6.123-2.479,11.407-7.366,15.705C317.509,291.757,311.417,293.983,304.396,293.983
			z M303.859,206.771c-2.958,0-5.524,0.963-7.629,2.863c-2.198,1.988-3.312,4.437-3.312,7.278v54.509
			c0,2.846,1.114,5.295,3.312,7.279c2.104,1.899,4.67,2.863,7.629,2.863c2.955,0,5.534-0.961,7.665-2.855
			c2.233-1.989,3.365-4.44,3.365-7.287v-54.509c0-2.845-1.132-5.296-3.363-7.285C309.391,207.73,306.813,206.771,303.859,206.771z"
			/>
		<g>
			<path fill="#EDAB07" d="M279.834,272.66v-54.429c0-6.125,2.479-11.424,7.369-15.748c4.992-4.416,11.113-6.655,18.193-6.655
				c7.134,0,13.252,2.25,18.184,6.688c0.186,0.167,0.36,0.337,0.538,0.507c-0.483-0.514-0.993-1.017-1.538-1.507
				c-4.932-4.438-11.05-6.688-18.184-6.688c-7.08,0-13.201,2.239-18.193,6.655c-4.89,4.324-7.369,9.623-7.369,15.748v54.429
				c0,5.791,2.245,10.85,6.666,15.056C281.739,282.716,279.834,277.999,279.834,272.66z"/>
			<path fill="#EDAB07" d="M297.23,279.7c2.104,1.899,4.67,2.863,7.629,2.863c2.955,0,5.534-0.961,7.665-2.855
				c2.233-1.989,3.365-4.44,3.365-7.287v-54.509c0-2.845-1.132-5.296-3.363-7.285c-0.02-0.018-0.041-0.032-0.061-0.049
				c1.604,1.803,2.424,3.926,2.424,6.334v54.509c0,2.847-1.132,5.298-3.365,7.287c-2.131,1.895-4.71,2.855-7.665,2.855
				c-2.912,0-5.441-0.938-7.526-2.778C296.611,279.1,296.905,279.406,297.23,279.7z"/>
		</g>
	</g>
</g>
<g>
</g>
<g>
</g>
<g>
</g>
<g>
</g>
<g>
</g>
<g>
</g>
<g>
</g>
<g>
</g>
<g>
</g>
<g>
</g>
<g>
</g>
<g>
</g>
<g>
</g>
<g>
</g>
<g>
</g>
</svg>
