<?xml version="1.0" encoding="utf-8"?>
<!-- Generator: Adobe Illustrator 16.0.0, SVG Export Plug-In . SVG Version: 6.00 Build 0)  -->
<!DOCTYPE svg PUBLIC "-//W3C//DTD SVG 1.1//EN" "http://www.w3.org/Graphics/SVG/1.1/DTD/svg11.dtd">
<svg version="1.1" id="Layer_1" xmlns="http://www.w3.org/2000/svg" xmlns:xlink="http://www.w3.org/1999/xlink" x="0px" y="0px"
	 width="500px" height="500px" viewBox="0 0 500 500" enable-background="new 0 0 500 500" xml:space="preserve">
<path fill-rule="evenodd" clip-rule="evenodd" fill="#20D6DD" d="M250,1C112.474,1,1,112.479,1,250c0,137.517,111.474,249,249,249
	c137.517,0,249-111.483,249-249C499,112.479,387.517,1,250,1z M254.978,389.443c-14.818,0-26.948-12.102-26.948-26.901h53.906
	C281.936,377.342,269.807,389.443,254.978,389.443z M369.522,349.106H140.438v-13.455l26.944-26.882v-73.96
	c0-41.681,28.307-75.295,67.385-84.712v-9.412c0-10.751,9.436-20.164,20.211-20.164c10.776,0,20.216,9.412,20.216,20.164v9.412
	c39.078,9.417,67.371,43.031,67.371,84.712v73.96l26.958,26.882V349.106z"/>
<g>
</g>
<g>
</g>
<g>
</g>
<g>
</g>
<g>
</g>
<g>
</g>
<g>
</g>
<g>
</g>
<g>
</g>
<g>
</g>
<g>
</g>
<g>
</g>
<g>
</g>
<g>
</g>
<g>
</g>
</svg>
