<?xml version="1.0" encoding="utf-8"?>
<!-- Generator: Adobe Illustrator 16.0.0, SVG Export Plug-In . SVG Version: 6.00 Build 0)  -->
<!DOCTYPE svg PUBLIC "-//W3C//DTD SVG 1.1//EN" "http://www.w3.org/Graphics/SVG/1.1/DTD/svg11.dtd">
<svg version="1.1" id="Layer_1" xmlns="http://www.w3.org/2000/svg" xmlns:xlink="http://www.w3.org/1999/xlink" x="0px" y="0px"
	 width="500px" height="500px" viewBox="0 0 500 500" enable-background="new 0 0 500 500" xml:space="preserve">
<g>
	<g>
		<path fill="#FFFFFF" d="M495.294,240.409c-4.455-4.902-111.375-119.896-245.296-119.896
			c-133.922,0-240.822,114.993-245.277,119.896c-4.961,5.467-4.961,13.716,0,19.182c4.455,4.902,111.375,119.896,245.277,119.896
			c133.921,0,240.841-114.993,245.296-119.896C500.235,254.125,500.235,245.876,495.294,240.409z M249.998,350.714
			c-56.3,0-102.114-45.192-102.114-100.714c0-55.522,45.814-100.714,102.114-100.714c56.32,0,102.134,45.192,102.134,100.714
			C352.132,305.521,306.317,350.714,249.998,350.714z M264.589,221.228c0-14.474,7.295-27.216,18.383-35.037
			c-9.96-5.02-21.049-8.132-32.974-8.132c-40.211,0-72.933,32.274-72.933,71.941s32.722,71.941,72.933,71.941
			c36.009,0,65.814-25.933,71.708-59.821C292.329,271.458,264.589,249.533,264.589,221.228z"/>
	</g>
</g>
<g>
</g>
<g>
</g>
<g>
</g>
<g>
</g>
<g>
</g>
<g>
</g>
<g>
</g>
<g>
</g>
<g>
</g>
<g>
</g>
<g>
</g>
<g>
</g>
<g>
</g>
<g>
</g>
<g>
</g>
</svg>
