<?xml version="1.0" encoding="utf-8"?>
<!-- Generator: Adobe Illustrator 16.0.0, SVG Export Plug-In . SVG Version: 6.00 Build 0)  -->
<!DOCTYPE svg PUBLIC "-//W3C//DTD SVG 1.1//EN" "http://www.w3.org/Graphics/SVG/1.1/DTD/svg11.dtd">
<svg version="1.1" id="Layer_1" xmlns="http://www.w3.org/2000/svg" xmlns:xlink="http://www.w3.org/1999/xlink" x="0px" y="0px"
	 width="500px" height="500px" viewBox="0 0 500 500" enable-background="new 0 0 500 500" xml:space="preserve">
<path fill="#FFFFFF" d="M122.705,318.086c10.974,0,19.897,8.711,19.897,19.453l0,0c0,10.742-8.923,19.453-19.897,19.453
	s-19.897-8.711-19.897-19.453l0,0C102.808,326.797,111.731,318.086,122.705,318.086z M177.406,337.539L177.406,337.539
	c0,10.742,8.902,19.453,19.876,19.453c10.995,0,19.897-8.711,19.897-19.453l0,0c0-10.742-8.902-19.453-19.897-19.453
	C186.309,318.086,177.406,326.797,177.406,337.539z M215.171,479.547c0,10.742-8.881,19.453-19.876,19.453H90.882
	c-43.854,0-79.546-34.91-79.546-77.813V261.672c0-42.902,35.692-77.813,79.546-77.813h23.83v-68.615
	C114.712,52.255,168.251,1,234.032,1c65.802,0,119.341,51.255,119.341,114.245v68.615h23.893c43.876,0,79.547,34.91,79.547,77.813
	v20.426c0,10.742-8.881,19.453-19.876,19.453c-10.974,0-19.876-8.711-19.876-19.453v-20.426c0-21.441-17.846-38.906-39.795-38.906
	H90.882c-21.927,0-39.773,17.465-39.773,38.906v159.516c0,21.462,17.846,38.906,39.773,38.906h104.413
	C206.29,460.094,215.171,468.805,215.171,479.547z M154.486,183.859H313.6v-68.615c0-41.549-35.672-75.338-79.568-75.338
	c-43.854,0-79.546,33.789-79.546,75.338V183.859L154.486,183.859z M484.047,415.838c-0.719,0.973-3.108,4.293-4.588,6.111
	c-6.661,8.203-22.266,27.382-43.961,44.318C407.693,487.984,379.063,499,350.434,499c-28.65,0-57.26-11.016-85.086-32.732
	c-21.695-16.937-37.3-36.115-43.96-44.318c-1.48-1.818-3.869-5.139-4.567-6.111c-4.821-6.703-4.821-15.668,0-22.371
	c0.698-0.973,3.087-4.293,4.588-6.132c6.639-8.183,22.244-27.361,43.939-44.298c27.826-21.716,56.436-32.732,85.086-32.732
	c28.63,0,57.26,11.017,85.064,32.732c21.695,16.937,37.3,36.115,43.939,44.298c1.501,1.839,3.891,5.159,4.609,6.132
	C488.867,400.17,488.867,409.135,484.047,415.838z M442.561,404.652c-31.632-36.791-62.609-55.441-92.127-55.441
	c-29.539,0-60.495,18.65-92.127,55.441c31.632,36.792,62.588,55.441,92.127,55.441S410.929,441.444,442.561,404.652z
	 M351.428,367.691c-20.891,0-37.807,16.535-37.807,36.961c0,20.404,16.916,36.961,37.807,36.961
	c20.848,0,37.785-16.557,37.785-36.961C389.213,384.227,372.275,367.691,351.428,367.691z"/>
<g>
</g>
<g>
</g>
<g>
</g>
<g>
</g>
<g>
</g>
<g>
</g>
<g>
</g>
<g>
</g>
<g>
</g>
<g>
</g>
<g>
</g>
<g>
</g>
<g>
</g>
<g>
</g>
<g>
</g>
</svg>
