<?xml version="1.0" encoding="utf-8"?>
<!-- Generator: Adobe Illustrator 16.0.0, SVG Export Plug-In . SVG Version: 6.00 Build 0)  -->
<!DOCTYPE svg PUBLIC "-//W3C//DTD SVG 1.1//EN" "http://www.w3.org/Graphics/SVG/1.1/DTD/svg11.dtd">
<svg version="1.1" id="Layer_1" xmlns="http://www.w3.org/2000/svg" xmlns:xlink="http://www.w3.org/1999/xlink" x="0px" y="0px"
	 width="500px" height="500px" viewBox="0 0 500 500" enable-background="new 0 0 500 500" xml:space="preserve">
<path fill="#142A46" d="M432.914,187.75h-32.279v-41.5C400.635,66.168,333.072,1,250,1C166.946,1,99.374,66.168,99.374,146.25v41.5
	H67.096c-5.944,0-10.762,4.647-10.762,10.375V457.5c0,22.875,19.3,41.5,43.04,41.5h301.261c23.723,0,43.031-18.625,43.031-41.5
	V198.125C443.666,192.397,438.857,187.75,432.914,187.75z M275.434,345.627l6.771,58.846c0.344,2.936-0.629,5.871-2.666,8.068
	c-2.053,2.197-4.971,3.459-8.033,3.459h-43.021c-3.062,0-5.98-1.262-8.024-3.459c-2.036-2.197-3.008-5.133-2.675-8.068l6.791-58.846
	c-11.023-7.729-17.616-19.958-17.616-33.377c0-22.894,19.3-41.5,43.04-41.5c23.74,0,43.048,18.606,43.048,41.5
	C293.049,325.669,286.457,337.898,275.434,345.627z M336.063,187.75H163.929v-41.5c0-45.769,38.609-83,86.071-83
	s86.062,37.231,86.062,83V187.75z"/>
<g>
</g>
<g>
</g>
<g>
</g>
<g>
</g>
<g>
</g>
<g>
</g>
<g>
</g>
<g>
</g>
<g>
</g>
<g>
</g>
<g>
</g>
<g>
</g>
<g>
</g>
<g>
</g>
<g>
</g>
</svg>
