<?xml version="1.0" encoding="utf-8"?>
<!-- Generator: Adobe Illustrator 16.0.0, SVG Export Plug-In . SVG Version: 6.00 Build 0)  -->
<!DOCTYPE svg PUBLIC "-//W3C//DTD SVG 1.1//EN" "http://www.w3.org/Graphics/SVG/1.1/DTD/svg11.dtd">
<svg version="1.1" id="Layer_1" xmlns="http://www.w3.org/2000/svg" xmlns:xlink="http://www.w3.org/1999/xlink" x="0px" y="0px"
	 width="500px" height="500px" viewBox="0 0 500 500" enable-background="new 0 0 500 500" xml:space="preserve">
<path fill-rule="evenodd" clip-rule="evenodd" fill="#20D6DD" d="M250,1C112.481,1,1,112.481,1,250c0,137.514,111.481,249,249,249
	c137.514,0,249-111.486,249-249C499,112.481,387.514,1,250,1z M382.32,273.159H178.738l45.088,44.022
	c9.25,9.025,9.25,23.723,0,32.749c-4.475,4.377-10.437,6.779-16.773,6.779c-6.337,0-12.295-2.402-16.774-6.779L104.69,266.38
	c-9.245-9.031-9.245-23.724,0-32.76l85.584-83.551c4.469-4.372,10.432-6.784,16.773-6.784c6.341,0,12.294,2.412,16.778,6.784
	c9.25,9.036,9.25,23.723,0,32.754l-45.088,44.018H382.32c13.072,0,23.723,10.388,23.723,23.159
	C406.043,262.771,395.393,273.159,382.32,273.159z"/>
<g>
</g>
<g>
</g>
<g>
</g>
<g>
</g>
<g>
</g>
<g>
</g>
<g>
</g>
<g>
</g>
<g>
</g>
<g>
</g>
<g>
</g>
<g>
</g>
<g>
</g>
<g>
</g>
<g>
</g>
</svg>
