<?xml version="1.0" encoding="utf-8"?>
<!-- Generator: Adobe Illustrator 16.0.0, SVG Export Plug-In . SVG Version: 6.00 Build 0)  -->
<!DOCTYPE svg PUBLIC "-//W3C//DTD SVG 1.1//EN" "http://www.w3.org/Graphics/SVG/1.1/DTD/svg11.dtd">
<svg version="1.1" id="Layer_1" xmlns="http://www.w3.org/2000/svg" xmlns:xlink="http://www.w3.org/1999/xlink" x="0px" y="0px"
	 width="500px" height="500px" viewBox="0 0 500 500" enable-background="new 0 0 500 500" xml:space="preserve">
<path fill="#515961" d="M484.41,229.004h-19.552c-2.762-20.11-11.394-36.101-25.764-47.666
	c-16.715-13.446-41.043-20.267-72.301-20.267H133.206c-31.258,0-55.583,6.82-72.301,20.267
	c-14.373,11.565-23.002,27.556-25.764,47.666H15.59c-8.059,0-14.59,6.632-14.59,14.821c0,8.184,6.531,14.824,14.59,14.824h19.189
	c1.945,23.089,8.589,41.535,19.858,54.921c14.153,16.824,34.909,25.358,61.677,25.358c26.132,0,54.625-12.35,78.187-33.893
	c19.273-17.606,31.93-38.386,36.162-58.741h38.674c4.232,20.355,16.895,41.135,36.162,58.741
	c23.559,21.543,52.055,33.893,78.184,33.893c26.771,0,47.521-8.534,61.683-25.358c11.267-13.386,17.913-31.832,19.858-54.921h19.187
	c8.059,0,14.59-6.641,14.59-14.824C499,235.636,492.469,229.004,484.41,229.004L484.41,229.004z M269.742,216.652h-39.491
	c-2.597-9.469-7.706-18.246-15.087-25.938h69.678C277.454,198.406,272.348,207.183,269.742,216.652L269.742,216.652z
	 M269.742,216.652"/>
<g>
</g>
<g>
</g>
<g>
</g>
<g>
</g>
<g>
</g>
<g>
</g>
<g>
</g>
<g>
</g>
<g>
</g>
<g>
</g>
<g>
</g>
<g>
</g>
<g>
</g>
<g>
</g>
<g>
</g>
</svg>
