<?xml version="1.0" encoding="utf-8"?>
<!-- Generator: Adobe Illustrator 16.0.0, SVG Export Plug-In . SVG Version: 6.00 Build 0)  -->
<!DOCTYPE svg PUBLIC "-//W3C//DTD SVG 1.1//EN" "http://www.w3.org/Graphics/SVG/1.1/DTD/svg11.dtd">
<svg version="1.1" id="Layer_1" xmlns="http://www.w3.org/2000/svg" xmlns:xlink="http://www.w3.org/1999/xlink" x="0px" y="0px"
	 width="500px" height="500px" viewBox="0 0 500 500" enable-background="new 0 0 500 500" xml:space="preserve">
<g>
	<g>
		<path fill="#364C61" d="M281.119,359.618h31.125v-93.96h-31.125V359.618z M492.057,111.691L398.68,49.051
			c-2.551-1.721-5.538-2.631-8.621-2.631h-55.807l-26.55-26.748c-2.928-2.911-6.878-4.571-11.021-4.571h-93.377
			c-4.139,0-8.093,1.661-11.018,4.571l-26.55,26.748h-55.809c-3.081,0-6.07,0.911-8.621,2.631L7.93,111.691
			c-5.852,3.916-8.341,11.274-6.134,17.978l31.126,93.96c1.402,4.29,4.639,7.767,8.811,9.52c4.168,1.723,8.869,1.567,12.915-0.468
			l39.717-19.982v256.543c0,8.644,6.971,15.658,15.562,15.658h280.131c8.589,0,15.563-7.015,15.563-15.658V212.698l39.717,19.982
			c4.047,2.035,8.686,2.191,12.915,0.468c4.175-1.752,7.378-5.23,8.81-9.52l31.128-93.96
			C500.43,122.966,497.911,115.607,492.057,111.691z M209.748,46.419h80.492l14.287,14.376l-54.532,43.878l-54.534-43.878
			L209.748,46.419z M218.869,375.277c0,8.643-6.974,15.662-15.564,15.662c-8.589,0-15.563-7.02-15.563-15.662V265.658H172.18
			c-8.591,0-15.564-7.015-15.564-15.658c0-8.676,6.974-15.658,15.564-15.658h31.125c8.591,0,15.564,7.015,15.564,15.658V375.277z
			 M343.373,375.277c0,8.643-6.974,15.662-15.563,15.662h-62.258c-8.588,0-15.558-7.02-15.558-15.662V250
			c0-8.644,6.97-15.658,15.558-15.658h62.258c8.589,0,15.563,7.015,15.563,15.658V375.277z"/>
	</g>
</g>
<g>
</g>
<g>
</g>
<g>
</g>
<g>
</g>
<g>
</g>
<g>
</g>
<g>
</g>
<g>
</g>
<g>
</g>
<g>
</g>
<g>
</g>
<g>
</g>
<g>
</g>
<g>
</g>
<g>
</g>
</svg>
