<?xml version="1.0" encoding="utf-8"?>
<!-- Generator: Adobe Illustrator 16.0.0, SVG Export Plug-In . SVG Version: 6.00 Build 0)  -->
<!DOCTYPE svg PUBLIC "-//W3C//DTD SVG 1.1//EN" "http://www.w3.org/Graphics/SVG/1.1/DTD/svg11.dtd">
<svg version="1.1" id="Layer_1" xmlns="http://www.w3.org/2000/svg" xmlns:xlink="http://www.w3.org/1999/xlink" x="0px" y="0px"
	 width="500px" height="500px" viewBox="0 0 500 500" enable-background="new 0 0 500 500" xml:space="preserve">
<g>
	<g>
		<path fill="#515961" d="M313.131,36.569h-18.548v44.466c0,14.732-11.982,26.681-26.748,26.681H250
			c-4.922,0-8.917-3.983-8.917-8.896v-62.25h-54.214c-3.974,27.268-25.448,48.683-52.783,52.649V499h80.911l26.086-338.619
			c0.364-4.62,4.234-8.201,8.892-8.201c4.654,0,8.527,3.581,8.889,8.201L284.999,499h80.915V89.218
			C338.579,85.252,317.105,63.837,313.131,36.569z M241.083,1H134.086v17.785h106.997V1z M168.858,36.569h-34.772v34.685
			C151.586,67.656,165.253,54.022,168.858,36.569z M294.583,1v17.785h71.331V1H294.583z M365.914,71.253V36.569h-34.772
			C334.738,54.022,348.423,67.656,365.914,71.253z M276.748,1h-17.826v17.785h17.826V1z M276.748,81.035V36.569h-17.826v53.362
			h8.913C272.757,89.931,276.748,85.948,276.748,81.035z"/>
	</g>
</g>
<g>
</g>
<g>
</g>
<g>
</g>
<g>
</g>
<g>
</g>
<g>
</g>
<g>
</g>
<g>
</g>
<g>
</g>
<g>
</g>
<g>
</g>
<g>
</g>
<g>
</g>
<g>
</g>
<g>
</g>
</svg>
