<?xml version="1.0" encoding="utf-8"?>
<!-- Generator: Adobe Illustrator 16.0.0, SVG Export Plug-In . SVG Version: 6.00 Build 0)  -->
<!DOCTYPE svg PUBLIC "-//W3C//DTD SVG 1.1//EN" "http://www.w3.org/Graphics/SVG/1.1/DTD/svg11.dtd">
<svg version="1.1" id="Layer_1" xmlns="http://www.w3.org/2000/svg" xmlns:xlink="http://www.w3.org/1999/xlink" x="0px" y="0px"
	 width="1893px" height="554px" viewBox="0 0 1893 554" enable-background="new 0 0 1893 554" xml:space="preserve">
<polygon fill="#142A46" points="1653.97,188.745 1653.97,340.27 1626.416,187.48 1492.109,181.313 1465.51,320.808 1465.51,180.092 
	1243.662,169.902 1243.662,194.961 1173.652,177.9 1172.392,172.552 1188.063,113.96 1166.837,77.299 1156.501,74.517 
	1152.327,68.438 1135.128,62.617 1136.063,48.794 1102.458,54.493 1108.037,29.192 1045.783,67.709 1031.535,58.213 
	1024.799,124.106 1026.238,126.52 1022.623,144.051 1023.925,157.467 1024.408,170.688 821.262,180.014 821.262,237.812 
	758.428,182.903 593.189,190.491 593.189,239.863 543.23,192.784 447.423,197.185 400.787,246.548 356.143,201.38 269.305,205.368 
	229.844,249.844 191.977,208.918 112.425,212.574 70.376,262.858 70.376,352.776 70.627,353.071 70.376,353.068 70.376,429.484 
	112.425,479.768 191.977,483.424 229.844,442.499 269.305,486.975 356.143,490.966 400.789,445.794 447.423,495.157 543.23,499.558 
	593.189,452.479 593.189,501.851 1150.148,529.701 1387.835,515.816 1387.835,413.505 1447.997,412.641 1428.681,513.945 
	1850.081,494.588 1850.081,197.754 "/>
<path fill="#00FFFF" d="M175.179,241.692l-50.193,2.019l-24.411,29.106v63.212l24.411,28.191l37.486,0.32v35.997l-25.156-0.577
	v-14.199l-36.741-0.636v28.125l24.411,29.106l50.193,2.018l25.914-28.236v-65.833l-25.914-29.032l-37.863,0.325v-35.654l25.156-0.58
	v14.492l38.621-0.666v-29.26L175.179,241.692z M121.988,450.672l-28.703-34.34v-39.666l32.431,0.447l-32.431-37.774v-69.744
	l28.703-34.197l56.317-2.457l30.622,33.171v41.695l-34.506,0.476l34.506,38.474v73.053l-30.622,33.315L121.988,450.672
	 M180.568,227.03l-60.736,2.789L88.503,267.28v74.667l25.104,29.34l-25.104-0.29v47.79l31.328,37.465l60.736,2.788l33.626-36.338
	V344.18l-27.208-30.261l27.208-0.313v-50.238L180.568,227.03"/>
<path fill="#00FFFF" d="M339.034,235.104l-56.856,2.288l-27.581,31.002v149.28l27.581,31.003l56.856,2.288l29.434-30.021v-46.728
	l-43.842-0.503v30.544l-28.495-0.653V282.291l28.495-0.656v30.7l43.842-0.506v-46.704L339.034,235.104z M278.789,457.513
	l-32.426-36.58V264.984l32.426-36.428l63.792-2.781l34.766,35.267v59.996l-52.721,0.427v42.965l52.721,0.427v60.018l-34.766,35.426
	L278.789,457.513 M345.147,219.47l-68.8,3.16l-35.404,39.905v161.001l35.404,39.904l68.8,3.157l38.188-38.629v-69.325l-52.93-0.3
	v-30.77l52.93-0.307v-69.164L345.147,219.47"/>
<path fill="#00FFFF" d="M476.676,407.745V278.139l32.528-0.747V408.49L476.676,407.745z M525.675,227.601l-64.917,2.611
	l-31.46,33.168v159.31l31.46,33.168l64.917,2.611l33.702-32.045V259.645L525.675,227.601 M456.87,465.281l-36.946-39.13V259.756
	l36.946-38.97l72.89-3.177l39.787,37.645v175.396l-39.787,37.813L456.87,465.281 M532.672,210.855l-78.585,3.611l-40.333,42.689
	v171.759l40.333,42.688l78.585,3.611l43.762-41.239V252.092L532.672,210.855"/>
<path fill="#00FFFF" d="M683.694,316.881v-43.502l37.504-0.864v44.043L683.694,316.881z M740.219,218.972l-111.043,4.467v239.188
	l54.519,2.196V369.01l37.504,0.325v96.996l57.977,2.331V368.071l-27.28-25.036l27.28-25.245v-64.458L740.219,218.972
	 M618.405,472.33V213.738l126.528-5.519l46.016,40.362v73.525l-22.698,20.929l22.698,20.926v115.896L618.405,472.33
	 M748.327,200.952l-137.01,6.292v271.582l187.605,8.617V360.656l-19.348-17.621l19.348-17.805v-80.067L748.327,200.952"/>
<path fill="#00FFFF" d="M1012.152,208.039l-152.066,6.113v257.764l152.066,6.113v-58.007l-88.664-2.033v-46.921l88.664,0.761
	v-57.783l-88.664,0.766v-46.948l88.664-2.041V208.039z M847.581,482.328V203.74l178.204-7.772v81.29l-89.409,1.744v24.454
	l89.409-1.083v81.294l-89.409-1.078v24.478l89.409,1.746v81.294L847.581,482.328 M1034.967,187.787l-195.58,8.983v292.531
	l195.58,8.983v-97.072l-89.857-1.551v-9.393l89.857,1.289v-97.044l-89.857,1.288v-9.426l89.857-1.545V187.787"/>
<path fill="#00FFFF" d="M1423.01,214.287l-140.076-5.633v268.76l61.459-2.471V371.17l78.617-0.673v-55.108l-78.617-0.68v-47.12
	l78.617,1.809V214.287z M1270.244,489.395V196.677l164.136,7.161v76.94l-78.051-1.525v24.355l78.051,0.94v76.947l-78.051,0.938
	v103.204L1270.244,489.395 M1441.988,196.844l-180.199-8.278v308.938l102.525-4.713V389.844l77.674-1.118V297.34l-77.674-1.108
	v-9.345l77.674,1.338V196.844"/>
<path fill="#00FFFF" d="M1543.854,378.438l13.122-76.7l13.01,76.4L1543.854,378.438z M1591.81,221.074l-70.455-2.832
	l-47.492,251.492l54.669-2.196l6.113-35.781l44.34-1.271l5.916,34.789l50.939-2.054L1591.81,221.074 M1460.367,481.103
	l51.979-273.863l87.992,3.837l47.521,261.844l-71.573,3.119l-5.974-34.861l-26.788,0.859l-6.08,35.699L1460.367,481.103
	 M1606.172,204.383l-99.686-4.578l-55.105,288.99l92.143-4.23l6.051-35.644l14.764-0.509l5.974,34.92l85.452-3.925L1606.172,204.383
	"/>
<path fill="#00FFFF" d="M1811.9,229.926l-45.05-1.812v91.827l-30.911-93.071l-47.531-1.91v236.147l47.531-1.909v-93.011
	l30.911,91.768l45.047-1.811L1811.9,229.926z M1757.574,262.942v-45.006l63.126,2.754v244.688l-60.271,2.633l-15.229-44.706v45.367
	l-66.589,2.905V214.493l63.858,2.785L1757.574,262.942 M1826.56,214.506l-154.466-7.096v271.248l154.466-7.095V214.506"/>
<defs>
	<filter id="Adobe_OpacityMaskFilter" filterUnits="userSpaceOnUse" x="88.503" y="187.787" width="1738.056" height="310.498">
		<feColorMatrix  type="matrix" values="1 0 0 0 0  0 1 0 0 0  0 0 1 0 0  0 0 0 1 0"/>
	</filter>
</defs>
<mask maskUnits="userSpaceOnUse" x="88.503" y="187.787" width="1738.056" height="310.498" id="SVGID_1_">
	<g filter="url(#Adobe_OpacityMaskFilter)">
		<rect x="88.502" y="187.787" width="1738.058" height="310.495"/>
		<g enable-background="new    ">
			<g>
				<defs>
					<rect id="SVGID_2_" x="88.502" y="187.787" width="1738.058" height="310.495"/>
				</defs>
				<clipPath id="SVGID_3_">
					<use xlink:href="#SVGID_2_"  overflow="visible"/>
				</clipPath>
				<polygon clip-path="url(#SVGID_3_)" fill="#FFFFFF" points="55.334,342.054 1139.307,343.3 1876.01,330.076 1873.549,496.929 
					1127.711,522.7 55.334,474.804 				"/>
			</g>
		</g>
	</g>
</mask>
<g mask="url(#SVGID_1_)">
	<path fill="#29ABE2" d="M175.179,241.692l-50.193,2.019l-24.411,29.106v63.212l24.411,28.191l37.486,0.32v35.997l-25.156-0.577
		v-14.199l-36.741-0.636v28.125l24.411,29.106l50.193,2.018l25.914-28.236v-65.833l-25.914-29.032l-37.863,0.325v-35.654
		l25.156-0.58v14.492l38.621-0.666v-29.26L175.179,241.692z M121.988,450.672l-28.703-34.34v-39.666l32.431,0.447l-32.431-37.774
		v-69.744l28.703-34.197l56.317-2.457l30.622,33.171v41.695l-34.506,0.476l34.506,38.474v73.053l-30.622,33.315L121.988,450.672
		 M180.568,227.03l-60.736,2.789L88.503,267.28v74.667l25.104,29.34l-25.104-0.29v47.79l31.328,37.465l60.736,2.788l33.626-36.338
		V344.18l-27.208-30.261l27.208-0.313v-50.238L180.568,227.03"/>
	<path fill="#29ABE2" d="M339.034,235.104l-56.856,2.288l-27.581,31.002v149.28l27.581,31.003l56.856,2.288l29.434-30.021v-46.728
		l-43.842-0.503v30.544l-28.495-0.653V282.291l28.495-0.656v30.7l43.842-0.506v-46.704L339.034,235.104z M278.789,457.513
		l-32.426-36.58V264.984l32.426-36.428l63.792-2.781l34.766,35.267v59.996l-52.721,0.427v42.965l52.721,0.427v60.018l-34.766,35.426
		L278.789,457.513 M345.147,219.47l-68.8,3.16l-35.404,39.905v161.001l35.404,39.904l68.8,3.157l38.188-38.629v-69.325l-52.93-0.3
		v-30.77l52.93-0.307v-69.164L345.147,219.47"/>
	<path fill="#29ABE2" d="M476.676,407.745V278.139l32.528-0.747V408.49L476.676,407.745z M525.675,227.601l-64.917,2.611
		l-31.46,33.168v159.31l31.46,33.168l64.917,2.611l33.702-32.045V259.645L525.675,227.601 M456.87,465.281l-36.946-39.13V259.756
		l36.946-38.97l72.89-3.177l39.787,37.645v175.396l-39.787,37.813L456.87,465.281 M532.672,210.855l-78.585,3.611l-40.333,42.689
		v171.759l40.333,42.688l78.585,3.611l43.762-41.239V252.092L532.672,210.855"/>
	<path fill="#29ABE2" d="M683.694,316.881v-43.502l37.504-0.864v44.043L683.694,316.881z M740.219,218.972l-111.043,4.467v239.188
		l54.519,2.196V369.01l37.504,0.325v96.996l57.977,2.331V368.071l-27.28-25.036l27.28-25.245v-64.458L740.219,218.972
		 M618.405,472.33V213.738l126.528-5.519l46.016,40.362v73.525l-22.698,20.929l22.698,20.926v115.896L618.405,472.33
		 M748.327,200.952l-137.01,6.292v271.582l187.605,8.617V360.656l-19.348-17.621l19.348-17.805v-80.067L748.327,200.952"/>
	<path fill="#29ABE2" d="M1012.152,208.039l-152.066,6.113v257.764l152.066,6.113v-58.007l-88.664-2.033v-46.921l88.664,0.761
		v-57.783l-88.664,0.766v-46.948l88.664-2.041V208.039z M847.581,482.328V203.74l178.204-7.772v81.29l-89.409,1.744v24.454
		l89.409-1.083v81.294l-89.409-1.078v24.478l89.409,1.746v81.294L847.581,482.328 M1034.967,187.787l-195.58,8.983v292.531
		l195.58,8.983v-97.072l-89.857-1.551v-9.393l89.857,1.289v-97.044l-89.857,1.288v-9.426l89.857-1.545V187.787"/>
	<path fill="#29ABE2" d="M1423.01,214.287l-140.076-5.633v268.76l61.459-2.471V371.17l78.617-0.673v-55.108l-78.617-0.68v-47.12
		l78.617,1.809V214.287z M1270.244,489.395V196.677l164.136,7.161v76.94l-78.051-1.525v24.355l78.051,0.94v76.947l-78.051,0.938
		v103.204L1270.244,489.395 M1441.988,196.844l-180.199-8.278v308.938l102.525-4.713V389.844l77.674-1.118V297.34l-77.674-1.108
		v-9.345l77.674,1.338V196.844"/>
	<path fill="#29ABE2" d="M1543.854,378.438l13.122-76.7l13.01,76.4L1543.854,378.438z M1591.81,221.074l-70.455-2.832
		l-47.492,251.492l54.669-2.196l6.113-35.781l44.34-1.271l5.916,34.789l50.939-2.054L1591.81,221.074 M1460.367,481.103
		l51.979-273.863l87.992,3.837l47.521,261.844l-71.573,3.119l-5.974-34.861l-26.788,0.859l-6.08,35.699L1460.367,481.103
		 M1606.172,204.383l-99.686-4.578l-55.105,288.99l92.143-4.23l6.051-35.644l14.764-0.509l5.974,34.92l85.452-3.925
		L1606.172,204.383"/>
	<path fill="#29ABE2" d="M1811.9,229.926l-45.05-1.812v91.827l-30.911-93.071l-47.531-1.91v236.147l47.531-1.909v-93.011
		l30.911,91.768l45.047-1.811L1811.9,229.926z M1757.574,262.942v-45.006l63.126,2.754v244.688l-60.271,2.633l-15.229-44.706v45.367
		l-66.589,2.905V214.493l63.858,2.785L1757.574,262.942 M1826.56,214.506l-154.466-7.096v271.248l154.466-7.095V214.506"/>
</g>
<g>
	<polygon fill="#E6E6E6" points="1042.014,152.943 1043.519,194.185 1053.407,196.114 1069.292,232.03 1095.877,230.37 
		1117.997,216.032 1117.069,221.272 1095.525,238.26 1060.075,245.212 1049.514,259.306 1253.627,239.997 1253.627,223.128 
		1183.518,205.883 1155.891,187.048 1151.74,167.598 1163.096,113.918 1150.426,92.038 1140.979,89.494 1136.389,82.804 
		1110.577,74.066 1110.809,70.604 1072.772,77.059 1074.396,69.688 1058.028,79.814 1050.209,94.346 1046.04,91.566 
		1043.519,116.228 1045.572,119.666 1040.954,142.042 	"/>
	<polygon fill="#E6E6E6" points="1116.113,402.974 1052.454,395.461 1071.153,500.173 1147.286,505.674 1216.137,499.608 
		1248.298,380.572 	"/>
</g>
<polygon fill="#E6E6E6" points="1139.307,377.683 1116.113,380.429 1116.113,272.442 1139.307,269.699 "/>
<path fill="#E6E6E6" d="M1216.417,353.117l-15.436,17.268l-30.875,3.653l-15.438-13.61v-77.112l15.438-17.263l30.875-3.655
	l15.436,13.611V353.117z M1193.224,348.183v-61.672l-15.359,1.817v61.675L1193.224,348.183z"/>
<g>
</g>
<g>
</g>
<g>
</g>
<g>
</g>
<g>
</g>
<g>
</g>
<g>
</g>
<g>
</g>
<g>
</g>
<g>
</g>
<g>
</g>
<g>
</g>
<g>
</g>
<g>
</g>
<g>
</g>
</svg>
