<?xml version="1.0" encoding="utf-8"?>
<!-- Generator: Adobe Illustrator 16.0.0, SVG Export Plug-In . SVG Version: 6.00 Build 0)  -->
<!DOCTYPE svg PUBLIC "-//W3C//DTD SVG 1.1//EN" "http://www.w3.org/Graphics/SVG/1.1/DTD/svg11.dtd">
<svg version="1.1" id="Layer_1" xmlns="http://www.w3.org/2000/svg" xmlns:xlink="http://www.w3.org/1999/xlink" x="0px" y="0px"
	 width="42.656px" height="132.718px" viewBox="0 0 42.656 132.718" enable-background="new 0 0 42.656 132.718"
	 xml:space="preserve">
<g>
	<defs>
		<rect id="SVGID_1_" width="42.656" height="132.718"/>
	</defs>
	<clipPath id="SVGID_2_">
		<use xlink:href="#SVGID_1_"  overflow="visible"/>
	</clipPath>
	<path clip-path="url(#SVGID_2_)" fill="#D2AA82" d="M11.697,125.973l-0.962,0.203c0.318-0.018,0.514-0.018,0.514-0.018
		c2.893,1.973,2.944,5.146,2.944,5.146h3.237c0.7-0.459,0.704-1.271,0.704-2.198c0-0.558-0.145-1.281-0.403-1.961v-6.008h-6.034
		V125.973z"/>
	<path clip-path="url(#SVGID_2_)" fill="#D2AA82" d="M6.588,127.144c0.083-0.043,0.171-0.084,0.258-0.125
		c-1.923,0.637-2.398,1.731-2.387,2.444c0,0.845,0.404,1.471,1.025,1.843h3.932C8.764,127.352,6.588,127.144,6.588,127.144"/>
	<path clip-path="url(#SVGID_2_)" fill="#DBB99A" d="M24.926,127.145c-0.258,0.679-0.404,1.404-0.404,1.961
		c0,0.928,0.005,1.74,0.704,2.2h3.238c0,0,0.051-3.175,2.944-5.147c0,0,0.195,0,0.513,0.018l-0.962-0.203v-4.835h-6.033V127.145z"/>
	<path clip-path="url(#SVGID_2_)" fill="#DBB99A" d="M33.241,131.306h3.93c0.624-0.373,1.026-0.999,1.026-1.843
		c0.011-0.713-0.463-1.807-2.385-2.443c0.087,0.04,0.172,0.081,0.257,0.124C36.069,127.144,33.893,127.352,33.241,131.306"/>
	<path clip-path="url(#SVGID_2_)" fill="#464547" d="M13.342,131.306h-2.7H9.416H5.485H4.396c-0.326,0-0.591,0.264-0.591,0.59v0.232
		c0,0.326,0.265,0.59,0.591,0.59h13.13c0.325,0,0.588-0.264,0.588-0.59v-0.232c0-0.326-0.263-0.59-0.588-0.59h-0.095h-3.237H13.342z
		"/>
	<path clip-path="url(#SVGID_2_)" fill="#2B2A2A" d="M13.342,131.306h0.852c0,0-0.051-3.175-2.945-5.147c0,0-0.195,0-0.513,0.018
		c-0.106,0.005-0.223,0.013-0.352,0.023h0.008C12.696,127.856,13.342,131.306,13.342,131.306"/>
	<path clip-path="url(#SVGID_2_)" fill="#2B2A2A" d="M9.416,131.306h1.226c-0.232-3.601-2.601-4.707-2.616-4.713
		c-0.402,0.112-0.804,0.251-1.18,0.426c-0.087,0.04-0.175,0.082-0.258,0.125C6.588,127.144,8.764,127.352,9.416,131.306"/>
	<path clip-path="url(#SVGID_2_)" fill="#464547" d="M32.307,131.306h-2.697h-1.146h-3.238h-0.095c-0.325,0-0.589,0.264-0.589,0.59
		v0.232c0,0.326,0.264,0.59,0.589,0.59h13.131c0.325,0,0.589-0.264,0.589-0.59v-0.232c0-0.326-0.264-0.59-0.589-0.59h-1.091h-3.929
		H32.307z"/>
	<path clip-path="url(#SVGID_2_)" fill="#2B2A2A" d="M28.464,131.306h1.146c0,0,0.639-3.418,2.922-5.084
		c-0.234-0.022-0.441-0.037-0.611-0.046c-0.317-0.018-0.513-0.018-0.513-0.018C28.515,128.131,28.464,131.306,28.464,131.306"/>
	<path clip-path="url(#SVGID_2_)" fill="#2B2A2A" d="M32.307,131.306h0.936c0.65-3.954,2.827-4.162,2.827-4.162
		c-0.085-0.043-0.17-0.084-0.257-0.124c-0.255-0.119-0.521-0.222-0.798-0.311C35,126.717,32.541,127.709,32.307,131.306"/>
	<path clip-path="url(#SVGID_2_)" fill="#FFFFFF" d="M10.642,131.306h2.7c0,0-0.645-3.449-2.95-5.106h-0.008
		c-0.063,0.004-1.593,0.081-2.358,0.394h0.001C8.041,126.599,10.411,127.705,10.642,131.306"/>
	<path clip-path="url(#SVGID_2_)" fill="#FFFFFF" d="M29.609,131.306h2.697c0.234-3.597,2.693-4.589,2.708-4.597l0.003-0.001
		c-0.781-0.319-2.457-0.509-2.457-0.509c-0.01,0.006-0.02,0.016-0.028,0.022C30.249,127.888,29.609,131.306,29.609,131.306"/>
	<path clip-path="url(#SVGID_2_)" fill="#443220" d="M21.217,78.548H9.208v2.647c0,1.241,0.361,2.395,0.973,3.373l1.064,34.367h7
		l1.112-31.375h1.965v-9.013H21.217z"/>
	<polygon clip-path="url(#SVGID_2_)" fill="#000100" points="10.959,118.936 10.959,122.254 11.697,122.254 17.731,122.254 
		18.631,122.254 18.631,118.936 18.245,118.936 11.245,118.936 	"/>
	<path clip-path="url(#SVGID_2_)" fill="#5A4027" d="M22.98,78.548h-1.658v9.013h1.977l1.112,31.375h7l1.064-34.391
		c0.605-0.973,0.961-2.119,0.961-3.35v-2.647h-0.775H22.98z"/>
	<polygon clip-path="url(#SVGID_2_)" fill="#443220" points="24.023,118.936 24.023,122.254 24.926,122.254 30.96,122.254 
		31.695,122.254 31.695,118.936 31.411,118.936 24.411,118.936 	"/>
	<path clip-path="url(#SVGID_2_)" fill="#D2AA82" d="M0.757,80.166c0.063-0.042,0.136-0.072,0.217-0.072h3.534
		c0.12,0,0.221,0.053,0.292,0.133c0.066-3.175,0.466-12.58,2.85-19.526l-4.386-1.972C1.942,63.825,0.842,70.833,0.757,80.166"/>
	<path clip-path="url(#SVGID_2_)" fill="#D2AA82" d="M2.65,81.327H0.974c-0.062,0-0.121-0.018-0.173-0.046
		c-0.017-0.007-0.032-0.019-0.048-0.03v0.076C0.291,81.794,0,82.441,0,83.158v2.206c0,1.421,1.128,2.572,2.52,2.572
		c1.391,0,2.521-1.151,2.521-2.572V83.79l0.323,0.862c0.141,0.396,0.577,0.604,0.971,0.462c0.397-0.141,0.604-0.576,0.464-0.973
		l-0.424-1.131c-0.014-0.033-0.029-0.063-0.042-0.093c0,0-0.48-1.027-1.54-1.715c-0.072,0.074-0.169,0.124-0.286,0.124H2.65z"/>
	<path clip-path="url(#SVGID_2_)" fill="#DBB99A" d="M41.905,81.327c0-9.982-1.13-17.395-2.494-22.708l-4.323,1.945
		c2.698,7.89,2.848,19.057,2.856,20.586c-1.119,0.688-1.62,1.768-1.62,1.768h0.002c-0.015,0.03-0.032,0.06-0.044,0.093l-0.425,1.131
		c-0.14,0.396,0.068,0.832,0.463,0.973c0.396,0.142,0.831-0.066,0.972-0.462l0.324-0.862v1.574c0,1.421,1.127,2.572,2.52,2.572
		c1.392,0,2.521-1.151,2.521-2.572v-2.206C42.656,82.441,42.368,81.794,41.905,81.327"/>
	<path clip-path="url(#SVGID_2_)" fill="#DBB99A" d="M21.217,49.814c2.313,0.027,4.5-0.271,6.368-0.667
		c0.956-1.708,1.6-3.874-0.019-5.656c-1.023-0.231-2.152-0.402-3.419-0.481h-0.153l-2.726-0.263L21.217,49.814z"/>
	<path clip-path="url(#SVGID_2_)" fill="#E2E2E2" d="M40.758,58.014l-3.306-7.022c-3.042-6.801-9.918-7.54-9.918-7.54
		c0.013,0.014,0.021,0.026,0.032,0.039c1.618,1.782,0.975,3.948,0.019,5.656c-1.868,0.396-4.055,0.694-6.368,0.667v1.657v27.076
		h0.105h1.658h9.681h0.775h0.023h1.137L33.48,57.724l1.163,3.04l0.444-0.2l4.323-1.944L40.758,58.014z M30.854,60.054
		c0,0.177-0.144,0.323-0.323,0.323h-4.277c-0.18,0-0.323-0.146-0.323-0.323v-5.047h4.924V60.054z"/>
	<path clip-path="url(#SVGID_2_)" fill="#333333" d="M0.974,80.094c-0.081,0-0.153,0.029-0.217,0.071
		c-0.099,0.068-0.17,0.174-0.17,0.3v0.489c0,0.125,0.068,0.23,0.165,0.296c0.017,0.013,0.032,0.024,0.049,0.031
		c0.052,0.028,0.111,0.045,0.173,0.045H2.65h1.857c0.116,0,0.214-0.048,0.285-0.123c0.063-0.066,0.102-0.151,0.102-0.249v-0.489
		c0-0.092-0.037-0.173-0.095-0.238c-0.071-0.079-0.172-0.133-0.292-0.133H0.974z"/>
	<path clip-path="url(#SVGID_2_)" fill="#CDCFD1" d="M25.931,60.054c0,0.177,0.144,0.323,0.323,0.323h4.277
		c0.18,0,0.323-0.146,0.323-0.323v-5.047h-4.924V60.054z"/>
	<path clip-path="url(#SVGID_2_)" fill="#DBB99A" d="M34.712,13.803c0.467-2.76-8.213-2.147-13.381-0.383v-0.044l-0.018,0.044
		c-0.016-0.006-0.031-0.012-0.045-0.014v11.692h0.222h1.509c0.21-0.702,0.946-1.22,1.833-1.22h8.238
		c1.054,0,1.902,0.728,1.902,1.629c0,0-1.044,6.003-6.039,6.003c-3.649,0-5.17-3.201-5.725-4.927H21.49h-0.222v13.869
		c1.022-0.002,1.974-0.092,2.869-0.251c6.565-1.155,9.841-6.294,11.347-11.893c0.658-2.448,0.979-4.978,1.091-7.303
		c0.001-0.041,0.006-0.082,0.007-0.122C36.278,20.305,34.28,16.359,34.712,13.803"/>
	<path clip-path="url(#SVGID_2_)" fill="#333333" d="M23.209,26.583c0.555,1.726,2.075,4.927,5.725,4.927
		c4.995,0,6.039-6.003,6.039-6.003c0-0.901-0.849-1.629-1.902-1.629h-8.238c-0.887,0-1.623,0.518-1.833,1.221H21.49v1.484H23.209z"
		/>
	<path clip-path="url(#SVGID_2_)" fill="#D2AA82" d="M21.313,49.976l0.002,1.366l0.016-2.591l-0.009-5.786
		c0.086-0.002,0.168-0.002,0.253-0.004c0.971-0.015,1.821,0.01,2.563,0.058v-2.818c-0.896,0.159-1.847,0.25-2.869,0.251V26.583
		h-1.575c-0.554,1.726-2.072,4.927-5.724,4.927c-4.996,0-6.038-6.003-6.038-6.003c0-0.9,0.85-1.629,1.901-1.629h8.242
		c0.883,0,1.619,0.52,1.832,1.22h1.362V13.406c-5.175-1.752-13.804-2.356-13.337,0.397c0.467,2.761-1.907,7.154-1.907,7.154
		S6,20.894,5.958,20.783c0.006,0.102,0.013,0.207,0.02,0.31c-0.813,0.307-2.304,1.26-1.432,3.971c0.71,2.216,1.876,2.964,2.68,3.212
		c1.663,5.599,5.095,10.744,11.295,11.918v2.824c-3.263,0.218-4.538,0.632-4.538,0.632c0,0.01-0.638,1.071-0.638,1.083
		C13.502,55.557,20.136,49.758,21.313,49.976 M21.268,40.452h-0.002c-0.011,0-0.021-0.001-0.021-0.001S21.257,40.452,21.268,40.452"
		/>
	<path clip-path="url(#SVGID_2_)" fill="#000100" d="M7.932,13.803c-0.467-2.753,8.162-2.149,13.337-0.397
		c0.014,0.002,0.029,0.008,0.045,0.014l0.018-0.044V1.15v-1.151l-1.357,2.148l-3.231-2.148l-1.994,3.705l-4.064-3.091
		c-0.614,0.958-1.533,5.368-1.533,5.368C7.925,5.367,4.857,4.907,4.857,4.907l0.619,6.825l-2.153-0.679
		c0.139,2.924,2.238,8.661,2.636,9.73C6,20.894,6.025,20.957,6.025,20.957S8.399,16.564,7.932,13.803"/>
	<path clip-path="url(#SVGID_2_)" fill="#333333" d="M21.331,13.376v0.044c5.168-1.764,13.848-2.377,13.381,0.383
		c-0.432,2.556,1.566,6.503,1.87,7.08c0.022,0.047,0.037,0.074,0.037,0.074s2.548-6.671,2.702-9.904l-2.154,0.679l0.619-6.825
		c0,0-3.066,0.46-4.293,1.074c0,0-0.922-4.41-1.535-5.368l-4.063,3.091L25.901,0l-3.232,2.147L21.331,0v1.15V13.376z"/>
	<path clip-path="url(#SVGID_2_)" fill="#000100" d="M21.49,25.099h-0.222h-1.362c-0.213-0.701-0.948-1.221-1.832-1.221H9.833
		c-1.052,0-1.902,0.729-1.902,1.629c0,0,1.042,6.004,6.038,6.004c3.653,0,5.17-3.202,5.724-4.928h1.575h0.222V25.099z"/>
	<path clip-path="url(#SVGID_2_)" fill="#CDCFD1" d="M21.217,51.472v-1.658c-2.313,0.028-4.499-0.27-6.365-0.666
		c-0.963-1.717-1.495-3.901,0.16-5.69c0.001-0.002,0.003-0.003,0.005-0.005c0,0-6.993,0.739-10.034,7.54l-3.306,7.022l1.587,0.714
		l4.386,1.972l0.141,0.064l1.164-3.04L7.836,78.548h1.138h0.234h12.009V51.472z"/>
</g>
</svg>
