<?xml version="1.0" encoding="utf-8"?>
<!-- Generator: Adobe Illustrator 16.0.0, SVG Export Plug-In . SVG Version: 6.00 Build 0)  -->
<!DOCTYPE svg PUBLIC "-//W3C//DTD SVG 1.1//EN" "http://www.w3.org/Graphics/SVG/1.1/DTD/svg11.dtd">
<svg version="1.1" id="Layer_1" xmlns="http://www.w3.org/2000/svg" xmlns:xlink="http://www.w3.org/1999/xlink" x="0px" y="0px"
	 width="500px" height="500px" viewBox="0 0 500 500" enable-background="new 0 0 500 500" xml:space="preserve">
<g>
	<path fill-rule="evenodd" clip-rule="evenodd" fill="#20D6DD" d="M165.51,215.986v128.089h38.4v-50.763
		c0-24.238,20.674-43.964,46.084-43.964c25.411,0,46.089,19.726,46.089,43.964v50.763h38.4V215.986l-84.489-59.011L165.51,215.986z"
		/>
	<path fill-rule="evenodd" clip-rule="evenodd" fill="#20D6DD" d="M250,1C112.481,1,1,112.481,1,250c0,137.514,111.481,249,249,249
		c137.514,0,249-111.486,249-249C499,112.481,387.514,1,250,1z M396.103,238.844c-3.2,4.173-8.354,6.663-13.782,6.663
		c-3.647,0-7.13-1.084-10.077-3.142l-3.618-2.539v120.531c0,8.968-7.664,16.282-17.08,16.282h-72.53
		c-8.822,0-16.263-6.546-17.003-14.921c-0.043-0.447-0.067-0.895-0.067-1.361v-67.045c0-6.283-5.359-11.399-11.949-11.399
		c-6.585,0-11.949,5.116-11.949,11.399v67.045c0,0.457-0.02,0.914-0.068,1.371c-0.739,8.365-8.18,14.911-17.002,14.911h-72.53
		c-9.416,0-17.065-7.314-17.065-16.282V239.826l-3.633,2.539c-2.947,2.057-6.43,3.142-10.077,3.142
		c-5.422,0-10.577-2.49-13.782-6.663c-5.554-7.241-3.9-17.449,3.691-22.755l132.334-92.427c2.947-2.052,6.434-3.142,10.082-3.142
		c3.652,0,7.14,1.084,10.081,3.142l132.34,92.427c3.677,2.573,6.089,6.356,6.779,10.651
		C399.896,231.038,398.797,235.342,396.103,238.844z"/>
</g>
<g>
</g>
<g>
</g>
<g>
</g>
<g>
</g>
<g>
</g>
<g>
</g>
<g>
</g>
<g>
</g>
<g>
</g>
<g>
</g>
<g>
</g>
<g>
</g>
<g>
</g>
<g>
</g>
<g>
</g>
</svg>
