<?xml version="1.0" encoding="utf-8"?>
<!-- Generator: Adobe Illustrator 16.0.0, SVG Export Plug-In . SVG Version: 6.00 Build 0)  -->
<!DOCTYPE svg PUBLIC "-//W3C//DTD SVG 1.1//EN" "http://www.w3.org/Graphics/SVG/1.1/DTD/svg11.dtd">
<svg version="1.1" id="Layer_1" xmlns="http://www.w3.org/2000/svg" xmlns:xlink="http://www.w3.org/1999/xlink" x="0px" y="0px"
	 width="500px" height="500px" viewBox="0 0 500 500" enable-background="new 0 0 500 500" xml:space="preserve">
<g>
	<polygon fill-rule="evenodd" clip-rule="evenodd" fill="#FFAE00" points="305.441,171.574 289.138,155.271 148.525,295.9 
		164.835,312.204 	"/>
	<polygon fill-rule="evenodd" clip-rule="evenodd" fill="#FFAE00" points="188.491,335.803 204.175,351.48 344.788,210.862 
		329.098,195.178 	"/>
	<polygon fill-rule="evenodd" clip-rule="evenodd" fill="#FFAE00" points="131.996,367.958 168.517,363.037 136.929,331.438 	"/>
	<path fill-rule="evenodd" clip-rule="evenodd" fill="#FFAE00" d="M331.46,129.211c-6.103,0-11.938,1.344-17.241,3.943
		l52.616,52.627c2.594-5.303,3.937-11.151,3.937-17.253c0-10.577-4.076-20.455-11.463-27.802
		C351.828,133.305,341.939,129.211,331.46,129.211z"/>
	<path fill-rule="evenodd" clip-rule="evenodd" fill="#FFAE00" d="M250,1C112.479,1,1,112.485,1,250c0,137.516,111.479,249,249,249
		c137.516,0,249-111.484,249-249C499,112.485,387.516,1,250,1z M382.814,219.964l-166.51,166.463
		c-0.475,0.51-0.996,1.007-1.552,1.471c-0.075,0.058-0.15,0.127-0.226,0.185c-0.318,0.256-0.625,0.486-0.933,0.707
		c-0.196,0.139-0.399,0.266-0.602,0.394c-0.238,0.15-0.475,0.301-0.718,0.44c-0.254,0.139-0.521,0.277-0.793,0.416
		c-0.226,0.104-0.422,0.197-0.619,0.29c-0.318,0.139-0.637,0.267-0.961,0.382c-0.18,0.069-0.359,0.139-0.55,0.197
		c-0.353,0.127-0.689,0.22-1.031,0.313c-0.196,0.046-0.37,0.093-0.556,0.139c-0.318,0.069-0.619,0.127-0.92,0.174
		c-0.185,0.035-0.376,0.069-0.562,0.093l-91.458,12.366c-0.984,0.15-1.818,0.15-2.322,0.15c-4.354,0-8.65-1.795-11.77-4.921
		c-3.671-3.671-5.431-8.904-4.713-14.022l12.366-91.592c0.504-3.682,2.137-6.971,4.725-9.541l166.927-166.897
		c13.709-13.739,31.958-21.312,51.389-21.312c19.441,0,37.689,7.573,51.411,21.317c13.733,13.663,21.306,31.912,21.306,51.354
		C404.143,187.947,396.57,206.208,382.814,219.964z"/>
</g>
<g>
</g>
<g>
</g>
<g>
</g>
<g>
</g>
<g>
</g>
<g>
</g>
<g>
</g>
<g>
</g>
<g>
</g>
<g>
</g>
<g>
</g>
<g>
</g>
<g>
</g>
<g>
</g>
<g>
</g>
</svg>
