<?xml version="1.0" encoding="utf-8"?>
<!-- Generator: Adobe Illustrator 16.0.0, SVG Export Plug-In . SVG Version: 6.00 Build 0)  -->
<!DOCTYPE svg PUBLIC "-//W3C//DTD SVG 1.1//EN" "http://www.w3.org/Graphics/SVG/1.1/DTD/svg11.dtd">
<svg version="1.1" id="Layer_1" xmlns="http://www.w3.org/2000/svg" xmlns:xlink="http://www.w3.org/1999/xlink" x="0px" y="0px"
	 width="500px" height="500px" viewBox="0 0 500 500" enable-background="new 0 0 500 500" xml:space="preserve">
<path fill-rule="evenodd" clip-rule="evenodd" fill="#FFFFFF" d="M249.5,177.063c40.316,0,73,32.613,73,72.844
	s-32.684,72.844-73,72.844s-73-32.613-73-72.844S209.184,177.063,249.5,177.063z"/>
<g>
	<g>
		<path fill="#254B62" d="M212.617,203.982v-0.113h-0.103v-0.113h-0.103v-0.114h-0.103v-0.113h-0.104v-0.113h-0.103v-0.113h-0.104
			v-0.114h-0.103v-0.113h-0.103v-0.113h-0.103v-0.113h-0.103v-0.113h-0.103v-0.113h-0.104v-0.113h-0.103v-0.113h-0.103v-0.113
			h-0.103v-0.113h-0.103v-0.113h-0.103v-0.114h-0.103v-0.113h-0.104v-0.113h-0.103v-0.113h-0.103v-0.114h-0.103v-0.113h-0.103
			v-0.113h-0.103v-0.113h-0.104v-0.113h-0.103v-0.113h-0.103v-0.113h-0.103v-0.113h-0.103v-0.113h-0.103v-0.113h-0.103v-0.113
			h-0.104v-0.114h-0.103v-0.113h-0.103v-0.113h-0.103v-0.113h-0.103v-0.114h-0.103v-0.113H208.7v-0.113h-0.104v-0.113h-0.103v-0.113
			h-0.103v-0.113h-0.103v-0.113h-0.103v-0.113h-0.103v-0.113h-0.103v-0.113h-0.104v-0.113h-0.103v-0.113h-0.103v-0.114h-0.103
			v-0.113h-0.103v-0.113h-0.103v-0.113h-0.104v-0.114h-0.103v-0.113h-0.103v-0.113h-0.103v-0.113h-0.103v-0.113h-0.103v-0.113
			h-0.103v-0.113h-0.104v-0.113h-0.103v-0.113h-0.103v-0.113h-0.103v-0.113h-0.103v-0.114h-0.103v-0.113h-0.103v-0.113h-0.104
			v-0.113h-0.103v-0.114h-0.103v-0.113h-0.103v-0.113H205.4v-0.113h-0.103v-0.113h-0.104v-0.113h-0.103v-0.113h-0.103v-0.113h-0.103
			v-0.113h-0.103v-0.113h-0.103v-0.113h-0.103v-0.114h-0.104v-0.113h-0.103v-0.113h-0.103v-0.113h-0.103v-0.114h-0.103v-0.113
			h-0.103v-0.113h-0.103v-0.113h-0.104v-0.113h-0.103v-0.113h-0.103v-0.113h-0.103v-0.113h-0.103v-0.113h-0.103v-0.113h-0.103
			v-0.113h-0.104v-0.113h-0.103v-0.114h-0.103v-0.113h-0.103v-0.113h-14.66l-0.451,0.92c-1.474,3.013-3.941,5.622-7.333,7.757
			c-3.414,2.146-7.045,3.436-10.792,3.826l-1.521,0.16v13.396h0.103v0.113h0.103v0.113h0.103v0.113h0.103v0.113h0.103v0.113h0.103
			v0.114h0.104v0.113h0.103v0.113h0.103v0.113h0.103v0.114h0.103v0.113h0.103v0.113h0.104v0.113h0.103v0.113h0.103v0.113h0.103
			v0.113h0.103v0.113h0.103v0.113h0.103v0.113h0.104v0.113h0.103v0.113h0.103v0.114h0.103v0.113h0.103v0.113h0.103v0.114h0.103
			v0.113h0.104v0.113h0.103v0.113h0.103v0.113h0.103v0.113h0.103v0.113h0.103v0.113h0.103v0.113h0.104v0.113h0.103v0.113h0.103
			v0.113h0.103v0.114h0.103v0.113h0.103v0.113h0.104v0.113h0.103v0.114h0.103v0.113h0.103v0.113h0.103v0.113h0.103v0.113h0.103
			v0.113h0.104v0.113h0.103v0.113h0.103v0.113h0.103v0.113h0.103v0.113h0.103v0.114h0.103v0.113h0.103v0.113h0.104v0.113h0.103
			v0.114h0.103v0.113h0.103v0.113h0.103v0.113h0.103v0.113h0.103v0.113h0.104v0.113h0.103v0.113h0.103v0.113h0.103v0.113h0.103
			v0.113h0.103v0.113h0.104v0.114h0.103v0.113h0.103v0.113h0.103v0.114h0.103v0.113h0.103v0.113h0.104v0.113h0.103v0.113h0.103
			v0.113h0.103v0.113h0.103v0.113h0.103V228h0.103v0.113h0.103v0.113h0.104v0.114h0.103v0.113h0.103v0.113h0.103v0.113h0.103v0.113
			h0.103v0.114h0.103v0.113h0.104v0.113h0.103v0.113h0.103v0.113h0.103v0.113h0.103v0.113h0.103v0.113h0.104v0.113h0.103v0.113
			h0.103v0.113h4.403v65.789h0.103v0.113h0.103v0.113h0.103v0.113h0.103v0.113h0.104v0.113h0.103v0.113h0.103v0.113h0.103v0.113
			h0.103v0.114h0.103v0.113h0.103v0.113h0.104v0.113h0.103v0.114h0.103v0.113h0.103v0.113h0.103v0.113h0.103v0.113h0.103v0.113
			h0.104v0.113h0.103v0.113h0.103v0.113h0.103v0.113h0.103v0.113h0.103v0.114h0.103v0.113h0.104v0.113h0.103v0.113h0.103v0.114
			h0.103v0.113h0.103v0.113h0.103v0.113h0.104v0.113h0.103v0.113h0.103v0.113h0.103v0.113h0.103v0.113h0.103v0.113h0.103v0.113
			h0.104v0.113h0.103v0.114h0.103v0.113h0.103v0.113h0.103v0.113h0.103v0.114h0.103v0.113h0.104v0.113h0.103v0.113h0.103v0.113
			h0.103v0.113h0.103v0.113h0.103v0.113h0.104v0.113h0.103v0.113h0.103v0.113h0.103v0.114h0.103v0.113h0.103v0.113h0.103v0.113
			h0.104v0.114h0.103v0.113h0.103v0.113h0.103v0.113h0.103v0.113h0.103v0.113h0.103v0.113h0.104v0.113h0.103v0.113h0.103v0.113
			h0.103v0.113h0.103v0.114h0.103v0.113h0.104v0.113h0.103v0.113h0.103v0.114h0.103v0.113h0.103v0.113h0.103v0.113h0.103v0.113
			h0.104v0.113h0.103v0.113h0.103v0.113h0.103v0.113h0.103v0.113h0.103v0.113h0.103v0.113h0.104v0.114h0.103v0.113h0.103v0.113
			h0.103v0.114h0.103v0.113h0.103v0.113h0.104v0.113h0.103v0.113h0.104v0.113h0.103v0.113h0.103v0.113h0.103v0.113h20.353V203.982
			H212.617z"/>
		<path fill="#FFFCF2" d="M188.06,192.981l-0.45,0.92c-1.475,3.013-3.942,5.622-7.333,7.757c-3.414,2.146-7.045,3.436-10.792,3.827
			l-1.521,0.159v13.396h14.404v76.789h20.353V192.981H188.06z"/>
		<linearGradient id="SVGID_1_" gradientUnits="userSpaceOnUse" x1="181.0127" y1="231.8887" x2="206.6391" y2="259.7084">
			<stop  offset="0.2335" style="stop-color:#FFDE68"/>
			<stop  offset="0.2385" style="stop-color:#FFF394"/>
			<stop  offset="0.4374" style="stop-color:#FFF394"/>
			<stop  offset="0.4403" style="stop-color:#FFDE68"/>
			<stop  offset="0.6921" style="stop-color:#FFDE68"/>
			<stop  offset="0.6928" style="stop-color:#FFF394"/>
			<stop  offset="0.7723" style="stop-color:#FFF394"/>
			<stop  offset="0.7724" style="stop-color:#FFDE68"/>
		</linearGradient>
		<path fill="url(#SVGID_1_)" d="M185.367,292.83v-76.789h-14.404v-7.721c3.793-0.566,7.458-1.951,10.911-4.123
			c3.589-2.259,6.289-5.02,8.036-8.216h9.81v96.849H185.367z"/>
		<g>
			<path fill="#EDAB07" d="M172.117,209.475c3.793-0.566,7.458-1.951,10.911-4.123c3.589-2.259,6.289-5.02,8.036-8.216h8.656v-1.154
				h-9.81c-1.747,3.196-4.447,5.957-8.036,8.216c-3.453,2.172-7.118,3.557-10.911,4.123v7.721h1.154V209.475z"/>
			<rect x="185.367" y="217.195" fill="#EDAB07" width="1.154" height="75.635"/>
		</g>
		<polygon fill="#EDAB07" points="185.367,216.041 186.521,217.195 185.367,217.195 		"/>
	</g>
	<g>
		<path fill="#254B62" d="M265.653,212.153c-0.035-0.038-0.068-0.076-0.104-0.114c-0.034-0.037-0.067-0.075-0.103-0.112
			c-0.034-0.038-0.068-0.076-0.104-0.113c-0.034-0.038-0.068-0.076-0.103-0.114c-0.035-0.037-0.068-0.075-0.104-0.113
			c-0.034-0.037-0.068-0.075-0.104-0.113c-0.034-0.038-0.068-0.076-0.104-0.114c-0.034-0.037-0.067-0.075-0.103-0.112
			c-0.034-0.038-0.068-0.076-0.103-0.113c-0.035-0.038-0.068-0.076-0.104-0.113c-0.034-0.038-0.068-0.076-0.103-0.114
			c-0.035-0.037-0.068-0.075-0.104-0.113c-0.034-0.037-0.068-0.075-0.104-0.113c-0.034-0.037-0.067-0.075-0.103-0.113
			c-0.035-0.037-0.068-0.076-0.104-0.113c-0.034-0.038-0.068-0.076-0.103-0.113c-0.035-0.038-0.068-0.076-0.104-0.113
			c-0.034-0.038-0.068-0.076-0.104-0.114c-0.034-0.037-0.068-0.075-0.103-0.113c-0.034-0.037-0.068-0.075-0.104-0.113
			c-0.034-0.037-0.067-0.075-0.103-0.113c-0.035-0.037-0.068-0.075-0.104-0.113c-0.034-0.037-0.067-0.075-0.103-0.112
			c-0.034-0.039-0.068-0.077-0.104-0.115c-0.035-0.037-0.068-0.075-0.103-0.112c-0.035-0.038-0.068-0.076-0.104-0.113
			c-0.035-0.038-0.068-0.076-0.104-0.114c-0.034-0.037-0.067-0.075-0.103-0.113s-0.068-0.076-0.104-0.113
			c-0.034-0.038-0.068-0.076-0.103-0.113c-0.035-0.038-0.068-0.076-0.104-0.113c-0.034-0.038-0.068-0.076-0.103-0.113
			c-0.035-0.038-0.068-0.075-0.103-0.113c-0.035-0.038-0.069-0.076-0.104-0.114c-0.034-0.037-0.068-0.076-0.104-0.113
			c-0.034-0.038-0.067-0.075-0.103-0.113c-0.034-0.037-0.068-0.075-0.103-0.113c-0.035-0.038-0.068-0.076-0.104-0.113
			c-0.034-0.038-0.068-0.076-0.103-0.113c-0.035-0.038-0.068-0.076-0.104-0.113c-0.035-0.038-0.068-0.076-0.104-0.114
			c-0.034-0.037-0.068-0.075-0.103-0.113c-0.035-0.037-0.068-0.075-0.104-0.113c-0.034-0.037-0.067-0.075-0.103-0.112
			c-0.034-0.038-0.068-0.076-0.104-0.114s-0.068-0.076-0.104-0.114c-0.034-0.037-0.068-0.075-0.103-0.112
			c-0.034-0.038-0.068-0.076-0.104-0.113c-0.034-0.038-0.067-0.076-0.103-0.113c-0.035-0.038-0.068-0.076-0.104-0.114
			c-0.034-0.037-0.068-0.075-0.103-0.113c-0.035-0.038-0.069-0.076-0.104-0.113c-0.034-0.038-0.067-0.076-0.102-0.113
			c-0.035-0.037-0.068-0.075-0.104-0.113c-0.034-0.037-0.068-0.076-0.104-0.113c-0.034-0.038-0.068-0.076-0.103-0.113
			c-0.035-0.038-0.068-0.076-0.104-0.114s-0.068-0.075-0.103-0.113c-0.035-0.037-0.068-0.075-0.104-0.113
			c-0.034-0.037-0.068-0.075-0.104-0.113c-0.034-0.038-0.067-0.075-0.103-0.113s-0.068-0.076-0.104-0.113
			c-0.034-0.038-0.068-0.076-0.104-0.114c-0.034-0.037-0.067-0.075-0.103-0.112c-0.034-0.038-0.067-0.076-0.103-0.113
			c-0.034-0.038-0.068-0.076-0.104-0.114c-0.034-0.037-0.068-0.075-0.104-0.113c-0.034-0.037-0.067-0.075-0.103-0.113
			s-0.068-0.076-0.104-0.114c-0.034-0.037-0.068-0.075-0.103-0.112c-0.035-0.038-0.068-0.076-0.104-0.113
			c-0.034-0.038-0.068-0.076-0.103-0.113c-0.035-0.038-0.068-0.076-0.104-0.114s-0.068-0.076-0.104-0.113
			c-0.034-0.038-0.067-0.075-0.103-0.112c-0.034-0.038-0.068-0.076-0.104-0.114c-0.034-0.038-0.068-0.076-0.103-0.113
			c-0.035-0.038-0.068-0.076-0.104-0.113c-0.034-0.038-0.068-0.076-0.103-0.113c-0.035-0.038-0.069-0.076-0.104-0.114
			c-0.034-0.037-0.067-0.075-0.103-0.113c-0.034-0.037-0.067-0.075-0.103-0.113c-0.035-0.037-0.068-0.075-0.104-0.113
			c-0.034-0.038-0.068-0.076-0.103-0.113c-0.035-0.038-0.068-0.076-0.104-0.113c-0.034-0.038-0.068-0.076-0.103-0.113
			c-0.035-0.038-0.068-0.076-0.104-0.114c-0.034-0.037-0.068-0.075-0.104-0.113c-0.034-0.037-0.068-0.075-0.103-0.113
			c-0.035-0.037-0.068-0.075-0.104-0.113c-0.034-0.038-0.068-0.076-0.104-0.114c-0.034-0.037-0.067-0.075-0.103-0.112
			c-0.034-0.038-0.068-0.076-0.103-0.113c-0.035-0.038-0.068-0.076-0.104-0.113c-0.034-0.038-0.068-0.076-0.104-0.113
			c-0.034-0.038-0.067-0.076-0.103-0.113c-0.622-0.679-1.287-1.34-2.001-1.981c-5.501-4.948-12.294-7.457-20.19-7.457
			c-7.834,0-14.624,2.492-20.181,7.408c-5.563,4.919-8.382,10.973-8.382,17.995v54.429c0,6.109,2.155,11.494,6.412,16.042
			c0.035,0.038,0.068,0.076,0.104,0.114c0.034,0.037,0.067,0.075,0.103,0.112c0.035,0.038,0.068,0.076,0.104,0.114
			c0.034,0.037,0.067,0.075,0.103,0.113c0.035,0.037,0.068,0.075,0.104,0.113c0.034,0.037,0.067,0.075,0.103,0.113
			s0.068,0.076,0.104,0.114c0.035,0.037,0.067,0.075,0.103,0.112s0.068,0.076,0.104,0.113c0.035,0.038,0.068,0.076,0.104,0.114
			c0.034,0.037,0.067,0.075,0.103,0.113c0.035,0.037,0.068,0.075,0.104,0.113s0.068,0.076,0.104,0.114
			c0.034,0.037,0.067,0.075,0.103,0.112c0.034,0.038,0.067,0.076,0.103,0.113c0.035,0.038,0.068,0.076,0.104,0.113
			c0.035,0.038,0.067,0.076,0.103,0.113c0.035,0.038,0.069,0.077,0.104,0.114c0.034,0.037,0.067,0.075,0.102,0.112
			c0.035,0.038,0.068,0.076,0.104,0.114c0.035,0.037,0.068,0.076,0.104,0.113c0.034,0.038,0.067,0.076,0.103,0.113
			c0.035,0.038,0.068,0.076,0.104,0.113c0.035,0.038,0.068,0.076,0.104,0.114c0.035,0.037,0.067,0.075,0.103,0.113
			c0.035,0.037,0.068,0.075,0.104,0.113c0.034,0.037,0.067,0.075,0.103,0.113c0.035,0.037,0.068,0.075,0.104,0.113
			c0.034,0.037,0.068,0.076,0.103,0.113c0.035,0.038,0.068,0.076,0.104,0.113c0.035,0.038,0.068,0.076,0.104,0.113
			c0.034,0.038,0.067,0.076,0.103,0.113c0.035,0.038,0.068,0.076,0.104,0.114c0.034,0.037,0.067,0.075,0.103,0.113
			c0.035,0.037,0.068,0.076,0.104,0.113c0.034,0.038,0.067,0.076,0.102,0.113c0.035,0.037,0.068,0.076,0.104,0.113
			c0.035,0.038,0.068,0.076,0.104,0.113c0.034,0.038,0.067,0.076,0.103,0.113c0.035,0.038,0.067,0.075,0.103,0.113
			s0.069,0.076,0.104,0.114c0.034,0.038,0.067,0.076,0.103,0.113c0.034,0.037,0.067,0.076,0.103,0.113s0.068,0.076,0.104,0.113
			s0.068,0.076,0.104,0.113c0.034,0.038,0.068,0.076,0.104,0.114c0.034,0.037,0.067,0.075,0.103,0.112
			c0.034,0.038,0.067,0.076,0.103,0.113c0.035,0.038,0.068,0.076,0.104,0.113c0.034,0.038,0.067,0.076,0.103,0.113
			c0.035,0.038,0.068,0.076,0.104,0.114s0.068,0.076,0.104,0.114c0.035,0.037,0.068,0.075,0.103,0.112
			c0.035,0.038,0.068,0.076,0.104,0.113c0.034,0.038,0.067,0.076,0.103,0.113c0.035,0.038,0.068,0.076,0.104,0.114
			c0.035,0.037,0.068,0.076,0.104,0.113c0.034,0.038,0.067,0.076,0.103,0.113s0.068,0.075,0.104,0.113
			c0.034,0.037,0.067,0.075,0.103,0.112c0.034,0.038,0.068,0.077,0.104,0.114c0.034,0.038,0.067,0.076,0.103,0.113
			c0.035,0.038,0.068,0.077,0.104,0.114c0.034,0.037,0.067,0.075,0.102,0.113c0.035,0.037,0.068,0.075,0.104,0.113
			c0.035,0.037,0.068,0.075,0.104,0.113c0.034,0.037,0.067,0.076,0.103,0.113c0.035,0.038,0.068,0.076,0.104,0.113
			c0.035,0.038,0.068,0.076,0.104,0.114c0.034,0.037,0.067,0.075,0.103,0.112c0.034,0.038,0.067,0.076,0.103,0.113
			c0.035,0.038,0.068,0.076,0.104,0.114c0.035,0.037,0.068,0.076,0.104,0.113c0.034,0.038,0.068,0.076,0.104,0.114
			c0.034,0.037,0.067,0.075,0.103,0.112c0.034,0.037,0.067,0.076,0.103,0.113c0.035,0.038,0.068,0.076,0.104,0.113
			c0.035,0.038,0.067,0.076,0.103,0.113c0.035,0.038,0.068,0.076,0.104,0.113c0.035,0.038,0.068,0.077,0.104,0.114
			s0.067,0.075,0.103,0.112c0.035,0.038,0.068,0.076,0.104,0.114c0.034,0.037,0.067,0.076,0.103,0.113
			c0.035,0.038,0.068,0.076,0.104,0.113c0.035,0.038,0.068,0.076,0.104,0.114c0.035,0.037,0.067,0.075,0.103,0.112
			c0.035,0.038,0.068,0.076,0.104,0.114c0.034,0.037,0.067,0.075,0.103,0.113c0.035,0.037,0.068,0.075,0.104,0.113
			c0.034,0.037,0.067,0.076,0.103,0.113c0.035,0.038,0.068,0.076,0.104,0.113c0.035,0.038,0.068,0.076,0.104,0.113
			c0.034,0.038,0.067,0.076,0.103,0.113c0.035,0.038,0.068,0.076,0.104,0.114c0.034,0.037,0.067,0.075,0.103,0.113
			c0.035,0.037,0.068,0.075,0.104,0.113c0.629,0.68,1.302,1.342,2.023,1.983c5.528,4.917,12.334,7.411,20.229,7.411
			c7.771,0,14.53-2.479,20.089-7.365c5.563-4.894,8.384-10.936,8.384-17.958v-54.43
			C272.037,222.121,269.892,216.725,265.653,212.153z M235.087,227.913c0-1.986,0.761-3.639,2.323-5.053
			c1.07-0.967,2.277-1.583,3.647-1.88v50.44c0,1.983-0.772,3.633-2.358,5.045c-1.07,0.951-2.266,1.565-3.612,1.869V227.913z"/>
		<path fill="#FFFCF2" d="M225.087,216.912c0-1.986,0.76-3.639,2.322-5.052c1.558-1.406,3.396-2.09,5.618-2.09
			c2.228,0,4.083,0.687,5.671,2.097c1.587,1.414,2.359,3.064,2.359,5.045v54.509c0,1.983-0.772,3.633-2.358,5.045
			c-1.587,1.411-3.442,2.098-5.672,2.098c-2.225,0-4.062-0.684-5.618-2.09c-1.563-1.411-2.322-3.064-2.322-5.053V216.912z
			 M253.755,199.285c-5.501-4.948-12.294-7.457-20.19-7.457c-7.834,0-14.624,2.492-20.181,7.408
			c-5.563,4.919-8.382,10.973-8.382,17.995v54.429c0,6.969,2.804,12.995,8.333,17.912c5.527,4.917,12.333,7.411,20.229,7.411
			c7.771,0,14.529-2.478,20.088-7.365c5.563-4.893,8.385-10.936,8.385-17.958v-54.429
			C262.037,210.267,259.251,204.229,253.755,199.285z"/>
		<linearGradient id="SVGID_2_" gradientUnits="userSpaceOnUse" x1="200.1289" y1="217.1709" x2="260.712" y2="266.5809">
			<stop  offset="0.2335" style="stop-color:#FFDE68"/>
			<stop  offset="0.2385" style="stop-color:#FFF394"/>
			<stop  offset="0.4374" style="stop-color:#FFF394"/>
			<stop  offset="0.4403" style="stop-color:#FFDE68"/>
			<stop  offset="0.6921" style="stop-color:#FFDE68"/>
			<stop  offset="0.6928" style="stop-color:#FFF394"/>
			<stop  offset="0.7723" style="stop-color:#FFF394"/>
			<stop  offset="0.7724" style="stop-color:#FFDE68"/>
		</linearGradient>
		<path fill="url(#SVGID_2_)" d="M233.564,293.983c-7.138,0-13.273-2.238-18.235-6.652c-4.862-4.324-7.327-9.596-7.327-15.671
			v-54.429c0-6.125,2.479-11.424,7.369-15.748c4.992-4.416,11.113-6.655,18.193-6.655c7.134,0,13.252,2.25,18.184,6.688
			c4.837,4.35,7.289,9.638,7.289,15.716v54.429c0,6.123-2.479,11.407-7.366,15.705C246.677,291.757,240.585,293.983,233.564,293.983
			z M233.027,206.771c-2.958,0-5.524,0.963-7.629,2.863c-2.198,1.988-3.312,4.437-3.312,7.278v54.509
			c0,2.846,1.114,5.295,3.312,7.279c2.104,1.899,4.67,2.863,7.629,2.863c2.955,0,5.534-0.961,7.665-2.855
			c2.233-1.989,3.365-4.44,3.365-7.287v-54.509c0-2.845-1.132-5.296-3.363-7.285C238.559,207.73,235.98,206.771,233.027,206.771z"/>
		<g>
			<path fill="#EDAB07" d="M209.002,272.66v-54.429c0-6.125,2.479-11.424,7.369-15.748c4.992-4.416,11.113-6.655,18.193-6.655
				c7.134,0,13.252,2.25,18.184,6.688c0.186,0.167,0.36,0.337,0.538,0.507c-0.483-0.514-0.993-1.017-1.538-1.507
				c-4.932-4.438-11.05-6.688-18.184-6.688c-7.08,0-13.201,2.239-18.193,6.655c-4.89,4.324-7.369,9.623-7.369,15.748v54.429
				c0,5.791,2.245,10.85,6.666,15.056C210.907,282.716,209.002,277.999,209.002,272.66z"/>
			<path fill="#EDAB07" d="M226.398,279.7c2.104,1.899,4.67,2.863,7.629,2.863c2.955,0,5.534-0.961,7.665-2.855
				c2.233-1.989,3.365-4.44,3.365-7.287v-54.509c0-2.845-1.132-5.296-3.363-7.285c-0.02-0.018-0.041-0.032-0.061-0.049
				c1.604,1.803,2.424,3.926,2.424,6.334v54.509c0,2.847-1.132,5.298-3.365,7.287c-2.131,1.895-4.71,2.855-7.665,2.855
				c-2.912,0-5.441-0.938-7.526-2.778C225.779,279.1,226.073,279.406,226.398,279.7z"/>
		</g>
	</g>
	<g>
		<path fill="#254B62" d="M324.653,212.153c-0.035-0.038-0.068-0.076-0.104-0.114c-0.034-0.037-0.067-0.075-0.103-0.112
			c-0.034-0.038-0.068-0.076-0.104-0.113c-0.034-0.038-0.068-0.076-0.103-0.114c-0.035-0.037-0.068-0.075-0.104-0.113
			c-0.034-0.037-0.068-0.075-0.104-0.113c-0.034-0.038-0.068-0.076-0.104-0.114c-0.034-0.037-0.067-0.075-0.103-0.112
			c-0.034-0.038-0.068-0.076-0.103-0.113c-0.035-0.038-0.068-0.076-0.104-0.113c-0.034-0.038-0.068-0.076-0.103-0.114
			c-0.035-0.037-0.068-0.075-0.104-0.113c-0.034-0.037-0.068-0.075-0.104-0.113c-0.034-0.037-0.067-0.075-0.103-0.113
			c-0.035-0.037-0.068-0.076-0.104-0.113c-0.034-0.038-0.068-0.076-0.103-0.113c-0.035-0.038-0.068-0.076-0.104-0.113
			c-0.034-0.038-0.068-0.076-0.104-0.114c-0.034-0.037-0.068-0.075-0.103-0.113c-0.034-0.037-0.068-0.075-0.104-0.113
			c-0.034-0.037-0.067-0.075-0.103-0.113c-0.035-0.037-0.068-0.075-0.104-0.113c-0.034-0.037-0.067-0.075-0.103-0.112
			c-0.034-0.039-0.068-0.077-0.104-0.115c-0.035-0.037-0.068-0.075-0.103-0.112c-0.035-0.038-0.068-0.076-0.104-0.113
			c-0.035-0.038-0.068-0.076-0.104-0.114c-0.034-0.037-0.067-0.075-0.103-0.113s-0.068-0.076-0.104-0.113
			c-0.034-0.038-0.068-0.076-0.103-0.113c-0.035-0.038-0.068-0.076-0.104-0.113c-0.034-0.038-0.068-0.076-0.103-0.113
			c-0.035-0.038-0.068-0.075-0.103-0.113c-0.035-0.038-0.069-0.076-0.104-0.114c-0.034-0.037-0.068-0.076-0.104-0.113
			c-0.034-0.038-0.067-0.075-0.103-0.113c-0.034-0.037-0.068-0.075-0.103-0.113c-0.035-0.038-0.068-0.076-0.104-0.113
			c-0.034-0.038-0.068-0.076-0.103-0.113c-0.035-0.038-0.068-0.076-0.104-0.113c-0.035-0.038-0.068-0.076-0.104-0.114
			c-0.034-0.037-0.068-0.075-0.103-0.113c-0.035-0.037-0.068-0.075-0.104-0.113c-0.034-0.037-0.067-0.075-0.103-0.112
			c-0.034-0.038-0.068-0.076-0.104-0.114s-0.068-0.076-0.104-0.114c-0.034-0.037-0.068-0.075-0.103-0.112
			c-0.034-0.038-0.068-0.076-0.104-0.113c-0.034-0.038-0.067-0.076-0.103-0.113c-0.035-0.038-0.068-0.076-0.104-0.114
			c-0.034-0.037-0.068-0.075-0.103-0.113c-0.035-0.038-0.069-0.076-0.104-0.113c-0.034-0.038-0.067-0.076-0.102-0.113
			c-0.035-0.037-0.068-0.075-0.104-0.113c-0.034-0.037-0.068-0.076-0.104-0.113c-0.034-0.038-0.068-0.076-0.103-0.113
			c-0.035-0.038-0.068-0.076-0.104-0.114s-0.068-0.075-0.103-0.113c-0.035-0.037-0.068-0.075-0.104-0.113
			c-0.034-0.037-0.068-0.075-0.104-0.113c-0.034-0.038-0.067-0.075-0.103-0.113s-0.068-0.076-0.104-0.113
			c-0.034-0.038-0.068-0.076-0.104-0.114c-0.034-0.037-0.067-0.075-0.103-0.112c-0.034-0.038-0.067-0.076-0.103-0.113
			c-0.034-0.038-0.068-0.076-0.104-0.114c-0.034-0.037-0.068-0.075-0.104-0.113c-0.034-0.037-0.067-0.075-0.103-0.113
			s-0.068-0.076-0.104-0.114c-0.034-0.037-0.068-0.075-0.103-0.112c-0.035-0.038-0.068-0.076-0.104-0.113
			c-0.034-0.038-0.068-0.076-0.103-0.113c-0.035-0.038-0.068-0.076-0.104-0.114s-0.068-0.076-0.104-0.113
			c-0.034-0.038-0.067-0.075-0.103-0.112c-0.034-0.038-0.068-0.076-0.104-0.114c-0.034-0.038-0.068-0.076-0.103-0.113
			c-0.035-0.038-0.068-0.076-0.104-0.113c-0.034-0.038-0.068-0.076-0.103-0.113c-0.035-0.038-0.069-0.076-0.104-0.114
			c-0.034-0.037-0.067-0.075-0.103-0.113c-0.034-0.037-0.067-0.075-0.103-0.113c-0.035-0.037-0.068-0.075-0.104-0.113
			c-0.034-0.038-0.068-0.076-0.103-0.113c-0.035-0.038-0.068-0.076-0.104-0.113c-0.034-0.038-0.068-0.076-0.103-0.113
			c-0.035-0.038-0.068-0.076-0.104-0.114c-0.034-0.037-0.068-0.075-0.104-0.113c-0.034-0.037-0.068-0.075-0.103-0.113
			c-0.035-0.037-0.068-0.075-0.104-0.113c-0.034-0.038-0.068-0.076-0.104-0.114c-0.034-0.037-0.067-0.075-0.103-0.112
			c-0.034-0.038-0.068-0.076-0.103-0.113c-0.035-0.038-0.068-0.076-0.104-0.113c-0.034-0.038-0.068-0.076-0.104-0.113
			c-0.034-0.038-0.067-0.076-0.103-0.113c-0.622-0.679-1.287-1.34-2.001-1.981c-5.501-4.948-12.294-7.457-20.19-7.457
			c-7.834,0-14.624,2.492-20.181,7.408c-5.563,4.919-8.382,10.973-8.382,17.995v54.429c0,6.109,2.155,11.494,6.412,16.042
			c0.035,0.038,0.068,0.076,0.104,0.114c0.034,0.037,0.067,0.075,0.103,0.112c0.035,0.038,0.068,0.076,0.104,0.114
			c0.034,0.037,0.067,0.075,0.103,0.113c0.035,0.037,0.068,0.075,0.104,0.113c0.034,0.037,0.067,0.075,0.103,0.113
			s0.068,0.076,0.104,0.114c0.035,0.037,0.067,0.075,0.103,0.112s0.068,0.076,0.104,0.113c0.035,0.038,0.068,0.076,0.104,0.114
			c0.034,0.037,0.067,0.075,0.103,0.113c0.035,0.037,0.068,0.075,0.104,0.113s0.068,0.076,0.104,0.114
			c0.034,0.037,0.067,0.075,0.103,0.112c0.034,0.038,0.067,0.076,0.103,0.113c0.035,0.038,0.068,0.076,0.104,0.113
			c0.035,0.038,0.067,0.076,0.103,0.113c0.035,0.038,0.069,0.077,0.104,0.114c0.034,0.037,0.067,0.075,0.102,0.112
			c0.035,0.038,0.068,0.076,0.104,0.114c0.035,0.037,0.068,0.076,0.104,0.113c0.034,0.038,0.067,0.076,0.103,0.113
			c0.035,0.038,0.068,0.076,0.104,0.113c0.035,0.038,0.068,0.076,0.104,0.114c0.035,0.037,0.067,0.075,0.103,0.113
			c0.035,0.037,0.068,0.075,0.104,0.113c0.034,0.037,0.067,0.075,0.103,0.113c0.035,0.037,0.068,0.075,0.104,0.113
			c0.034,0.037,0.068,0.076,0.103,0.113c0.035,0.038,0.068,0.076,0.104,0.113c0.035,0.038,0.068,0.076,0.104,0.113
			c0.034,0.038,0.067,0.076,0.103,0.113c0.035,0.038,0.068,0.076,0.104,0.114c0.034,0.037,0.067,0.075,0.103,0.113
			c0.035,0.037,0.068,0.076,0.104,0.113c0.034,0.038,0.067,0.076,0.102,0.113c0.035,0.037,0.068,0.076,0.104,0.113
			c0.035,0.038,0.068,0.076,0.104,0.113c0.034,0.038,0.067,0.076,0.103,0.113c0.035,0.038,0.067,0.075,0.103,0.113
			s0.069,0.076,0.104,0.114c0.034,0.038,0.067,0.076,0.103,0.113c0.034,0.037,0.067,0.076,0.103,0.113s0.068,0.076,0.104,0.113
			s0.068,0.076,0.104,0.113c0.034,0.038,0.068,0.076,0.104,0.114c0.034,0.037,0.067,0.075,0.103,0.112
			c0.034,0.038,0.067,0.076,0.103,0.113c0.035,0.038,0.068,0.076,0.104,0.113c0.034,0.038,0.067,0.076,0.103,0.113
			c0.035,0.038,0.068,0.076,0.104,0.114s0.068,0.076,0.104,0.114c0.035,0.037,0.068,0.075,0.103,0.112
			c0.035,0.038,0.068,0.076,0.104,0.113c0.034,0.038,0.067,0.076,0.103,0.113c0.035,0.038,0.068,0.076,0.104,0.114
			c0.035,0.037,0.068,0.076,0.104,0.113c0.034,0.038,0.067,0.076,0.103,0.113s0.068,0.075,0.104,0.113
			c0.034,0.037,0.067,0.075,0.103,0.112c0.034,0.038,0.068,0.077,0.104,0.114c0.034,0.038,0.067,0.076,0.103,0.113
			c0.035,0.038,0.068,0.077,0.104,0.114c0.034,0.037,0.067,0.075,0.102,0.113c0.035,0.037,0.068,0.075,0.104,0.113
			c0.035,0.037,0.068,0.075,0.104,0.113c0.034,0.037,0.067,0.076,0.103,0.113c0.035,0.038,0.068,0.076,0.104,0.113
			c0.035,0.038,0.068,0.076,0.104,0.114c0.034,0.037,0.067,0.075,0.103,0.112c0.034,0.038,0.067,0.076,0.103,0.113
			c0.035,0.038,0.068,0.076,0.104,0.114c0.035,0.037,0.068,0.076,0.104,0.113c0.034,0.038,0.068,0.076,0.104,0.114
			c0.034,0.037,0.067,0.075,0.103,0.112c0.034,0.037,0.067,0.076,0.103,0.113c0.035,0.038,0.068,0.076,0.104,0.113
			c0.035,0.038,0.067,0.076,0.103,0.113c0.035,0.038,0.068,0.076,0.104,0.113c0.035,0.038,0.068,0.077,0.104,0.114
			s0.067,0.075,0.103,0.112c0.035,0.038,0.068,0.076,0.104,0.114c0.034,0.037,0.067,0.076,0.103,0.113
			c0.035,0.038,0.068,0.076,0.104,0.113c0.035,0.038,0.068,0.076,0.104,0.114c0.035,0.037,0.067,0.075,0.103,0.112
			c0.035,0.038,0.068,0.076,0.104,0.114c0.034,0.037,0.067,0.075,0.103,0.113c0.035,0.037,0.068,0.075,0.104,0.113
			c0.034,0.037,0.067,0.076,0.103,0.113c0.035,0.038,0.068,0.076,0.104,0.113c0.035,0.038,0.068,0.076,0.104,0.113
			c0.034,0.038,0.067,0.076,0.103,0.113c0.035,0.038,0.068,0.076,0.104,0.114c0.034,0.037,0.067,0.075,0.103,0.113
			c0.035,0.037,0.068,0.075,0.104,0.113c0.629,0.68,1.302,1.342,2.023,1.983c5.528,4.917,12.334,7.411,20.229,7.411
			c7.771,0,14.53-2.479,20.089-7.365c5.563-4.894,8.384-10.936,8.384-17.958v-54.43
			C331.037,222.121,328.892,216.725,324.653,212.153z M294.087,227.913c0-1.986,0.761-3.639,2.323-5.053
			c1.07-0.967,2.277-1.583,3.647-1.88v50.44c0,1.983-0.772,3.633-2.358,5.045c-1.07,0.951-2.266,1.565-3.612,1.869V227.913z"/>
		<path fill="#FFFCF2" d="M284.087,216.912c0-1.986,0.76-3.639,2.322-5.052c1.558-1.406,3.396-2.09,5.618-2.09
			c2.228,0,4.083,0.687,5.671,2.097c1.587,1.414,2.359,3.064,2.359,5.045v54.509c0,1.983-0.772,3.633-2.358,5.045
			c-1.587,1.411-3.442,2.098-5.672,2.098c-2.225,0-4.062-0.684-5.618-2.09c-1.563-1.411-2.322-3.064-2.322-5.053V216.912z
			 M312.755,199.285c-5.501-4.948-12.294-7.457-20.19-7.457c-7.834,0-14.624,2.492-20.181,7.408
			c-5.563,4.919-8.382,10.973-8.382,17.995v54.429c0,6.969,2.804,12.995,8.333,17.912c5.527,4.917,12.333,7.411,20.229,7.411
			c7.771,0,14.529-2.478,20.088-7.365c5.563-4.893,8.385-10.936,8.385-17.958v-54.429
			C321.037,210.267,318.251,204.229,312.755,199.285z"/>
		<linearGradient id="SVGID_3_" gradientUnits="userSpaceOnUse" x1="259.1279" y1="217.1709" x2="319.7117" y2="266.5815">
			<stop  offset="0.2335" style="stop-color:#FFDE68"/>
			<stop  offset="0.2385" style="stop-color:#FFF394"/>
			<stop  offset="0.4374" style="stop-color:#FFF394"/>
			<stop  offset="0.4403" style="stop-color:#FFDE68"/>
			<stop  offset="0.6921" style="stop-color:#FFDE68"/>
			<stop  offset="0.6928" style="stop-color:#FFF394"/>
			<stop  offset="0.7723" style="stop-color:#FFF394"/>
			<stop  offset="0.7724" style="stop-color:#FFDE68"/>
		</linearGradient>
		<path fill="url(#SVGID_3_)" d="M292.564,293.983c-7.138,0-13.273-2.238-18.235-6.652c-4.862-4.324-7.327-9.596-7.327-15.671
			v-54.429c0-6.125,2.479-11.424,7.369-15.748c4.992-4.416,11.113-6.655,18.193-6.655c7.134,0,13.252,2.25,18.184,6.688
			c4.837,4.35,7.289,9.638,7.289,15.716v54.429c0,6.123-2.479,11.407-7.366,15.705C305.677,291.757,299.585,293.983,292.564,293.983
			z M292.027,206.771c-2.958,0-5.524,0.963-7.629,2.863c-2.198,1.988-3.312,4.437-3.312,7.278v54.509
			c0,2.846,1.114,5.295,3.312,7.279c2.104,1.899,4.67,2.863,7.629,2.863c2.955,0,5.534-0.961,7.665-2.855
			c2.233-1.989,3.365-4.44,3.365-7.287v-54.509c0-2.845-1.132-5.296-3.363-7.285C297.559,207.73,294.98,206.771,292.027,206.771z"/>
		<g>
			<path fill="#EDAB07" d="M268.002,272.66v-54.429c0-6.125,2.479-11.424,7.369-15.748c4.992-4.416,11.113-6.655,18.193-6.655
				c7.134,0,13.252,2.25,18.184,6.688c0.186,0.167,0.36,0.337,0.538,0.507c-0.483-0.514-0.993-1.017-1.538-1.507
				c-4.932-4.438-11.05-6.688-18.184-6.688c-7.08,0-13.201,2.239-18.193,6.655c-4.89,4.324-7.369,9.623-7.369,15.748v54.429
				c0,5.791,2.245,10.85,6.666,15.056C269.907,282.716,268.002,277.999,268.002,272.66z"/>
			<path fill="#EDAB07" d="M285.398,279.7c2.104,1.899,4.67,2.863,7.629,2.863c2.955,0,5.534-0.961,7.665-2.855
				c2.233-1.989,3.365-4.44,3.365-7.287v-54.509c0-2.845-1.132-5.296-3.363-7.285c-0.02-0.018-0.041-0.032-0.061-0.049
				c1.604,1.803,2.424,3.926,2.424,6.334v54.509c0,2.847-1.132,5.298-3.365,7.287c-2.131,1.895-4.71,2.855-7.665,2.855
				c-2.912,0-5.441-0.938-7.526-2.778C284.779,279.1,285.073,279.406,285.398,279.7z"/>
		</g>
	</g>
</g>
<g>
</g>
<g>
</g>
<g>
</g>
<g>
</g>
<g>
</g>
<g>
</g>
<g>
</g>
<g>
</g>
<g>
</g>
<g>
</g>
<g>
</g>
<g>
</g>
<g>
</g>
<g>
</g>
<g>
</g>
</svg>
