<?xml version="1.0" encoding="utf-8"?>
<!-- Generator: Adobe Illustrator 16.0.0, SVG Export Plug-In . SVG Version: 6.00 Build 0)  -->
<!DOCTYPE svg PUBLIC "-//W3C//DTD SVG 1.1//EN" "http://www.w3.org/Graphics/SVG/1.1/DTD/svg11.dtd">
<svg version="1.1" id="Layer_1" xmlns="http://www.w3.org/2000/svg" xmlns:xlink="http://www.w3.org/1999/xlink" x="0px" y="0px"
	 width="500px" height="500px" viewBox="0 0 500 500" enable-background="new 0 0 500 500" xml:space="preserve">
<path fill-rule="evenodd" clip-rule="evenodd" fill="#FFFFFF" d="M249.5,177.063c40.316,0,73,32.613,73,72.844
	s-32.684,72.844-73,72.844s-73-32.613-73-72.844S209.184,177.063,249.5,177.063z"/>
<g>
	<defs>
		<rect id="SVGID_1_" x="189.71" y="174.209" width="119.579" height="151.395"/>
	</defs>
	<clipPath id="SVGID_2_">
		<use xlink:href="#SVGID_1_"  overflow="visible"/>
	</clipPath>
	<g clip-path="url(#SVGID_2_)">
		<defs>
			<rect id="SVGID_3_" x="189.71" y="174.209" width="119.579" height="151.395"/>
		</defs>
		<clipPath id="SVGID_4_">
			<use xlink:href="#SVGID_3_"  overflow="visible"/>
		</clipPath>
		<path clip-path="url(#SVGID_4_)" fill="#EEEEEE" d="M247.951,325.604c-32.664,0-41.931-10.68-41.931-10.68
			c6.819-22.061,6.96-67.643,6.539-86.163c-0.404-17.742-9.275-43.08-9.275-43.08s10.906-5.462,21.144-8.331
			c8.241-2.31,23.523-3.142,23.523-3.142h2.211c0,0,15.282,0.832,23.522,3.142c10.238,2.869,21.145,8.331,21.145,8.331
			s-7.932,25.384-9.275,43.08c-1.342,17.695,0.367,64.315,6.225,86.163c0,0-8.951,10.68-41.616,10.68H247.951z"/>
	</g>
	<g clip-path="url(#SVGID_2_)">
		<defs>
			<path id="SVGID_5_" d="M247.951,174.209c0,0-15.282,0.83-23.523,3.141c-10.238,2.87-21.144,8.331-21.144,8.331
				s8.871,25.339,9.275,43.08c0.422,18.52,0.279,64.102-6.538,86.163c0,0,9.266,10.68,41.93,10.68h2.211
				c32.665,0,41.616-10.68,41.616-10.68c-5.857-21.848-7.566-68.465-6.225-86.163c1.344-17.696,9.275-43.08,9.275-43.08
				s-10.906-5.461-21.143-8.331c-8.242-2.311-23.524-3.141-23.524-3.141H247.951z"/>
		</defs>
		<clipPath id="SVGID_6_">
			<use xlink:href="#SVGID_5_"  overflow="visible"/>
		</clipPath>
		<path clip-path="url(#SVGID_6_)" fill="#E3605E" d="M212.276,231.849c0,0,12.833,3.247,37.692,3.247
			c24.862,0,37.639-4.109,37.639-4.109l2.645,69.325c0,0-17.859,4.895-39.712,4.895c-21.854,0-41.808-4.895-41.808-4.895
			L212.276,231.849z"/>
	</g>
	<g clip-path="url(#SVGID_2_)">
		<defs>
			<rect id="SVGID_7_" x="189.71" y="174.209" width="119.579" height="151.395"/>
		</defs>
		<clipPath id="SVGID_8_">
			<use xlink:href="#SVGID_7_"  overflow="visible"/>
		</clipPath>
		<path clip-path="url(#SVGID_8_)" fill="#B13737" d="M203.374,185.681c0,0-4.448,4.382-7.969,16.289
			c-3.519,11.906-5.694,22.673-5.694,22.673s12.721,7.478,23.081,6.328C212.792,230.971,212.792,197.932,203.374,185.681"/>
		<path clip-path="url(#SVGID_8_)" fill="#B13737" d="M294.828,185.681c0,0,4.449,4.382,7.969,16.289
			c3.52,11.906,5.695,22.673,5.695,22.673s-12.723,7.478-23.082,6.328C285.41,230.971,285.41,197.932,294.828,185.681"/>
		<path clip-path="url(#SVGID_8_)" fill="#EEEEEE" d="M190.42,224.807c-0.021-0.409,0.102-0.891,0.251-1.364
			c5.256,3.156,17.288,7.192,22.739,7.459c0.001,0.381,0.279,1.989,0.091,2.108C211.287,234.416,190.563,227.389,190.42,224.807"/>
		<path clip-path="url(#SVGID_8_)" fill="#EEEEEE" d="M309.287,225.025c0.021-0.409-0.146-0.919-0.297-1.393
			c-5.256,3.157-17.418,7.072-22.869,7.338c-0.002,0.381-0.188,1.899,0,2.018C288.334,234.396,309.145,227.607,309.287,225.025"/>
		<g opacity="0.4" clip-path="url(#SVGID_8_)">
			<g>
				<defs>
					<rect id="SVGID_9_" x="253.848" y="185.681" width="41.691" height="139.891"/>
				</defs>
				<clipPath id="SVGID_10_">
					<use xlink:href="#SVGID_9_"  overflow="visible"/>
				</clipPath>
				<path clip-path="url(#SVGID_10_)" fill="#B9BBA4" d="M286.031,232.826c0.063-1.477,0.141-2.845,0.23-4.065
					c0.176-2.285,0.691-5.112,0.838-7.3c-0.135-1.18,3.299-16.744,3.373-17.069c2.193-9.409,4.033-14.32,5.066-18.712
					c-10.959,4.763-15.439,25.365-15.252,33.19c0.188,7.911-11.678,13.376-11.678,13.376s4.896,1.511,6.025,2.618
					c1.131,1.107-2.809,24.03-3.375,26.667c-0.564,2.637,4.695,14.258,4.506,17.461c-0.188,3.199-16.197-8.818-16.197-8.818
					s14.691,21.166,16.387,24.369s3.201,7.109-0.754,15.398c-3.775,7.912-19.898,15.107-21.354,15.631
					c7.072-0.145,12.947-0.76,17.791-1.734c8.68-1.744,15.785-4.225,20.85-8.914c-2.602-9.693-4.381-24.262-5.441-39.02
					C285.832,262.557,285.135,247.332,286.031,232.826"/>
			</g>
		</g>
		<g opacity="0.4" clip-path="url(#SVGID_8_)">
			<g>
				<defs>
					<rect id="SVGID_11_" x="204.083" y="185.681" width="36.444" height="139.682"/>
				</defs>
				<clipPath id="SVGID_12_">
					<use xlink:href="#SVGID_11_"  overflow="visible"/>
				</clipPath>
				<path clip-path="url(#SVGID_12_)" fill="#B9BBA4" d="M215.723,320.311c5.201,2.18,13.138,4.346,24.804,5.051
					c-2.096-0.195-19.248-6.777-23.314-29.758c-4.334-24.488-0.378-23.732-0.378-23.732s3.955,18.459,15.823,22.037
					c0,0-16.388-24.863-16.199-64.043c0,0,5.201,1.378-1.648-16.529c-2.608-6.817-8.193-23.464-10.728-27.655
					c0,0,0.387,1.391,1.081,3.933c0.792,2.741,1.9,6.72,3.05,11.32c0.004,0.013,0.007,0.025,0.011,0.038
					c0,0,0.003,0.016,0.004,0.019c2.122,8.492,4.379,19.06,5.04,27.77c0.018,0.253,0.194,2.818,0.194,3.201
					c0,0-0.118,3.417-0.118,3.453c0.141,8.616,0.036,17.839-0.964,32.124v0.027c0,17.201-2.227,34.771-5.651,47.357
					C206.73,314.924,209.548,317.637,215.723,320.311"/>
			</g>
		</g>
		<path clip-path="url(#SVGID_8_)" fill="#2C381E" d="M262.766,175.821c0-0.187-0.029-0.379-0.066-0.562
			c-0.049-0.24-4.24-0.473-4.705-0.518c-1.666-0.162-3.332-0.295-5.004-0.376c-3.24-0.159-6.454-0.059-9.685,0.215
			c-1.39,0.118-2.779,0.248-4.168,0.393c-0.082,0.276-0.141,0.558-0.141,0.845c0,3.249,5.322,5.884,11.885,5.884
			C257.445,181.702,262.766,179.07,262.766,175.821"/>
		<path clip-path="url(#SVGID_8_)" fill="#B13737" d="M263.307,175.338l-0.797-0.073c0.016,0.117,0.021,0.115,0.021,0.233
			c-0.014,2.91-5.256,5.242-11.709,5.212c-6.453-0.031-11.673-2.413-11.66-5.323c0.001-0.118,0.025-0.233,0.041-0.349
			c-0.011,0.011-0.019,0.023-0.031,0.034l0.037-0.106l-0.642,0.094c-0.401,0.785-0.572,1.869-0.317,2.725
			c0.159,0.533,0.495,0.996,0.884,1.384c1.099,1.092,2.627,1.731,4.08,2.191c2.028,0.642,4.16,0.951,6.28,1.052
			c0.44,0.021,0.879,0.032,1.32,0.035c2.788,0.013,5.651-0.307,8.292-1.24c1.262-0.445,2.598-1.014,3.535-2.003
			C263.531,178.261,263.922,176.543,263.307,175.338"/>
		<path clip-path="url(#SVGID_8_)" fill="#2A2B25" d="M279.951,204.199c2.5,3.1-3.098,15.933-7.078,15.933
			c-3.984,0-9.58-12.833-7.08-15.933C268.014,201.443,277.729,201.443,279.951,204.199"/>
	</g>
</g>
<g>
</g>
<g>
</g>
<g>
</g>
<g>
</g>
<g>
</g>
<g>
</g>
<g>
</g>
<g>
</g>
<g>
</g>
<g>
</g>
<g>
</g>
<g>
</g>
<g>
</g>
<g>
</g>
<g>
</g>
</svg>
