<?xml version="1.0" encoding="utf-8"?>
<!-- Generator: Adobe Illustrator 16.0.0, SVG Export Plug-In . SVG Version: 6.00 Build 0)  -->
<!DOCTYPE svg PUBLIC "-//W3C//DTD SVG 1.1//EN" "http://www.w3.org/Graphics/SVG/1.1/DTD/svg11.dtd">
<svg version="1.1" id="Layer_1" xmlns="http://www.w3.org/2000/svg" xmlns:xlink="http://www.w3.org/1999/xlink" x="0px" y="0px"
	 width="512.001px" height="376.578px" viewBox="0 0 512.001 376.578" enable-background="new 0 0 512.001 376.578"
	 xml:space="preserve">
<g>
	<defs>
		<rect id="SVGID_1_" width="512.001" height="376.578"/>
	</defs>
	<clipPath id="SVGID_2_">
		<use xlink:href="#SVGID_1_"  overflow="visible"/>
	</clipPath>
	<path clip-path="url(#SVGID_2_)" fill="#142A46" d="M474.455,376.578H37.545c-4.946,0-8.956-4.01-8.956-8.956v-40.657H483.41
		v40.657C483.411,372.568,479.401,376.578,474.455,376.578"/>
	<path clip-path="url(#SVGID_2_)" fill="#0D1C2D" d="M437.188,326.965v49.613h37.267c4.946,0,8.956-4.009,8.956-8.956v-40.657
		H437.188z"/>
	<path clip-path="url(#SVGID_2_)" fill="#2C5871" d="M472,341.45H40c-22.091,0-40-17.909-40-40V40C0,17.908,17.909,0,40,0h432.001
		c22.092,0,40,17.908,40,40L512,301.45C512,323.542,494.092,341.45,472,341.45"/>
	<path clip-path="url(#SVGID_2_)" fill="#204E63" d="M472,0h-5.235v341.45H472c22.092,0,40-17.909,40-40V40
		C512,17.909,494.092,0,472,0"/>
	<path clip-path="url(#SVGID_2_)" fill="#E1EFFB" d="M256,137.199c4.413,0,7.99,3.577,7.99,7.99c0,4.412-3.577,7.99-7.99,7.99
		s-7.99-3.578-7.99-7.99C248.01,140.776,251.587,137.199,256,137.199"/>
	<path clip-path="url(#SVGID_2_)" fill="#E1EFFB" d="M256,190.809c4.413,0,7.99,3.578,7.99,7.99c0,4.413-3.577,7.99-7.99,7.99
		s-7.99-3.577-7.99-7.99C248.01,194.387,251.587,190.809,256,190.809"/>
	<path clip-path="url(#SVGID_2_)" fill="#0D1C2D" d="M220.204,290.856H51.577c-3.508,0-6.352-2.845-6.352-6.353V56.946
		c0-3.508,2.844-6.352,6.352-6.352h168.628c3.508,0,6.352,2.844,6.352,6.352v227.557
		C226.557,288.012,223.713,290.856,220.204,290.856"/>
	<path clip-path="url(#SVGID_2_)" fill="#0D1C2D" d="M460.423,290.856H291.796c-3.508,0-6.352-2.845-6.352-6.353V56.946
		c0-3.508,2.844-6.352,6.352-6.352h168.628c3.508,0,6.354,2.844,6.354,6.352v227.557
		C466.777,288.012,463.932,290.856,460.423,290.856"/>
	<rect x="45.22" y="162.989" clip-path="url(#SVGID_2_)" fill="#1F4468" width="181.33" height="15.465"/>
	<rect x="285.44" y="162.989" clip-path="url(#SVGID_2_)" fill="#1F4468" width="181.328" height="15.465"/>
</g>
</svg>
